<svg width="123" height="105" viewBox="0 0 123 105" fill="none" xmlns="http://www.w3.org/2000/svg">
<path d="M122.706 80.3268C122.706 93.5497 111.987 104.269 98.7639 104.269L62.8506 104.269C59.1775 104.269 56.2 101.291 56.2 97.6184L56.2 52.3943C56.2 45.0482 62.1551 39.0931 69.5012 39.0931L116.055 39.0931C119.728 39.0931 122.706 42.0707 122.706 45.7437L122.706 80.3268Z" fill="#FFF1DA"/>
<path d="M31.6286 67.898L29.1173 66.6958L14.1978 88.7554H30.8481L32.4526 87.7092V68.6531L31.6286 67.898Z" fill="#407093"/>
<path d="M29.3441 66.8043L23.6976 64.1011H22.6334L6.66699 87.7089L7.61753 88.7551H14.4983L29.3441 66.8043Z" fill="#365E7D"/>
<path d="M35.4505 87.7085H13.4336C12.4334 87.7085 11.6226 88.5192 11.6226 89.5196V91.8145C11.6226 92.8145 12.4333 93.6252 13.4333 93.6254H35.4505C36.4506 93.6254 37.2615 92.8147 37.2615 91.8145V89.5196C37.2615 88.5192 36.4506 87.7085 35.4505 87.7085Z" fill="#4A80AA"/>
<path d="M11.9971 91.8145V89.5196C11.9971 88.5194 12.808 87.7085 13.8082 87.7085H2.14603C1.14584 87.7085 0.334961 88.5192 0.334961 89.5196V91.8145C0.334961 92.8147 1.14584 93.6254 2.14603 93.6254H13.808C12.8078 93.6254 11.9971 92.8147 11.9971 91.8145Z" fill="#407093"/>
<path d="M28.5866 53.6968C27.9089 55.0949 27.5259 56.6624 27.5259 58.3207C27.5259 62.8523 30.3635 66.7179 34.3573 68.2471C36.072 67.7099 37.5956 66.7408 38.7991 65.465V63.1494L28.5866 53.6968Z" fill="#4A80AA"/>
<path d="M27.7045 58.3592C27.7045 56.7393 28.0791 55.2081 28.7423 53.8429L25.4779 50.8213H24.1533C22.1502 52.7109 20.8979 55.388 20.8979 58.3591C20.8979 64.0827 25.5377 68.7224 31.2613 68.7224C32.4536 68.7224 33.5969 68.5179 34.6625 68.1471C30.6123 66.7381 27.7045 62.8894 27.7045 58.3592Z" fill="#407093"/>
<path d="M87.8728 1.74656C86.2329 0.106616 83.574 0.106616 81.9342 1.74656L77.9268 5.75403V6.26194L82.9286 11.4762L83.8653 11.6926L87.8726 7.68512C89.5127 6.04536 89.5127 3.3865 87.8728 1.74656Z" fill="#FFD086"/>
<path d="M88.9806 3.72874C88.8057 3.00279 88.4394 2.31339 87.8728 1.74656C86.2329 0.106616 83.574 0.106616 81.9342 1.74656L77.9268 5.75403V6.26194L80.5787 9.02646C82.1597 7.38124 83.7295 5.75767 84.5367 4.95043C85.8824 3.6049 87.8479 3.59454 88.9806 3.72874Z" fill="#FFC365"/>
<path d="M74.1534 12.4224C74.1074 12.4224 74.0608 12.42 74.0141 12.4155L27.704 7.85719C26.9317 7.78117 26.3674 7.09359 26.4434 6.32126C26.5194 5.54894 27.2073 4.98501 27.9793 5.06048L74.2894 9.6186C75.0615 9.69462 75.626 10.3822 75.55 11.1545C75.4785 11.8803 74.8673 12.4224 74.1534 12.4224Z" fill="#365E7D"/>
<path d="M41.0978 21.0901C40.4746 21.0901 39.9052 20.6722 39.7397 20.0412C39.5428 19.2905 39.9917 18.5223 40.7422 18.3254L73.7959 9.65559C74.5464 9.45901 75.3147 9.90764 75.5114 10.6583C75.7084 11.4088 75.2596 12.177 74.5089 12.3739L41.4553 21.0437C41.3356 21.075 41.2156 21.0901 41.0978 21.0901Z" fill="#407093"/>
<path d="M83.1303 63.2139C82.4158 63.2139 81.8046 62.6712 81.7335 61.9453L77.2035 15.6068C77.1281 14.8347 77.6929 14.1473 78.4652 14.0716C79.2376 13.9996 79.9248 14.5612 80.0002 15.3335L84.5302 61.672C84.6056 62.4441 84.0408 63.1315 83.2685 63.2072C83.2221 63.2115 83.1759 63.2139 83.1303 63.2139Z" fill="#365E7D"/>
<path d="M69.8008 50.0605C69.6817 50.0605 69.5606 50.045 69.4398 50.0132C68.6897 49.8143 68.2429 49.045 68.4418 48.2949L77.2393 15.1136C77.4381 14.3633 78.2071 13.9172 78.9574 14.1154C79.7076 14.3144 80.1544 15.0836 79.9554 15.8337L71.158 49.015C70.9912 49.6446 70.4226 50.0605 69.8008 50.0605Z" fill="#407093"/>
<path d="M73.8999 9.7793L77.9176 5.76162L83.8552 11.6994L79.8376 15.717L73.8999 9.7793Z" fill="#FFC365"/>
<path d="M76.9511 12.814C77.9167 11.8029 79.4246 10.2259 80.8831 8.7096L77.9271 5.75342L73.9087 9.77162L76.9511 12.814Z" fill="#FFA90F"/>
<path d="M80.7419 18.011C80.3824 18.011 80.0227 17.8738 79.7484 17.5995L72.021 9.87226C71.4722 9.32343 71.4722 8.43399 72.021 7.88498C72.5696 7.33652 73.4593 7.33652 74.0081 7.88498L81.7355 15.6122C82.2844 16.1611 82.2844 17.0505 81.7355 17.5995C81.4611 17.8739 81.1016 18.011 80.7419 18.011Z" fill="#4A80AA"/>
<path d="M81.6486 65.7427L34.6011 18.2871C28.3636 32.3686 27.2805 47.4851 31.95 60.5204C44.8463 72.1535 64.1108 73.9398 81.8457 66.6272L81.6486 65.7427Z" fill="#B5DCFF"/>
<path d="M34.8518 18.5402L24.0726 7.66748L22.9924 7.77405C15.3979 26.1926 17.6154 46.2623 30.4865 59.1334C31.2661 59.913 32.0728 60.6528 32.9033 61.3546C27.4776 48.3347 28.3594 32.8493 34.8518 18.5402Z" fill="#8BCAFF"/>
<path d="M85.9482 62.3695L38.2321 14.6533C37.7626 14.7257 37.3105 14.9392 36.9489 15.3007L34.8735 17.3764C34.4277 17.8221 34.2061 18.4042 34.1997 18.9885L81.7646 66.5532C82.4718 67.2604 83.6184 67.2604 84.3256 66.5532L85.9484 64.9305C86.6555 64.2235 86.6555 63.0767 85.9482 62.3695Z" fill="#DBEDFF"/>
<path d="M34.945 17.4114L36.9772 15.3792C37.3514 15.005 37.8241 14.7907 38.3118 14.7327L27.2501 3.67104C26.5429 2.96382 25.3963 2.96382 24.6889 3.67104L23.0661 5.29389C22.3588 6.00111 22.3588 7.14769 23.0661 7.85491L34.2832 19.0721C34.2685 18.4727 34.4876 17.8688 34.945 17.4114Z" fill="#B5DCFF"/>
</svg>
