<svg width="63" height="65" viewBox="0 0 63 65" fill="none" xmlns="http://www.w3.org/2000/svg">
<rect x="0.402344" y="0.212891" width="62.5157" height="63.8458" rx="17.2916" fill="#F15A2B"/>
<path d="M44.055 42.6809C43.4562 42.6931 42.8681 42.5218 42.3695 42.19C41.9985 41.9475 41.5648 41.8184 41.1215 41.8184C40.6783 41.8184 40.2446 41.9475 39.8735 42.19C39.3699 42.5106 38.7853 42.6809 38.1883 42.6809C37.5913 42.6809 37.0067 42.5106 36.5031 42.19C36.132 41.9473 35.6982 41.818 35.2548 41.818C34.8114 41.818 34.3777 41.9473 34.0066 42.19C33.503 42.5106 32.9184 42.6809 32.3214 42.6809C31.7244 42.6809 31.1397 42.5106 30.6361 42.19C30.2653 41.9474 29.8319 41.8182 29.3888 41.8182C28.9457 41.8182 28.5122 41.9474 28.1414 42.19C27.6848 42.4934 27.152 42.662 26.6039 42.6766L26.5737 41.8138C26.9785 41.8042 27.3716 41.6761 27.7044 41.4454C28.2079 41.1248 28.7923 40.9546 29.3892 40.9546C29.9861 40.9546 30.5705 41.1248 31.074 41.4454C31.445 41.688 31.8787 41.8171 32.322 41.8171C32.7653 41.8171 33.199 41.688 33.57 41.4454C34.0737 41.1245 34.6585 40.9541 35.2557 40.9541C35.8529 40.9541 36.4377 41.1245 36.9413 41.4454C37.3124 41.688 37.7461 41.8171 38.1894 41.8171C38.6327 41.8171 39.0663 41.688 39.4374 41.4454C39.941 41.1249 40.5256 40.9546 41.1226 40.9546C41.7196 40.9546 42.3042 41.1249 42.8078 41.4454C43.1798 41.6885 43.6145 41.818 44.0589 41.818C44.5032 41.818 44.938 41.6885 45.3099 41.4454C45.8079 41.1145 46.395 40.9435 46.9928 40.9553V41.8181C46.5477 41.8059 46.1103 41.936 45.7443 42.1895C45.2445 42.5219 44.655 42.6933 44.055 42.6809Z" fill="white"/>
<path d="M20.5917 42.6804C19.993 42.6928 19.405 42.5214 18.9066 42.1895C18.5407 41.9358 18.1033 41.8055 17.6582 41.8176V40.9548C18.257 40.9424 18.8452 41.1137 19.3436 41.4458C19.7094 41.6995 20.1467 41.8298 20.5917 41.8176C21.0369 41.8298 21.4743 41.6994 21.8401 41.4453C22.3375 41.1135 22.9247 40.9423 23.5225 40.9548C24.1058 40.9417 24.6795 41.1052 25.1683 41.4238L24.733 42.1683C24.376 41.928 23.9527 41.8054 23.5225 41.8176C23.0792 41.8057 22.6436 41.9356 22.2793 42.1886C21.7804 42.5215 21.1913 42.6932 20.5917 42.6804Z" fill="white"/>
<path d="M44.0563 39.6618C43.4571 39.674 42.8686 39.5027 42.3696 39.1708C41.9982 38.9281 41.5641 38.7989 41.1205 38.7989C40.6768 38.7989 40.2428 38.9281 39.8714 39.1708C39.3678 39.4914 38.7833 39.6616 38.1864 39.6616C37.5895 39.6616 37.0049 39.4914 36.5014 39.1708C36.1305 38.9283 35.6969 38.7991 35.2538 38.7991C34.8106 38.7991 34.3771 38.9283 34.0062 39.1708C33.5027 39.4915 32.9181 39.6618 32.3212 39.6618C31.7242 39.6618 31.1397 39.4915 30.6362 39.1708C30.2653 38.9283 29.8317 38.7991 29.3886 38.7991C28.9454 38.7991 28.5119 38.9283 28.141 39.1708C27.6427 39.5029 27.0546 39.6742 26.456 39.6618C25.8573 39.6742 25.2693 39.5029 24.771 39.1708C24.4054 38.9171 23.9683 38.7868 23.5234 38.799C23.0787 38.7869 22.6417 38.9172 22.2762 39.1708C21.7787 39.5025 21.1916 39.6738 20.5938 39.6618C19.995 39.6742 19.4068 39.5029 18.9084 39.1708C18.542 38.9166 18.1039 38.7863 17.6582 38.799V37.9362C18.2568 37.9238 18.8449 38.0952 19.3432 38.4271C19.7092 38.6808 20.1465 38.8111 20.5917 38.799C21.0364 38.8111 21.4733 38.6808 21.8388 38.4271C22.3363 38.0955 22.9235 37.9242 23.5212 37.9362C24.1203 37.9235 24.7089 38.0948 25.2075 38.4271C25.5733 38.6809 26.0106 38.8112 26.4556 38.799C26.9006 38.8112 27.3378 38.6809 27.7036 38.4271C28.2071 38.1064 28.7916 37.9361 29.3886 37.9361C29.9855 37.9361 30.5701 38.1064 31.0736 38.4271C31.4446 38.6697 31.8782 38.7989 32.3214 38.7989C32.7646 38.7989 33.1982 38.6697 33.5692 38.4271C34.0727 38.1064 34.6573 37.9361 35.2542 37.9361C35.8512 37.9361 36.4357 38.1064 36.9392 38.4271C37.3102 38.6697 37.7438 38.7989 38.187 38.7989C38.6302 38.7989 39.0639 38.6697 39.4348 38.4271C39.9388 38.1066 40.5238 37.9363 41.1211 37.9363C41.7185 37.9363 42.3034 38.1066 42.8074 38.4271C43.179 38.6696 43.6132 38.7988 44.057 38.7988C44.5007 38.7988 44.9349 38.6696 45.3065 38.4271C45.8054 38.0954 46.3938 37.9241 46.9928 37.9362V38.799C46.5468 38.7864 46.1084 38.9167 45.7418 39.1708C45.2431 39.5024 44.655 39.6737 44.0563 39.6618Z" fill="white"/>
<path d="M44.0551 36.6418C43.4563 36.654 42.8682 36.4827 42.3696 36.1508C42.0037 35.8971 41.5663 35.7669 41.1212 35.779C40.7945 35.7678 40.4701 35.8374 40.1769 35.9817L39.7964 35.2052C40.2082 35.0034 40.6627 34.9038 41.1212 34.9149C41.7207 34.9027 42.3095 35.0745 42.8084 35.4071C43.1803 35.6503 43.615 35.7797 44.0594 35.7797C44.5038 35.7797 44.9385 35.6503 45.3104 35.4071C45.8082 35.076 46.3951 34.9047 46.9929 34.9162V35.779C46.5478 35.7668 46.1104 35.8969 45.7444 36.1504C45.2446 36.4827 44.6551 36.6542 44.0551 36.6418Z" fill="white"/>
<path d="M38.1838 36.6412C37.586 36.6538 36.9987 36.4826 36.5014 36.1508C36.1303 35.908 35.6965 35.7788 35.2531 35.7788C34.8097 35.7788 34.376 35.908 34.0049 36.1508C33.5013 36.4714 32.9167 36.6417 32.3197 36.6417C31.7227 36.6417 31.138 36.4714 30.6344 36.1508C30.2634 35.9082 29.8297 35.779 29.3864 35.779C28.9431 35.779 28.5094 35.9082 28.1384 36.1508C27.6402 36.4822 27.0525 36.6533 26.4543 36.6412C25.8556 36.6536 25.2676 36.4823 24.7692 36.1503C24.4033 35.8966 23.9659 35.7663 23.5208 35.7785C23.0774 35.7665 22.6418 35.8965 22.2775 36.1495C21.7791 36.482 21.1907 36.6537 20.5917 36.6412C19.993 36.6536 19.405 36.4823 18.9066 36.1503C18.5407 35.8966 18.1033 35.7663 17.6582 35.7785V34.9157C18.257 34.9032 18.8452 35.0746 19.3436 35.4066C19.7094 35.6604 20.1467 35.7907 20.5917 35.7785C21.0369 35.7907 21.4743 35.6602 21.8401 35.4062C22.3375 35.0743 22.9247 34.9031 23.5225 34.9157C24.1212 34.9033 24.7092 35.0747 25.2075 35.4066C25.5733 35.6604 26.0106 35.7907 26.4556 35.7785C26.9007 35.7906 27.3381 35.6603 27.704 35.4066C28.2076 35.086 28.7922 34.9157 29.3892 34.9157C29.9862 34.9157 30.5709 35.086 31.0745 35.4066C31.4455 35.6492 31.8792 35.7784 32.3225 35.7784C32.7658 35.7784 33.1994 35.6492 33.5705 35.4066C34.0742 35.0858 34.659 34.9153 35.2561 34.9153C35.8533 34.9153 36.4381 35.0858 36.9418 35.4066C37.3219 35.6622 37.7726 35.7921 38.2304 35.778C38.2637 35.7785 38.2969 35.7767 38.33 35.7729L38.4448 36.6279C38.3582 36.638 38.271 36.6424 38.1838 36.6412Z" fill="white"/>
<path d="M44.0563 33.6227C43.4571 33.6349 42.8686 33.4636 42.3696 33.1318C41.9982 32.8891 41.5641 32.7598 41.1205 32.7598C40.6768 32.7598 40.2428 32.8891 39.8714 33.1318C39.3678 33.4523 38.7833 33.6226 38.1864 33.6226C37.5895 33.6226 37.0049 33.4523 36.5014 33.1318C36.1305 32.8892 35.6969 32.7601 35.2538 32.7601C34.8106 32.7601 34.3771 32.8892 34.0062 33.1318C33.5027 33.4524 32.9181 33.6227 32.3212 33.6227C31.7242 33.6227 31.1397 33.4524 30.6362 33.1318C30.2653 32.8892 29.8317 32.7601 29.3886 32.7601C28.9454 32.7601 28.5119 32.8892 28.141 33.1318C27.6427 33.4638 27.0546 33.6351 26.456 33.6227C25.8573 33.6351 25.2693 33.4638 24.771 33.1318C24.4054 32.8781 23.9683 32.7478 23.5234 32.7599C23.0787 32.7478 22.6417 32.8781 22.2762 33.1318C21.7787 33.4634 21.1916 33.6347 20.5938 33.6227C19.995 33.6351 19.4068 33.4638 18.9084 33.1318C18.542 32.8776 18.1039 32.7473 17.6582 32.7599V31.8971C18.2568 31.8848 18.8449 32.0561 19.3432 32.3881C19.7092 32.6418 20.1465 32.772 20.5917 32.7599C21.0364 32.772 21.4733 32.6417 21.8388 32.3881C22.3363 32.0564 22.9235 31.8851 23.5212 31.8971C24.1203 31.8844 24.7089 32.0558 25.2075 32.3881C25.5733 32.6418 26.0106 32.7721 26.4556 32.7599C26.9006 32.7721 27.3378 32.6418 27.7036 32.3881C28.2071 32.0674 28.7916 31.897 29.3886 31.897C29.9855 31.897 30.5701 32.0674 31.0736 32.3881C31.4446 32.6306 31.8782 32.7598 32.3214 32.7598C32.7646 32.7598 33.1982 32.6306 33.5692 32.3881C34.0727 32.0674 34.6573 31.897 35.2542 31.897C35.8512 31.897 36.4357 32.0674 36.9392 32.3881C37.3102 32.6306 37.7438 32.7598 38.187 32.7598C38.6302 32.7598 39.0639 32.6306 39.4348 32.3881C39.9388 32.0675 40.5238 31.8973 41.1211 31.8973C41.7185 31.8973 42.3034 32.0675 42.8074 32.3881C43.179 32.6306 43.6132 32.7597 44.057 32.7597C44.5007 32.7597 44.9349 32.6306 45.3065 32.3881C45.8054 32.0563 46.3938 31.885 46.9928 31.8971V32.7599C46.5468 32.7473 46.1084 32.8776 45.7418 33.1318C45.2431 33.4634 44.655 33.6347 44.0563 33.6227Z" fill="white"/>
<path d="M37.9092 33.2549L37.0952 32.9693C37.3048 32.3669 37.3905 31.7284 37.347 31.0921C37.3034 30.4558 37.1317 29.8348 36.8419 29.2666L33.8787 23.464C33.8495 23.4067 33.8334 23.3436 33.8317 23.2793C33.83 23.215 33.8427 23.1511 33.8689 23.0923C33.895 23.0335 33.934 22.9814 33.983 22.9396C34.0319 22.8979 34.0896 22.8676 34.1518 22.851L40.0571 21.2764C40.2495 21.2261 40.4143 21.1018 40.5156 20.9306C40.6169 20.7594 40.6464 20.5552 40.5979 20.3623C40.5493 20.1694 40.4265 20.0035 40.2563 19.9006C40.086 19.7978 39.882 19.7664 39.6887 19.8132L32.5414 21.5215C32.3886 21.5576 32.2462 21.6284 32.1252 21.7284C32.0041 21.8284 31.9077 21.9549 31.8435 22.0981C31.7792 22.2413 31.7487 22.3975 31.7545 22.5544C31.7602 22.7112 31.802 22.8647 31.8766 23.0029L33.9991 26.9458C34.0529 27.046 34.065 27.1634 34.0327 27.2725C34.0004 27.3815 33.9263 27.4734 33.8265 27.5281L31.0872 29.038L30.6709 28.2822L33.0358 26.9785L31.1178 23.4118C30.9806 23.1572 30.9038 22.8744 30.8933 22.5854C30.8829 22.2963 30.939 22.0088 31.0574 21.7449C31.1759 21.481 31.3534 21.2479 31.5763 21.0636C31.7992 20.8793 32.0615 20.7487 32.343 20.682L39.4868 18.9741C39.9027 18.869 40.3433 18.9334 40.7117 19.1532C41.0801 19.373 41.3461 19.7301 41.4511 20.146C41.5562 20.5619 41.4918 21.0025 41.272 21.3708C41.0523 21.7392 40.6952 22.0052 40.2793 22.1103L34.8895 23.5468L37.6107 28.8736C37.9533 29.546 38.1564 30.2808 38.2077 31.0337C38.259 31.7867 38.1575 32.5422 37.9092 33.2549Z" fill="white"/>
<path d="M29.1628 29.1211L23.9204 32.0098L24.3366 32.765L29.5789 29.8764L29.1628 29.1211Z" fill="white"/>
<path d="M41.816 30.3869C41.1761 30.3869 40.5506 30.1971 40.0185 29.8416C39.4864 29.4861 39.0717 28.9808 38.8268 28.3896C38.582 27.7984 38.5179 27.1479 38.6427 26.5202C38.7676 25.8926 39.0757 25.3161 39.5282 24.8637C39.9807 24.4112 40.5572 24.103 41.1848 23.9782C41.8124 23.8533 42.4629 23.9174 43.0541 24.1623C43.6453 24.4072 44.1506 24.8219 44.5062 25.3539C44.8617 25.886 45.0514 26.5115 45.0514 27.1514C45.0505 28.0093 44.7093 28.8317 44.1028 29.4382C43.4962 30.0448 42.6738 30.386 41.816 30.3869ZM41.816 24.7788C41.3467 24.7788 40.888 24.918 40.4978 25.1787C40.1076 25.4394 39.8035 25.8099 39.624 26.2435C39.4444 26.677 39.3974 27.1541 39.4889 27.6143C39.5805 28.0746 39.8065 28.4973 40.1383 28.8292C40.4701 29.161 40.8929 29.387 41.3531 29.4785C41.8134 29.5701 42.2904 29.5231 42.724 29.3435C43.1575 29.1639 43.5281 28.8598 43.7888 28.4696C44.0495 28.0794 44.1886 27.6207 44.1886 27.1514C44.1878 26.5224 43.9376 25.9194 43.4928 25.4746C43.048 25.0298 42.445 24.7796 41.816 24.7788Z" fill="white"/>
</svg>
