<svg width="63" height="65" viewBox="0 0 63 65" fill="none" xmlns="http://www.w3.org/2000/svg">
<rect x="0.402344" y="0.240234" width="62.5157" height="63.8458" rx="17.2916" fill="#F0BB1F"/>
<path d="M18.4183 23.4852C18.0238 23.4852 17.701 23.1624 17.6939 22.768V18.2566C17.6939 17.855 18.0166 17.5322 18.4183 17.5322H22.9296C23.3241 17.5322 23.6468 17.855 23.6468 18.2566V19.8273H41.0036V18.2566C41.0036 17.8621 41.3263 17.5394 41.7208 17.5322H46.2321C46.6266 17.5322 46.9494 17.855 46.9565 18.2566V22.768C46.9565 23.1624 46.6338 23.4852 46.2321 23.4852H44.6614V40.842H46.2321C46.6266 40.842 46.9494 41.1647 46.9565 41.5592V46.0705C46.9565 46.465 46.6338 46.7877 46.2321 46.7949H41.7208C41.3263 46.7949 41.0036 46.4721 41.0036 46.0705V44.4998H23.6468V46.0705C23.6468 46.465 23.3241 46.7877 22.9296 46.7949H18.4183C18.0238 46.7949 17.701 46.4721 17.6939 46.0705V41.5592C17.6939 41.1647 18.0166 40.842 18.4183 40.842H19.989V23.4852H18.4183ZM45.5221 22.0507V18.9667H42.438V22.0507H45.5221ZM42.438 45.3605H45.5221V42.2764H42.438V45.3605ZM23.6468 41.5592V43.0653H41.0036V41.5592C41.0036 41.1647 41.3263 40.842 41.7208 40.842H43.227V23.4852H41.7208C41.3263 23.4852 41.0036 23.1624 41.0036 22.768V21.2618H23.6468V22.768C23.6468 23.1624 23.3241 23.4852 22.9296 23.4852H21.4234V40.842H22.9296C23.3241 40.842 23.6468 41.1647 23.6468 41.5592ZM19.1283 42.2764V45.3605H22.2124V42.2764H19.1283ZM22.2124 22.0507V18.9667H19.1283V22.0507H22.2124Z" fill="white"/>
</svg>
