<svg width="150" height="129" viewBox="0 0 150 129" fill="none" xmlns="http://www.w3.org/2000/svg">
<path d="M120.789 40.8045C120.789 27.5816 110.07 16.8623 96.8469 16.8623L60.9336 16.8623C57.2605 16.8623 54.283 19.8399 54.283 23.5129L54.283 68.737C54.283 76.0831 60.2381 82.0383 67.5842 82.0383L114.138 82.0383C117.811 82.0383 120.789 79.0607 120.789 75.3877L120.789 40.8045Z" fill="#FFF1DA"/>
<path d="M49.572 22C52.6512 16.6667 60.3492 16.6667 63.4284 22L105.431 94.75C108.51 100.083 104.661 106.75 98.5025 106.75H14.498C8.33961 106.75 4.4906 100.083 7.5698 94.75L49.572 22Z" fill="#396E97"/>
<path d="M100.072 55C103.151 49.6667 110.849 49.6667 113.928 55L137.311 95.5C140.39 100.833 136.541 107.5 130.383 107.5H83.6173C77.4589 107.5 73.6099 100.833 76.6891 95.5L100.072 55Z" fill="#4A80AA"/>
<path d="M29 56.9966L45 29.9875C51 13.5001 59.8871 16.9985 63.5 22.0002L77 45.4927C76.6559 50.6611 74.5226 61.198 68.7419 61.9983C61.5161 62.9986 63.5806 48.4937 58.9355 45.4927C54.2903 42.4917 55.3226 68.0003 48.6129 68.0003C41.9032 68.0003 45 42.9919 37.2581 55.4961C31.0645 65.4994 29.172 60.6645 29 56.9966Z" fill="#F1F8FF"/>
<circle cx="16" cy="15" r="15" fill="#FFE607"/>
</svg>
