<svg width="63" height="65" viewBox="0 0 63 65" fill="none" xmlns="http://www.w3.org/2000/svg">
<rect x="0.402344" y="0.18457" width="62.5157" height="63.8458" rx="17.2916" fill="#006380"/>
<path d="M22.3492 34.9355C21.9546 34.9355 21.5688 35.0526 21.2407 35.2718C20.9126 35.491 20.6569 35.8026 20.5059 36.1672C20.3549 36.5318 20.3154 36.9329 20.3923 37.32C20.4693 37.707 20.6593 38.0625 20.9384 38.3415C21.2174 38.6206 21.5729 38.8106 21.9599 38.8876C22.347 38.9646 22.7481 38.9251 23.1127 38.774C23.4773 38.623 23.7889 38.3673 24.0081 38.0392C24.2274 37.7111 24.3444 37.3253 24.3444 36.9307C24.3444 36.4016 24.1342 35.8941 23.76 35.5199C23.3858 35.1458 22.8783 34.9355 22.3492 34.9355ZM22.3492 37.9283C22.1519 37.9283 21.959 37.8698 21.795 37.7602C21.6309 37.6506 21.503 37.4948 21.4275 37.3125C21.352 37.1302 21.3323 36.9296 21.3708 36.7361C21.4093 36.5426 21.5043 36.3648 21.6438 36.2253C21.7833 36.0858 21.9611 35.9908 22.1546 35.9523C22.3481 35.9138 22.5487 35.9336 22.7309 36.0091C22.9132 36.0846 23.069 36.2124 23.1787 36.3765C23.2883 36.5406 23.3468 36.7334 23.3468 36.9307C23.3468 37.1953 23.2417 37.4491 23.0546 37.6361C22.8675 37.8232 22.6138 37.9283 22.3492 37.9283Z" fill="white"/>
<path d="M42.3013 34.9355C41.9067 34.9355 41.521 35.0526 41.1929 35.2718C40.8648 35.491 40.609 35.8026 40.458 36.1672C40.307 36.5318 40.2675 36.9329 40.3445 37.32C40.4215 37.707 40.6115 38.0625 40.8905 38.3415C41.1696 38.6206 41.5251 38.8106 41.9121 38.8876C42.2991 38.9646 42.7003 38.9251 43.0649 38.774C43.4294 38.623 43.741 38.3673 43.9603 38.0392C44.1795 37.7111 44.2965 37.3253 44.2965 36.9307C44.2965 36.4016 44.0863 35.8941 43.7121 35.5199C43.338 35.1458 42.8305 34.9355 42.3013 34.9355ZM42.3013 37.9283C42.104 37.9283 41.9112 37.8698 41.7471 37.7602C41.583 37.6506 41.4552 37.4948 41.3797 37.3125C41.3042 37.1302 41.2844 36.9296 41.3229 36.7361C41.3614 36.5426 41.4564 36.3648 41.5959 36.2253C41.7354 36.0858 41.9132 35.9908 42.1067 35.9523C42.3002 35.9138 42.5008 35.9336 42.6831 36.0091C42.8654 36.0846 43.0212 36.2124 43.1308 36.3765C43.2404 36.5406 43.2989 36.7334 43.2989 36.9307C43.2989 37.1953 43.1938 37.4491 43.0067 37.6361C42.8196 37.8232 42.5659 37.9283 42.3013 37.9283Z" fill="white"/>
<path d="M27.8359 37.4287H36.8143V38.4263H27.8359V37.4287Z" fill="white"/>
<path d="M27.8359 35.4346H36.8143V36.4322H27.8359V35.4346Z" fill="white"/>
<path d="M30.8286 27.9521H33.8214V28.9497H30.8286V27.9521Z" fill="white"/>
<path d="M47.2891 32.441V31.4435C47.2879 31.047 47.1298 30.667 46.8495 30.3867C46.5691 30.1063 46.1892 29.9483 45.7927 29.9471H43.8174L42.7849 26.3258L42.4757 25.0938C42.3945 24.7703 42.2076 24.4832 41.9447 24.278C41.6817 24.0729 41.3577 23.9615 41.0242 23.9615H36.8144V21.9663C36.8136 21.702 36.7082 21.4487 36.5213 21.2618C36.3344 21.0749 36.0811 20.9695 35.8168 20.9688H28.8336C28.5693 20.9695 28.316 21.0749 28.1291 21.2618C27.9422 21.4487 27.8368 21.702 27.836 21.9663V23.9615H23.6262C23.2927 23.9615 22.9687 24.0729 22.7057 24.278C22.4428 24.4832 22.2559 24.7703 22.1747 25.0938L21.8704 26.3208L20.8329 29.9471H18.8577C18.4612 29.9483 18.0813 30.1063 17.8009 30.3867C17.5205 30.667 17.3625 31.047 17.3613 31.4435V32.441C17.3621 32.6937 17.4271 32.9421 17.5501 33.1628C17.6731 33.3835 17.8502 33.5694 18.0646 33.703C17.6137 34.1663 17.3614 34.7873 17.3613 35.4338V41.4194C17.362 41.6286 17.4068 41.8354 17.4927 42.0262C17.5787 42.217 17.7039 42.3875 17.8601 42.5267V44.4121C17.8613 44.8086 18.0193 45.1886 18.2997 45.4689C18.5801 45.7493 18.96 45.9073 19.3565 45.9085H23.3469C23.7434 45.9073 24.1233 45.7493 24.4037 45.4689C24.684 45.1886 24.8421 44.8086 24.8433 44.4121V42.9158H39.8071V44.4121C39.8083 44.8086 39.9664 45.1886 40.2467 45.4689C40.5271 45.7493 40.907 45.9073 41.3035 45.9085H45.2939C45.6904 45.9073 46.0703 45.7493 46.3507 45.4689C46.6311 45.1886 46.7891 44.8086 46.7903 44.4121V42.5267C46.9465 42.3875 47.0717 42.217 47.1577 42.0262C47.2436 41.8354 47.2884 41.6286 47.2891 41.4194V35.4338C47.289 34.7873 47.0367 34.1663 46.5858 33.703C46.8002 33.5694 46.9773 33.3835 47.1003 33.1628C47.2233 32.9421 47.2883 32.6937 47.2891 32.441ZM28.8336 21.9663H35.8168V23.9615H28.8336V21.9663ZM23.1424 25.3382C23.1691 25.2301 23.2313 25.134 23.319 25.0653C23.4066 24.9966 23.5148 24.9592 23.6262 24.9591H41.0242C41.1356 24.9592 41.2437 24.9966 41.3314 25.0653C41.4191 25.134 41.4813 25.2301 41.508 25.3382L41.6627 25.9567H22.9877L23.1424 25.3382ZM22.7234 26.9543H41.927L43.6329 32.9398H29.2875C29.1703 32.2428 28.8098 31.6098 28.2702 31.1533C27.7305 30.6968 27.0465 30.4463 26.3396 30.4463C25.6328 30.4463 24.9488 30.6968 24.4091 31.1533C23.8695 31.6098 23.509 32.2428 23.3918 32.9398H21.0175L22.7234 26.9543ZM28.265 32.9398H24.4143C24.5232 32.5118 24.7716 32.1323 25.1203 31.8613C25.469 31.5902 25.898 31.4431 26.3396 31.4431C26.7813 31.4431 27.2103 31.5902 27.559 31.8613C27.9077 32.1323 28.1561 32.5118 28.265 32.9398ZM18.3589 31.4435C18.3589 31.3112 18.4115 31.1843 18.505 31.0908C18.5986 30.9972 18.7254 30.9447 18.8577 30.9447H20.5486L19.98 32.9398H18.8577C18.7254 32.9398 18.5986 32.8873 18.505 32.7937C18.4115 32.7002 18.3589 32.5733 18.3589 32.441V31.4435ZM23.8457 44.4121C23.8457 44.5444 23.7931 44.6713 23.6996 44.7648C23.606 44.8584 23.4792 44.9109 23.3469 44.9109H19.3565C19.2242 44.9109 19.0974 44.8584 19.0038 44.7648C18.9103 44.6713 18.8577 44.5444 18.8577 44.4121V42.9158H23.8457V44.4121ZM45.7927 44.4121C45.7927 44.5444 45.7401 44.6713 45.6466 44.7648C45.553 44.8584 45.4262 44.9109 45.2939 44.9109H41.3035C41.1712 44.9109 41.0444 44.8584 40.9508 44.7648C40.8573 44.6713 40.8047 44.5444 40.8047 44.4121V42.9158H45.7927V44.4121ZM46.2915 41.4194C46.2915 41.5517 46.2389 41.6785 46.1454 41.7721C46.0518 41.8656 45.925 41.9182 45.7927 41.9182H18.8577C18.7254 41.9182 18.5986 41.8656 18.505 41.7721C18.4115 41.6785 18.3589 41.5517 18.3589 41.4194V40.9206H46.2915V41.4194ZM46.2915 39.923H18.3589V35.4338C18.3601 35.0373 18.5181 34.6574 18.7985 34.377C19.0789 34.0967 19.4588 33.9386 19.8553 33.9374H44.7951C45.1916 33.9386 45.5715 34.0967 45.8519 34.377C46.1323 34.6574 46.2903 35.0373 46.2915 35.4338V39.923ZM46.2915 32.441C46.2915 32.5733 46.2389 32.7002 46.1454 32.7937C46.0518 32.8873 45.925 32.9398 45.7927 32.9398H44.6704L44.1018 30.9447H45.7927C45.925 30.9447 46.0518 30.9972 46.1454 31.0908C46.2389 31.1843 46.2915 31.3112 46.2915 31.4435V32.441Z" fill="white"/>
</svg>
