<svg width="82" height="82" viewBox="0 0 82 82" fill="none" xmlns="http://www.w3.org/2000/svg">
<g filter="url(#filter0_d_9_531)">
<path fill-rule="evenodd" clip-rule="evenodd" d="M40.6132 65.6043C55.6726 65.6043 67.8807 53.3963 67.8807 38.3368C67.8807 23.2774 55.6726 11.0693 40.6132 11.0693C25.5538 11.0693 13.3457 23.2774 13.3457 38.3368C13.3457 53.3963 25.5538 65.6043 40.6132 65.6043Z" fill="white"/>
</g>
<path fill-rule="evenodd" clip-rule="evenodd" d="M44.365 32.9854C43.9393 32.8507 43.4497 32.7609 43.0027 32.7609C42.4492 32.7609 41.2572 33.1425 41.2572 33.8833V35.6566H44.0883V38.642H41.2572V46.8799H38.4049V38.642H37V35.6566H38.4049V34.1526C38.4049 31.8855 39.384 30 41.7468 30C42.5557 30 44.0031 30.0449 44.7907 30.3367L44.365 32.9854Z" fill="#080809"/>
<defs>
<filter id="filter0_d_9_531" x="0.044488" y="0.428364" width="81.1376" height="81.1376" filterUnits="userSpaceOnUse" color-interpolation-filters="sRGB">
<feFlood flood-opacity="0" result="BackgroundImageFix"/>
<feColorMatrix in="SourceAlpha" type="matrix" values="0 0 0 0 0 0 0 0 0 0 0 0 0 0 0 0 0 0 127 0" result="hardAlpha"/>
<feOffset dy="2.66024"/>
<feGaussianBlur stdDeviation="6.65061"/>
<feColorMatrix type="matrix" values="0 0 0 0 0 0 0 0 0 0 0 0 0 0 0 0 0 0 0.1 0"/>
<feBlend mode="normal" in2="BackgroundImageFix" result="effect1_dropShadow_9_531"/>
<feBlend mode="normal" in="SourceGraphic" in2="effect1_dropShadow_9_531" result="shape"/>
</filter>
</defs>
</svg>
