<svg width="143" height="47" viewBox="0 0 143 47" fill="none" xmlns="http://www.w3.org/2000/svg">
<rect x="0.685547" y="0.0419922" width="142.323" height="46.5543" rx="23.2771" fill="#080809"/>
<g clip-path="url(#clip0_9_546)">
<path d="M38.6036 22.6559L25.2444 35.5198C24.6188 35.0923 24.2474 34.3811 24.254 33.6235V11.6883C24.2474 10.9307 24.6188 10.2195 25.2444 9.79199L38.6036 22.6559Z" fill="#2196F3"/>
<path d="M43.2782 18.1638L38.6037 22.6571L25.2446 9.79316C25.295 9.75415 25.3474 9.71786 25.4016 9.68445C26.1077 9.25653 26.9896 9.24271 27.7087 9.64822L43.2782 18.1638Z" fill="#4CAF50"/>
<path d="M48.9429 22.6584C48.9517 23.5137 48.4869 24.3038 47.7351 24.7118L43.278 27.1517L38.6035 22.6584L43.278 18.165L47.7351 20.6049C48.4869 21.0129 48.9517 21.803 48.9429 22.6584Z" fill="#F0BB1F"/>
<path d="M43.2782 27.1505L27.7087 35.6661C26.988 36.0653 26.1094 36.0515 25.4016 35.6299C25.3474 35.5964 25.295 35.5602 25.2446 35.5211L38.6038 22.6572L43.2782 27.1505Z" fill="#F15A2B"/>
</g>
<path d="M64.5631 15.8432H60.8281V17.3329H62.8179C62.5519 18.0459 61.9028 18.4821 60.9132 18.4821C59.466 18.4821 58.5722 17.5564 58.5722 16.2901C58.5722 14.9813 59.5086 14.0555 60.7642 14.0555C61.6049 14.0555 62.2752 14.4386 62.5838 14.9281L64.031 14.0981C63.4032 13.0978 62.2008 12.3955 60.7749 12.3955C58.5828 12.3955 56.8696 14.1193 56.8696 16.2795C56.8696 18.4183 58.5509 20.1421 60.8919 20.1421C62.9775 20.1421 64.5631 18.7588 64.5631 16.4816V15.8432Z" fill="white"/>
<path d="M66.6934 18.3545V17.035H69.3537V15.4175H66.6934V14.1832H69.6197V12.5445H64.9909V19.9932H69.6729V18.3545H66.6934Z" fill="white"/>
<path d="M75.1027 12.5445H69.5694V14.1832H71.4848V19.9932H73.1873V14.1832H75.1027V12.5445Z" fill="white"/>
<path d="M77.4441 12.5445V19.9932H79.1467V12.5445H77.4441Z" fill="white"/>
<path d="M84.8957 12.5445H79.3624V14.1832H81.2778V19.9932H82.9803V14.1832H84.8957V12.5445Z" fill="white"/>
<path d="M90.7912 20.1421C92.9301 20.1421 94.6645 18.4609 94.6645 16.2688C94.6645 14.0768 92.9301 12.3955 90.7912 12.3955C88.6524 12.3955 86.9179 14.0768 86.9179 16.2688C86.9179 18.4609 88.6524 20.1421 90.7912 20.1421ZM90.7912 18.4821C89.5782 18.4821 88.6205 17.5989 88.6205 16.2688C88.6205 14.9387 89.5782 14.0555 90.7912 14.0555C92.0043 14.0555 92.962 14.9387 92.962 16.2688C92.962 17.5989 92.0043 18.4821 90.7912 18.4821Z" fill="white"/>
<path d="M99.2411 12.5445V16.5881L96.368 12.5445H95.0911V19.9932H96.7936V15.9496L99.6667 19.9932H100.944V12.5445H99.2411Z" fill="white"/>
<path d="M64.5631 28.4953V28.7826C64.5631 29.7119 64.2332 30.4958 63.5734 31.1343C62.9137 31.7656 62.0447 32.0813 60.9664 32.0813C59.8314 32.0813 58.895 31.7124 58.1572 30.9746C57.4194 30.2298 57.0505 29.3182 57.0505 28.2399C57.0505 27.1616 57.4159 26.2536 58.1465 25.5158C58.8772 24.771 59.803 24.3985 60.9238 24.3985C61.6049 24.3985 62.2291 24.5617 62.7967 24.888C63.3713 25.2143 63.8146 25.6506 64.1268 26.1968L63.6266 26.4948C63.3784 26.0266 63.0095 25.6506 62.52 25.3669C62.0376 25.0831 61.5055 24.9412 60.9238 24.9412C59.9591 24.9412 59.1645 25.2604 58.5403 25.8989C57.9231 26.5303 57.6145 27.3106 57.6145 28.2399C57.6145 29.1692 57.9266 29.9531 58.5509 30.5916C59.1752 31.2229 59.9803 31.5386 60.9664 31.5386C61.839 31.5386 62.5448 31.301 63.084 30.8257C63.6231 30.3504 63.9246 29.7509 63.9884 29.0273H60.8281V28.4953H64.5631Z" fill="white"/>
<path d="M72.1163 30.964C71.3714 31.7089 70.4634 32.0813 69.3922 32.0813C68.321 32.0813 67.413 31.7089 66.6681 30.964C65.9233 30.212 65.5508 29.304 65.5508 28.2399C65.5508 27.1758 65.9233 26.2713 66.6681 25.5265C67.413 24.7745 68.321 24.3985 69.3922 24.3985C70.4634 24.3985 71.3714 24.7745 72.1163 25.5265C72.8612 26.2713 73.2336 27.1758 73.2336 28.2399C73.2336 29.304 72.8612 30.212 72.1163 30.964ZM67.0619 30.5809C67.7003 31.2194 68.4771 31.5386 69.3922 31.5386C70.3073 31.5386 71.0806 31.2194 71.712 30.5809C72.3504 29.9354 72.6696 29.155 72.6696 28.2399C72.6696 27.3248 72.3504 26.548 71.712 25.9095C71.0806 25.264 70.3073 24.9412 69.3922 24.9412C68.4771 24.9412 67.7003 25.264 67.0619 25.9095C66.4305 26.548 66.1148 27.3248 66.1148 28.2399C66.1148 29.155 66.4305 29.9354 67.0619 30.5809Z" fill="white"/>
<path d="M80.8037 30.964C80.0588 31.7089 79.1508 32.0813 78.0796 32.0813C77.0084 32.0813 76.1004 31.7089 75.3555 30.964C74.6106 30.212 74.2382 29.304 74.2382 28.2399C74.2382 27.1758 74.6106 26.2713 75.3555 25.5265C76.1004 24.7745 77.0084 24.3985 78.0796 24.3985C79.1508 24.3985 80.0588 24.7745 80.8037 25.5265C81.5485 26.2713 81.921 27.1758 81.921 28.2399C81.921 29.304 81.5485 30.212 80.8037 30.964ZM75.7492 30.5809C76.3877 31.2194 77.1645 31.5386 78.0796 31.5386C78.9947 31.5386 79.7679 31.2194 80.3993 30.5809C81.0378 29.9354 81.357 29.155 81.357 28.2399C81.357 27.3248 81.0378 26.548 80.3993 25.9095C79.7679 25.264 78.9947 24.9412 78.0796 24.9412C77.1645 24.9412 76.3877 25.264 75.7492 25.9095C75.1178 26.548 74.8022 27.3248 74.8022 28.2399C74.8022 29.155 75.1178 29.9354 75.7492 30.5809Z" fill="white"/>
<path d="M90.4381 28.4953V28.7826C90.4381 29.7119 90.1082 30.4958 89.4485 31.1343C88.7887 31.7656 87.9197 32.0813 86.8414 32.0813C85.7064 32.0813 84.77 31.7124 84.0322 30.9746C83.2944 30.2298 82.9255 29.3182 82.9255 28.2399C82.9255 27.1616 83.2909 26.2536 84.0216 25.5158C84.7522 24.771 85.678 24.3985 86.7989 24.3985C87.4799 24.3985 88.1042 24.5617 88.6717 24.888C89.2463 25.2143 89.6897 25.6506 90.0018 26.1968L89.5017 26.4948C89.2534 26.0266 88.8845 25.6506 88.395 25.3669C87.9126 25.0831 87.3806 24.9412 86.7989 24.9412C85.8341 24.9412 85.0396 25.2604 84.4153 25.8989C83.7981 26.5303 83.4895 27.3106 83.4895 28.2399C83.4895 29.1692 83.8017 29.9531 84.4259 30.5916C85.0502 31.2229 85.8554 31.5386 86.8414 31.5386C87.714 31.5386 88.4198 31.301 88.959 30.8257C89.4981 30.3504 89.7996 29.7509 89.8635 29.0273H86.7031V28.4953H90.4381Z" fill="white"/>
<path d="M92.4155 31.4322H95.927V31.9643H91.8515V24.5156H92.4155V31.4322Z" fill="white"/>
<path d="M97.6632 31.4322H101.388V31.9643H97.0992V24.5156H101.334V25.0476H97.6632V27.942H101.068V28.474H97.6632V31.4322Z" fill="white"/>
<path d="M108.142 24.5156C108.809 24.5156 109.363 24.7355 109.802 25.1753C110.242 25.6151 110.462 26.1649 110.462 26.8247C110.462 27.4844 110.242 28.0342 109.802 28.474C109.363 28.9068 108.809 29.1231 108.142 29.1231H106.174V31.9643H105.61V24.5156H108.142ZM108.142 28.5911C108.653 28.5911 109.072 28.4244 109.398 28.0909C109.732 27.7575 109.898 27.3354 109.898 26.8247C109.898 26.3068 109.732 25.8812 109.398 25.5478C109.072 25.2143 108.653 25.0476 108.142 25.0476H106.174V28.5911H108.142Z" fill="white"/>
<path d="M112.419 31.4322H115.931V31.9643H111.855V24.5156H112.419V31.4322Z" fill="white"/>
<path d="M122.323 31.9643L121.599 30.0702H117.864L117.141 31.9643H116.545L119.439 24.5156H120.035L122.919 31.9643H122.323ZM118.077 29.5381H121.397L119.737 25.2072L118.077 29.5381Z" fill="white"/>
<path d="M128.219 24.5156L125.505 28.8997V31.9643H124.941V28.8997L122.228 24.5156H122.866L125.228 28.357L127.58 24.5156H128.219Z" fill="white"/>
<defs>
<clipPath id="clip0_9_546">
<rect width="26.6024" height="26.6024" fill="white" transform="translate(23.2974 9.35352)"/>
</clipPath>
</defs>
</svg>
