<svg width="507" height="75" viewBox="0 0 507 75" fill="none" xmlns="http://www.w3.org/2000/svg">
<path d="M69.23 24.97C70.47 24.97 71.51 25.13 72.35 25.45C73.21 25.77 74.08 26.29 74.96 27.01L73.4 28.84C72.14 27.82 70.81 27.31 69.41 27.31C67.69 27.31 66.3 27.97 65.24 29.29C64.2 30.61 63.68 32.73 63.68 35.65C63.68 38.49 64.2 40.59 65.24 41.95C66.28 43.29 67.66 43.96 69.38 43.96C70.26 43.96 71.03 43.81 71.69 43.51C72.35 43.21 73.05 42.79 73.79 42.25L75.2 44.05C74.56 44.71 73.74 45.26 72.74 45.7C71.74 46.14 70.59 46.36 69.29 46.36C67.61 46.36 66.11 45.95 64.79 45.13C63.49 44.29 62.47 43.07 61.73 41.47C61.01 39.85 60.65 37.91 60.65 35.65C60.65 33.39 61.03 31.46 61.79 29.86C62.55 28.24 63.58 27.02 64.88 26.2C66.18 25.38 67.63 24.97 69.23 24.97ZM94.7171 46H92.0171L91.2971 38.53C91.2171 37.75 91.1671 36.89 91.1471 35.95C91.1271 34.99 91.1171 33.96 91.1171 32.86L87.5171 44.26H84.9071L81.5471 32.89C81.5471 35.53 81.5071 37.4 81.4271 38.5L80.8571 46H78.1871L79.5971 30.19H83.1671L86.2571 41.5L89.6471 30.19H93.2771L94.7171 46ZM105.904 29.83C108.124 29.83 109.844 30.57 111.064 32.05C112.304 33.53 112.924 35.54 112.924 38.08C112.924 39.72 112.644 41.17 112.084 42.43C111.524 43.67 110.714 44.64 109.654 45.34C108.594 46.02 107.334 46.36 105.874 46.36C103.654 46.36 101.924 45.62 100.684 44.14C99.4441 42.66 98.8241 40.65 98.8241 38.11C98.8241 36.47 99.1041 35.03 99.6641 33.79C100.224 32.53 101.034 31.56 102.094 30.88C103.154 30.18 104.424 29.83 105.904 29.83ZM105.904 32.05C103.164 32.05 101.794 34.07 101.794 38.11C101.794 42.13 103.154 44.14 105.874 44.14C108.594 44.14 109.954 42.12 109.954 38.08C109.954 34.06 108.604 32.05 105.904 32.05ZM128.002 30.19L127.672 32.44H122.602V46H119.842V32.44H114.622V30.19H128.002ZM138.717 29.83C140.737 29.83 142.217 30.55 143.157 31.99C144.097 33.43 144.567 35.46 144.567 38.08C144.567 40.56 144.027 42.56 142.947 44.08C141.867 45.6 140.337 46.36 138.357 46.36C136.597 46.36 135.217 45.76 134.217 44.56V52.06L131.457 52.39V30.19H133.827L134.037 32.32C134.617 31.52 135.317 30.91 136.137 30.49C136.957 30.05 137.817 29.83 138.717 29.83ZM137.697 44.11C140.297 44.11 141.597 42.1 141.597 38.08C141.597 34.04 140.407 32.02 138.027 32.02C137.247 32.02 136.537 32.25 135.897 32.71C135.257 33.17 134.697 33.76 134.217 34.48V42.19C134.617 42.81 135.117 43.29 135.717 43.63C136.317 43.95 136.977 44.11 137.697 44.11ZM161.81 37.63C161.81 38.09 161.79 38.56 161.75 39.04H151.67C151.79 40.78 152.23 42.06 152.99 42.88C153.75 43.7 154.73 44.11 155.93 44.11C156.69 44.11 157.39 44 158.03 43.78C158.67 43.56 159.34 43.21 160.04 42.73L161.24 44.38C159.56 45.7 157.72 46.36 155.72 46.36C153.52 46.36 151.8 45.64 150.56 44.2C149.34 42.76 148.73 40.78 148.73 38.26C148.73 36.62 148.99 35.17 149.51 33.91C150.05 32.63 150.81 31.63 151.79 30.91C152.79 30.19 153.96 29.83 155.3 29.83C157.4 29.83 159.01 30.52 160.13 31.9C161.25 33.28 161.81 35.19 161.81 37.63ZM159.08 36.82C159.08 35.26 158.77 34.07 158.15 33.25C157.53 32.43 156.6 32.02 155.36 32.02C153.1 32.02 151.87 33.68 151.67 37H159.08V36.82ZM176.735 30.19L176.405 32.44H171.335V46H168.575V32.44H163.355V30.19H176.735ZM185.051 35.29C187.411 35.29 189.121 35.75 190.181 36.67C191.241 37.59 191.771 38.9 191.771 40.6C191.771 42.38 191.171 43.73 189.971 44.65C188.791 45.55 187.321 46 185.561 46H180.191V30.19H182.951V35.29H185.051ZM185.321 43.84C186.441 43.84 187.301 43.59 187.901 43.09C188.521 42.59 188.831 41.76 188.831 40.6C188.831 39.5 188.541 38.69 187.961 38.17C187.401 37.65 186.421 37.39 185.021 37.39H182.951V43.84H185.321Z" fill="white"/>
<rect x="2.5" y="2.5" width="502" height="69.4145" stroke="white" stroke-width="5"/>
<rect x="354.9" width="152.1" height="74.4145" fill="white"/>
<path d="M457.761 41.0607C458.346 40.4749 458.346 39.5251 457.761 38.9393L448.215 29.3934C447.629 28.8076 446.679 28.8076 446.093 29.3934C445.508 29.9792 445.508 30.9289 446.093 31.5147L454.579 40L446.093 48.4853C445.508 49.0711 445.508 50.0208 446.093 50.6066C446.679 51.1924 447.629 51.1924 448.215 50.6066L457.761 41.0607ZM406 41.5H456.7V38.5H406V41.5Z" fill="black"/>
</svg>
