<svg width="82" height="82" viewBox="0 0 82 82" fill="none" xmlns="http://www.w3.org/2000/svg">
<g filter="url(#filter0_d_438_7)">
<path fill-rule="evenodd" clip-rule="evenodd" d="M40.6132 65.6043C55.6726 65.6043 67.8807 53.3963 67.8807 38.3368C67.8807 23.2774 55.6726 11.0693 40.6132 11.0693C25.5538 11.0693 13.3457 23.2774 13.3457 38.3368C13.3457 53.3963 25.5538 65.6043 40.6132 65.6043Z" fill="white"/>
</g>
<g clip-path="url(#clip0_438_7)">
<path d="M51.6288 33.6101C51.6168 32.7103 51.4483 31.8195 51.131 30.9775C50.8558 30.2672 50.4355 29.6222 49.8969 29.0836C49.3583 28.545 48.7132 28.1247 48.003 27.8495C47.1718 27.5374 46.2937 27.3687 45.406 27.3505C44.2632 27.2994 43.9008 27.2852 40.9997 27.2852C38.0987 27.2852 37.7268 27.2852 36.5923 27.3505C35.705 27.3689 34.8273 27.5376 33.9965 27.8495C33.2861 28.1245 32.641 28.5447 32.1024 29.0834C31.5638 29.622 31.1435 30.2671 30.8685 30.9775C30.5559 31.808 30.3875 32.6859 30.3707 33.5732C30.3196 34.7173 30.3042 35.0796 30.3042 37.9808C30.3042 40.8819 30.3042 41.2525 30.3707 42.3882C30.3885 43.2769 30.5561 44.1536 30.8685 44.9864C31.144 45.6965 31.5645 46.3414 32.1033 46.8798C32.6422 47.4182 33.2873 47.8383 33.9977 48.1132C34.8262 48.4378 35.7041 48.6186 36.5935 48.6478C37.7375 48.6989 38.0999 48.7143 41.0009 48.7143C43.902 48.7143 44.2739 48.7143 45.4084 48.6478C46.296 48.6303 47.1742 48.462 48.0054 48.15C48.7154 47.8745 49.3603 47.4541 49.8988 46.9155C50.4374 46.377 50.8578 45.7321 51.1334 45.022C51.4458 44.1904 51.6133 43.3137 51.6311 42.4239C51.6822 41.281 51.6977 40.9187 51.6977 38.0164C51.6953 35.1153 51.6953 34.747 51.6288 33.6101ZM40.9926 43.4669C37.9585 43.4669 35.5005 41.009 35.5005 37.9748C35.5005 34.9406 37.9585 32.4827 40.9926 32.4827C42.4492 32.4827 43.8461 33.0613 44.8761 34.0913C45.9061 35.1212 46.4847 36.5182 46.4847 37.9748C46.4847 39.4314 45.9061 40.8284 44.8761 41.8583C43.8461 42.8883 42.4492 43.4669 40.9926 43.4669ZM46.7033 33.5602C46.5351 33.5603 46.3685 33.5273 46.213 33.463C46.0576 33.3987 45.9164 33.3044 45.7974 33.1854C45.6784 33.0665 45.5841 32.9252 45.5198 32.7698C45.4555 32.6143 45.4225 32.4477 45.4226 32.2795C45.4226 32.1114 45.4558 31.945 45.5201 31.7896C45.5844 31.6343 45.6787 31.4932 45.7976 31.3744C45.9164 31.2555 46.0576 31.1612 46.2129 31.0969C46.3682 31.0325 46.5346 30.9994 46.7027 30.9994C46.8708 30.9994 47.0373 31.0325 47.1926 31.0969C47.3479 31.1612 47.489 31.2555 47.6079 31.3744C47.7267 31.4932 47.821 31.6343 47.8853 31.7896C47.9497 31.945 47.9828 32.1114 47.9828 32.2795C47.9828 32.9876 47.4102 33.5602 46.7033 33.5602Z" fill="black"/>
<path d="M40.9929 41.5424C42.9632 41.5424 44.5605 39.9451 44.5605 37.9748C44.5605 36.0045 42.9632 34.4072 40.9929 34.4072C39.0226 34.4072 37.4253 36.0045 37.4253 37.9748C37.4253 39.9451 39.0226 41.5424 40.9929 41.5424Z" fill="black"/>
</g>
<defs>
<filter id="filter0_d_438_7" x="0.044488" y="0.428364" width="81.1376" height="81.1376" filterUnits="userSpaceOnUse" color-interpolation-filters="sRGB">
<feFlood flood-opacity="0" result="BackgroundImageFix"/>
<feColorMatrix in="SourceAlpha" type="matrix" values="0 0 0 0 0 0 0 0 0 0 0 0 0 0 0 0 0 0 127 0" result="hardAlpha"/>
<feOffset dy="2.66024"/>
<feGaussianBlur stdDeviation="6.65061"/>
<feColorMatrix type="matrix" values="0 0 0 0 0 0 0 0 0 0 0 0 0 0 0 0 0 0 0.1 0"/>
<feBlend mode="normal" in2="BackgroundImageFix" result="effect1_dropShadow_438_7"/>
<feBlend mode="normal" in="SourceGraphic" in2="effect1_dropShadow_438_7" result="shape"/>
</filter>
<clipPath id="clip0_438_7">
<rect width="22" height="22" fill="white" transform="translate(30 27)"/>
</clipPath>
</defs>
</svg>
