<svg width="183" height="53" viewBox="0 0 183 53" fill="none" xmlns="http://www.w3.org/2000/svg">
<rect x="89" y="41.0015" width="84" height="12" rx="6" fill="#FEFFDB"/>
<rect x="163" y="0.00146484" width="20" height="12" rx="6" fill="#FEFFDB"/>
<rect y="41.0015" width="20" height="12" rx="6" fill="#FEFFDB"/>
<path d="M23.2522 9.07636V15.2558H15.8051V37.0029H8.04118V15.2558H0.67334V9.07636H23.2522Z" fill="white"/>
<path d="M33.8887 18.7021C34.7601 17.4345 35.8165 16.431 37.0576 15.6916C38.2988 14.9522 39.6324 14.5824 41.0585 14.5824V22.8614H38.8798C37.1897 22.8614 35.9353 23.1915 35.1166 23.8517C34.298 24.5119 33.8887 25.6606 33.8887 27.2979V37.0029H26.1247V14.7805H33.8887V18.7021Z" fill="white"/>
<path d="M42.5742 25.8719C42.5742 23.5744 42.9836 21.5674 43.8022 19.8508C44.6473 18.1343 45.7828 16.8139 47.2089 15.8896C48.6613 14.9654 50.2722 14.5032 52.0415 14.5032C53.5732 14.5032 54.8936 14.8069 56.0027 15.4143C57.1119 16.0217 57.9701 16.8403 58.5775 17.8702V14.7805H66.3415V37.0029H58.5775V33.9131C57.9701 34.943 57.0987 35.7617 55.9631 36.3691C54.854 36.9765 53.5468 37.2802 52.0415 37.2802C50.2722 37.2802 48.6613 36.818 47.2089 35.8937C45.7828 34.9694 44.6473 33.649 43.8022 31.9325C42.9836 30.1896 42.5742 28.1694 42.5742 25.8719ZM58.5775 25.8719C58.5775 24.4458 58.1814 23.3235 57.3892 22.5049C56.6233 21.6862 55.6726 21.2769 54.5371 21.2769C53.3751 21.2769 52.4112 21.6862 51.6454 22.5049C50.8796 23.2971 50.4967 24.4194 50.4967 25.8719C50.4967 27.2979 50.8796 28.4335 51.6454 29.2785C52.4112 30.0972 53.3751 30.5065 54.5371 30.5065C55.6726 30.5065 56.6233 30.0972 57.3892 29.2785C58.1814 28.4599 58.5775 27.3243 58.5775 25.8719Z" fill="white"/>
<path d="M81.4213 29.6746L85.5806 14.7805H93.8595L86.2144 37.0029H76.549L68.9039 14.7805H77.1828L81.4213 29.6746Z" fill="white"/>
<path d="M117.722 25.6342C117.722 26.2416 117.683 26.849 117.604 27.4564H102.907C102.987 28.6711 103.317 29.5822 103.898 30.1896C104.505 30.7706 105.271 31.0611 106.195 31.0611C107.489 31.0611 108.414 30.4801 108.968 29.3181H117.247C116.904 30.8498 116.23 32.223 115.227 33.4378C114.25 34.6261 113.009 35.5636 111.503 36.2502C109.998 36.9368 108.334 37.2802 106.512 37.2802C104.32 37.2802 102.366 36.818 100.65 35.8937C98.9594 34.9694 97.6258 33.649 96.6487 31.9325C95.698 30.216 95.2227 28.1958 95.2227 25.8719C95.2227 23.548 95.698 21.541 96.6487 19.8508C97.5994 18.1343 98.9198 16.8139 100.61 15.8896C102.326 14.9654 104.294 14.5032 106.512 14.5032C108.704 14.5032 110.645 14.9522 112.335 15.85C114.025 16.7479 115.346 18.0419 116.296 19.732C117.247 21.3957 117.722 23.3631 117.722 25.6342ZM109.8 23.6932C109.8 22.7425 109.483 22.0031 108.849 21.4749C108.215 20.9204 107.423 20.6431 106.473 20.6431C105.522 20.6431 104.743 20.9072 104.135 21.4353C103.528 21.9371 103.132 22.6897 102.947 23.6932H109.8Z" fill="white"/>
<path d="M128.664 7.68994V37.0029H120.9V7.68994H128.664Z" fill="white"/>
<path d="M140.849 7.68994V37.0029H133.085V7.68994H140.849Z" fill="white"/>
<path d="M155.609 37.2802C153.391 37.2802 151.397 36.818 149.628 35.8937C147.885 34.9694 146.512 33.649 145.508 31.9325C144.505 30.216 144.003 28.1958 144.003 25.8719C144.003 23.5744 144.505 21.5674 145.508 19.8508C146.538 18.1343 147.924 16.8139 149.667 15.8896C151.437 14.9654 153.43 14.5032 155.649 14.5032C157.867 14.5032 159.848 14.9654 161.591 15.8896C163.36 16.8139 164.746 18.1343 165.75 19.8508C166.78 21.5674 167.295 23.5744 167.295 25.8719C167.295 28.1694 166.78 30.1896 165.75 31.9325C164.746 33.649 163.36 34.9694 161.591 35.8937C159.821 36.818 157.827 37.2802 155.609 37.2802ZM155.609 30.5461C156.692 30.5461 157.59 30.15 158.303 29.3577C159.042 28.5391 159.412 27.3771 159.412 25.8719C159.412 24.3666 159.042 23.2179 158.303 22.4256C157.59 21.6334 156.705 21.2373 155.649 21.2373C154.592 21.2373 153.708 21.6334 152.995 22.4256C152.282 23.2179 151.925 24.3666 151.925 25.8719C151.925 27.4035 152.268 28.5655 152.955 29.3577C153.642 30.15 154.526 30.5461 155.609 30.5461Z" fill="white"/>
</svg>
