<svg width="28" height="27" viewBox="0 0 28 27" fill="none" xmlns="http://www.w3.org/2000/svg">
<path d="M24.7465 3.70917L15.6019 23.661C15.5253 23.8281 15.3956 23.9652 15.2329 24.0507C15.0702 24.1363 14.8838 24.1655 14.7027 24.1338C14.5216 24.1021 14.3562 24.0113 14.2322 23.8756C14.1082 23.7399 14.0327 23.5669 14.0175 23.3838L13.2444 14.1089L3.96953 13.3358C3.78635 13.3205 3.61338 13.245 3.47767 13.1211C3.34196 12.9971 3.25116 12.8316 3.21948 12.6506C3.18779 12.4695 3.21701 12.2831 3.30256 12.1204C3.3881 11.9577 3.52516 11.8279 3.69229 11.7514L23.6441 2.60683C23.7984 2.53615 23.9705 2.51435 24.1375 2.54436C24.3045 2.57438 24.4583 2.65477 24.5783 2.77474C24.6983 2.89471 24.7787 3.04852 24.8087 3.21551C24.8387 3.3825 24.8169 3.55468 24.7462 3.70892L24.7465 3.70917Z" fill="#080809"/>
</svg>
