<svg width="134" height="47" viewBox="0 0 134 47" fill="none" xmlns="http://www.w3.org/2000/svg">
<rect x="0.318848" y="0.0419922" width="133.012" height="46.5543" rx="23.2771" fill="#080809"/>
<path d="M29.3016 31.9619C26.1342 31.9436 23.5142 25.4779 23.5142 22.1851C23.5142 16.8062 27.5492 15.6286 29.1043 15.6286C29.8051 15.6286 30.5534 15.9039 31.2134 16.1474C31.675 16.3173 32.1523 16.4926 32.4178 16.4926C32.5767 16.4926 32.9512 16.3435 33.2818 16.2126C33.9869 15.9319 34.8643 15.583 35.886 15.583C35.8878 15.583 35.8903 15.583 35.8921 15.583C36.655 15.583 38.9681 15.7504 40.3588 17.8389L40.6846 18.3284L40.2158 18.6822C39.546 19.1876 38.3239 20.1094 38.3239 21.9355C38.3239 24.0982 39.7079 24.9299 40.3728 25.33C40.6663 25.5065 40.9701 25.6886 40.9701 26.0868C40.9701 26.3468 38.8951 31.9296 35.8817 31.9296C35.1444 31.9296 34.6232 31.708 34.1634 31.5125C33.6983 31.3146 33.297 31.1442 32.6339 31.1442C32.2978 31.1442 31.8728 31.3031 31.4229 31.4718C30.808 31.7013 30.112 31.9619 29.3223 31.9619H29.3016Z" fill="white"/>
<path d="M36.2053 10.6816C36.2837 13.5113 34.2601 15.4744 32.2388 15.3513C31.9057 13.0931 34.2598 10.6816 36.2053 10.6816Z" fill="white"/>
<path d="M52.2339 17.3337H53.6305L51.7311 11.7472H50.103L48.2036 17.3337H49.6002L49.8796 16.4559H51.9546L52.2339 17.3337ZM50.2626 15.2588L50.9171 13.2077L51.5715 15.2588H50.2626Z" fill="white"/>
<path d="M56.4569 13.3434L55.6269 15.8733L54.7969 13.3434H53.4721L54.9486 17.3337H56.3053L57.7817 13.3434H56.4569Z" fill="white"/>
<path d="M60.9621 13.3434V13.7185C60.6988 13.4152 60.3077 13.2317 59.773 13.2317C58.7275 13.2317 57.8656 14.1494 57.8656 15.3386C57.8656 16.5277 58.7275 17.4455 59.773 17.4455C60.3077 17.4455 60.6988 17.2619 60.9621 16.9587V17.3337H62.1592V13.3434H60.9621ZM60.0124 16.3122C59.4617 16.3122 59.0627 15.9371 59.0627 15.3386C59.0627 14.74 59.4617 14.3649 60.0124 14.3649C60.5631 14.3649 60.9621 14.74 60.9621 15.3386C60.9621 15.9371 60.5631 16.3122 60.0124 16.3122Z" fill="white"/>
<path d="M63.0375 17.3337H64.2346V11.5078H63.0375V17.3337Z" fill="white"/>
<path d="M65.7092 12.9922C66.1002 12.9922 66.4274 12.665 66.4274 12.274C66.4274 11.8829 66.1002 11.5557 65.7092 11.5557C65.3181 11.5557 64.9909 11.8829 64.9909 12.274C64.9909 12.665 65.3181 12.9922 65.7092 12.9922ZM65.1106 17.3337H66.3077V13.3434H65.1106V17.3337Z" fill="white"/>
<path d="M69.57 13.2317C69.0352 13.2317 68.6442 13.4152 68.3808 13.7185V11.7472H67.1837V17.3337H68.3808V16.9587C68.6442 17.2619 69.0352 17.4455 69.57 17.4455C70.6154 17.4455 71.4774 16.5277 71.4774 15.3386C71.4774 14.1494 70.6154 13.2317 69.57 13.2317ZM69.3305 16.3122C68.7799 16.3122 68.3808 15.9371 68.3808 15.3386C68.3808 14.74 68.7799 14.3649 69.3305 14.3649C69.8812 14.3649 70.2802 14.74 70.2802 15.3386C70.2802 15.9371 69.8812 16.3122 69.3305 16.3122Z" fill="white"/>
<path d="M72.1561 17.3337H73.3532V11.5078H72.1561V17.3337Z" fill="white"/>
<path d="M75.2986 15.8174H78.1318C78.1637 15.6658 78.1797 15.5062 78.1797 15.3386C78.1797 14.1335 77.3177 13.2317 76.1526 13.2317C74.8916 13.2317 74.0297 14.1494 74.0297 15.3386C74.0297 16.5277 74.8756 17.4455 76.2404 17.4455C76.9985 17.4455 77.5891 17.1661 77.9801 16.6235L77.0225 16.0728C76.8628 16.2484 76.5835 16.3761 76.2563 16.3761C75.8174 16.3761 75.4503 16.2324 75.2986 15.8174ZM75.2747 14.9236C75.3864 14.5165 75.6897 14.2931 76.1446 14.2931C76.5037 14.2931 76.8628 14.4607 76.9905 14.9236H75.2747Z" fill="white"/>
<path d="M82.7692 17.4455C83.9424 17.4455 84.8841 16.5277 84.8841 15.3386C84.8841 14.1494 83.9424 13.2317 82.7692 13.2317C81.596 13.2317 80.6543 14.1494 80.6543 15.3386C80.6543 16.5277 81.596 17.4455 82.7692 17.4455ZM82.7692 16.2803C82.2505 16.2803 81.8514 15.9052 81.8514 15.3386C81.8514 14.7719 82.2505 14.3968 82.7692 14.3968C83.288 14.3968 83.687 14.7719 83.687 15.3386C83.687 15.9052 83.288 16.2803 82.7692 16.2803Z" fill="white"/>
<path d="M87.8996 13.2317C87.3728 13.2317 86.9738 13.4232 86.7583 13.7185V13.3434H85.5612V17.3337H86.7583V15.155C86.7583 14.5884 87.0616 14.333 87.5005 14.333C87.8836 14.333 88.1949 14.5644 88.1949 15.0592V17.3337H89.392V14.8837C89.392 13.8063 88.7056 13.2317 87.8996 13.2317Z" fill="white"/>
<path d="M94.5476 14.4926V13.3434H93.7256V12.2261L92.5285 12.5852V13.3434H91.89V14.4926H92.5285V15.9052C92.5285 17.0225 92.9834 17.4934 94.5476 17.3337V16.2484C94.0209 16.2803 93.7256 16.2484 93.7256 15.9052V14.4926H94.5476Z" fill="white"/>
<path d="M97.5637 13.2317C97.037 13.2317 96.638 13.4232 96.4225 13.7185V11.7472H95.2254V17.3337H96.4225V15.155C96.4225 14.5884 96.7258 14.333 97.1647 14.333C97.5478 14.333 97.859 14.5644 97.859 15.0592V17.3337H99.0561V14.8837C99.0561 13.8063 98.3698 13.2317 97.5637 13.2317Z" fill="white"/>
<path d="M100.948 15.8174H103.781C103.813 15.6658 103.829 15.5062 103.829 15.3386C103.829 14.1335 102.967 13.2317 101.802 13.2317C100.541 13.2317 99.6787 14.1494 99.6787 15.3386C99.6787 16.5277 100.525 17.4455 101.889 17.4455C102.648 17.4455 103.238 17.1661 103.629 16.6235L102.671 16.0728C102.512 16.2484 102.233 16.3761 101.905 16.3761C101.466 16.3761 101.099 16.2324 100.948 15.8174ZM100.924 14.9236C101.035 14.5165 101.339 14.2931 101.794 14.2931C102.153 14.2931 102.512 14.4607 102.64 14.9236H100.924Z" fill="white"/>
<path d="M54.9207 31.9651H57.2484L54.0827 22.6542H51.3693L48.2036 31.9651H50.5313L50.9969 30.5019H54.4552L54.9207 31.9651ZM51.6353 28.5068L52.726 25.0884L53.8167 28.5068H51.6353Z" fill="white"/>
<path d="M61.9529 25.1283C61.0617 25.1283 60.41 25.4342 59.971 25.9396V25.3145H57.9758V34.6253H59.971V31.3399C60.41 31.8454 61.0617 32.1513 61.9529 32.1513C63.6954 32.1513 65.1319 30.6217 65.1319 28.6398C65.1319 26.6579 63.6954 25.1283 61.9529 25.1283ZM61.5539 30.2625C60.6361 30.2625 59.971 29.6374 59.971 28.6398C59.971 27.6422 60.6361 27.017 61.5539 27.017C62.4717 27.017 63.1367 27.6422 63.1367 28.6398C63.1367 29.6374 62.4717 30.2625 61.5539 30.2625Z" fill="white"/>
<path d="M70.2402 25.1283C69.349 25.1283 68.6973 25.4342 68.2583 25.9396V25.3145H66.2631V34.6253H68.2583V31.3399C68.6973 31.8454 69.349 32.1513 70.2402 32.1513C71.9827 32.1513 73.4192 30.6217 73.4192 28.6398C73.4192 26.6579 71.9827 25.1283 70.2402 25.1283ZM69.8412 30.2625C68.9234 30.2625 68.2583 29.6374 68.2583 28.6398C68.2583 27.6422 68.9234 27.017 69.8412 27.017C70.7589 27.017 71.424 27.6422 71.424 28.6398C71.424 29.6374 70.7589 30.2625 69.8412 30.2625Z" fill="white"/>
<path d="M74.5504 31.9651H76.5456V22.2552H74.5504V31.9651Z" fill="white"/>
<path d="M79.788 29.4378H84.5099C84.5631 29.1851 84.5897 28.9191 84.5897 28.6398C84.5897 26.6313 83.1532 25.1283 81.2112 25.1283C79.1096 25.1283 77.6731 26.6579 77.6731 28.6398C77.6731 30.6217 79.083 32.1513 81.3575 32.1513C82.6211 32.1513 83.6054 31.6858 84.2572 30.7813L82.661 29.8635C82.395 30.1561 81.9295 30.3689 81.3841 30.3689C80.6525 30.3689 80.0407 30.1295 79.788 29.4378ZM79.7481 27.9481C79.9343 27.2698 80.4397 26.8973 81.1979 26.8973C81.7965 26.8973 82.395 27.1766 82.6078 27.9481H79.7481Z" fill="white"/>
<path d="M92.372 32.1513C94.3937 32.1513 95.8303 31.0872 95.8303 29.2915C95.8303 27.323 94.2474 26.8308 92.8375 26.4052C91.3877 25.9662 91.1615 25.6736 91.1615 25.248C91.1615 24.8755 91.4941 24.543 92.1591 24.543C93.0104 24.543 93.4494 24.9553 93.7686 25.6204L95.5643 24.5696C94.8859 23.1996 93.6888 22.468 92.1591 22.468C90.5497 22.468 89.0334 23.5055 89.0334 25.3012C89.0334 27.0835 90.3901 27.7486 91.7734 28.1343C93.17 28.5201 93.7021 28.7462 93.7021 29.3181C93.7021 29.6773 93.4494 30.0763 92.4385 30.0763C91.3877 30.0763 90.8157 29.5576 90.4832 28.7861L88.6476 29.8502C89.1664 31.2202 90.4167 32.1513 92.372 32.1513Z" fill="white"/>
<path d="M100.53 27.2298V25.3145H99.1597V23.4523L97.1646 24.0509V25.3145H96.1005V27.2298H97.1646V29.5842C97.1646 31.4463 97.9227 32.2311 100.53 31.9651V30.1561C99.6519 30.2093 99.1597 30.1561 99.1597 29.5842V27.2298H100.53Z" fill="white"/>
<path d="M104.722 32.1513C106.677 32.1513 108.247 30.6217 108.247 28.6398C108.247 26.6579 106.677 25.1283 104.722 25.1283C102.767 25.1283 101.197 26.6579 101.197 28.6398C101.197 30.6217 102.767 32.1513 104.722 32.1513ZM104.722 30.2093C103.857 30.2093 103.192 29.5842 103.192 28.6398C103.192 27.6954 103.857 27.0702 104.722 27.0702C105.586 27.0702 106.251 27.6954 106.251 28.6398C106.251 29.5842 105.586 30.2093 104.722 30.2093Z" fill="white"/>
<path d="M111.37 26.4983V25.3145H109.375V31.9651H111.37V28.959C111.37 27.6422 112.541 27.3097 113.366 27.4427V25.1815C112.528 25.1815 111.636 25.6071 111.37 26.4983Z" fill="white"/>
<path d="M115.886 29.4378H120.608C120.661 29.1851 120.687 28.9191 120.687 28.6398C120.687 26.6313 119.251 25.1283 117.309 25.1283C115.207 25.1283 113.771 26.6579 113.771 28.6398C113.771 30.6217 115.181 32.1513 117.455 32.1513C118.719 32.1513 119.703 31.6858 120.355 30.7813L118.759 29.8635C118.493 30.1561 118.027 30.3689 117.482 30.3689C116.75 30.3689 116.138 30.1295 115.886 29.4378ZM115.846 27.9481C116.032 27.2698 116.537 26.8973 117.296 26.8973C117.894 26.8973 118.493 27.1766 118.706 27.9481H115.846Z" fill="white"/>
</svg>
