<svg width="1595" height="806" viewBox="0 0 1595 806" fill="none" xmlns="http://www.w3.org/2000/svg">
<path d="M1508.36 710.702V713.188H1494.1V710.702H1508.36ZM1502.56 704.63V719.775H1499.91V704.63H1502.56Z" fill="#6246E5"/>
<path d="M1554.91 664.147V666.634H1540.65V664.147H1554.91ZM1549.11 658.075V673.221H1546.47V658.075H1549.11Z" fill="#6246E5"/>
<path opacity="0.2" d="M1556.96 47.6024C1556.96 32.9103 1545.05 21 1530.36 21H172.308C77.5436 21 0.722046 97.8215 0.722046 192.586V779.398C0.722046 794.09 12.6324 806 27.3245 806H1530.36C1545.05 806 1556.96 794.09 1556.96 779.398V47.6024Z" fill="#AD7BFF"/>
<g opacity="0.1">
<mask id="mask0_437_47" style="mask-type:alpha" maskUnits="userSpaceOnUse" x="1205" y="21" width="352" height="534">
<path d="M1206.48 21.6651H1525.04C1542.3 21.6651 1556.3 35.6597 1556.3 52.9229V554.335H1272.32C1235.96 554.335 1206.48 524.857 1206.48 488.494V21.6651Z" fill="#9177FF" stroke="#6246E5" stroke-width="1.33012"/>
</mask>
<g mask="url(#mask0_437_47)">
<path d="M1645.84 291.884C1645.84 369.044 1591.09 431.438 1523.73 431.438C1456.37 431.438 1401.62 369.044 1401.62 291.884C1401.62 214.725 1456.37 152.33 1523.73 152.33C1591.09 152.33 1645.84 214.725 1645.84 291.884Z" fill="#9177FF" stroke="#6246E5" stroke-width="1.33012"/>
<path d="M1650.69 277.124C1650.69 363.453 1589.43 433.282 1514.04 433.282C1438.65 433.282 1377.39 363.453 1377.39 277.124C1377.39 190.794 1438.65 120.965 1514.04 120.965C1589.43 120.965 1650.69 190.794 1650.69 277.124Z" fill="#9177FF" stroke="#6246E5" stroke-width="1.33012"/>
<path d="M1655.53 265.134C1655.53 359.615 1588.49 436.052 1505.96 436.052C1423.44 436.052 1356.39 359.615 1356.39 265.134C1356.39 170.652 1423.44 94.2149 1505.96 94.2149C1588.49 94.2149 1655.53 170.652 1655.53 265.134Z" fill="#9177FF" stroke="#6246E5" stroke-width="1.33012"/>
<path d="M1658.76 247.605C1658.76 349.219 1586.66 431.439 1497.88 431.439C1409.11 431.439 1337 349.219 1337 247.605C1337 145.991 1409.11 63.7715 1497.88 63.7715C1586.66 63.7715 1658.76 145.991 1658.76 247.605Z" fill="#9177FF" stroke="#6246E5" stroke-width="1.33012"/>
<path d="M1662 230.538C1662 339.03 1585 426.825 1490.21 426.825C1395.42 426.825 1318.43 339.03 1318.43 230.538C1318.43 122.046 1395.42 34.251 1490.21 34.251C1585 34.251 1662 122.046 1662 230.538Z" fill="#9177FF" stroke="#6246E5" stroke-width="1.33012"/>
<path d="M1666.03 211.166C1666.03 330.358 1581.45 426.826 1477.29 426.826C1373.13 426.826 1288.54 330.358 1288.54 211.166C1288.54 91.9752 1373.13 -4.49314 1477.29 -4.49314C1581.45 -4.49314 1666.03 91.9752 1666.03 211.166Z" fill="#9177FF" stroke="#6246E5" stroke-width="1.33012"/>
</g>
</g>
<g opacity="0.1">
<path d="M292 789.335C159.208 789.335 51.6651 691.08 51.6651 570C51.6651 448.92 159.208 350.665 292 350.665C424.792 350.665 532.335 448.92 532.335 570C532.335 691.08 424.792 789.335 292 789.335Z" fill="#9177FF" stroke="#6246E5" stroke-width="1.33012"/>
</g>
<path d="M622.825 264V232.66H647.625V264H640.997V238.19H629.453V264H622.825ZM676.776 251.973C676.776 253.963 676.498 255.733 675.942 257.284C675.415 258.835 674.64 260.152 673.616 261.235C672.621 262.288 671.406 263.093 669.972 263.649C668.539 264.176 666.914 264.439 665.1 264.439C663.432 264.439 661.881 264.176 660.447 263.649C659.043 263.093 657.828 262.288 656.804 261.235C655.78 260.152 654.975 258.835 654.39 257.284C653.834 255.733 653.556 253.963 653.556 251.973C653.556 249.31 654.024 247.072 654.961 245.257C655.897 243.414 657.243 242.009 658.999 241.043C660.755 240.078 662.832 239.595 665.232 239.595C667.485 239.595 669.475 240.078 671.201 241.043C672.928 242.009 674.289 243.414 675.284 245.257C676.278 247.072 676.776 249.31 676.776 251.973ZM660.228 251.973C660.228 253.553 660.389 254.885 660.711 255.967C661.062 257.021 661.603 257.826 662.335 258.382C663.066 258.908 664.017 259.172 665.188 259.172C666.358 259.172 667.295 258.908 667.997 258.382C668.729 257.826 669.255 257.021 669.577 255.967C669.928 254.885 670.104 253.553 670.104 251.973C670.104 250.393 669.928 249.076 669.577 248.023C669.255 246.969 668.729 246.179 667.997 245.652C667.266 245.126 666.315 244.862 665.144 244.862C663.418 244.862 662.159 245.462 661.369 246.662C660.608 247.832 660.228 249.603 660.228 251.973ZM703.733 240.034V259.216H707.245V272.603H701.363V264H685.254V272.603H679.372V259.216H681.391C682.444 257.606 683.337 255.777 684.069 253.729C684.8 251.651 685.385 249.442 685.824 247.101C686.263 244.76 686.585 242.404 686.79 240.034H703.733ZM692.277 244.95C692.043 246.706 691.75 248.418 691.399 250.086C691.048 251.724 690.609 253.304 690.082 254.826C689.585 256.348 688.97 257.811 688.238 259.216H697.193V244.95H692.277ZM733.101 240.034V264H726.561V244.95H717.87V264H711.329V240.034H733.101ZM746.284 249.515C746.284 250.012 746.255 250.627 746.196 251.359C746.167 252.09 746.123 252.836 746.065 253.597C746.035 254.358 745.992 255.031 745.933 255.616C745.874 256.201 745.831 256.611 745.801 256.845L756.863 240.034H764.72V264H758.399V254.431C758.399 253.641 758.428 252.778 758.487 251.841C758.545 250.876 758.604 249.983 758.662 249.164C758.75 248.315 758.809 247.671 758.838 247.232L747.82 264H739.963V240.034H746.284V249.515ZM807.241 240.034V264H771.555V240.034H778.095V259.084H786.128V240.034H792.668V259.084H800.701V240.034H807.241ZM820.398 249.515C820.398 250.012 820.369 250.627 820.31 251.359C820.281 252.09 820.237 252.836 820.179 253.597C820.149 254.358 820.106 255.031 820.047 255.616C819.989 256.201 819.945 256.611 819.915 256.845L830.977 240.034H838.834V264H832.513V254.431C832.513 253.641 832.542 252.778 832.601 251.841C832.659 250.876 832.718 249.983 832.776 249.164C832.864 248.315 832.923 247.671 832.952 247.232L821.934 264H814.077V240.034H820.398V249.515ZM865.509 244.95H857.652V264H851.112V244.95H843.255V240.034H865.509V244.95ZM879.378 239.595C881.602 239.595 883.504 240.019 885.085 240.868C886.694 241.716 887.938 242.946 888.816 244.555C889.693 246.164 890.132 248.14 890.132 250.481V253.641H874.682C874.74 255.485 875.282 256.933 876.306 257.987C877.359 259.04 878.808 259.567 880.651 259.567C882.202 259.567 883.607 259.42 884.865 259.128C886.123 258.806 887.426 258.323 888.772 257.679V262.727C887.601 263.312 886.358 263.737 885.041 264C883.753 264.293 882.188 264.439 880.344 264.439C877.945 264.439 875.823 264 873.979 263.122C872.136 262.215 870.687 260.854 869.634 259.04C868.58 257.226 868.054 254.943 868.054 252.193C868.054 249.383 868.522 247.057 869.458 245.213C870.424 243.341 871.755 241.936 873.453 241C875.15 240.063 877.125 239.595 879.378 239.595ZM879.422 244.248C878.164 244.248 877.111 244.657 876.262 245.477C875.443 246.296 874.96 247.569 874.813 249.296H883.987C883.987 248.33 883.812 247.467 883.461 246.706C883.139 245.945 882.641 245.345 881.968 244.906C881.295 244.467 880.446 244.248 879.422 244.248ZM905.18 264.439C902.81 264.439 900.791 264.015 899.123 263.166C897.455 262.288 896.182 260.942 895.304 259.128C894.426 257.313 893.987 254.987 893.987 252.149C893.987 249.222 894.485 246.837 895.48 244.994C896.475 243.15 897.85 241.79 899.606 240.912C901.391 240.034 903.439 239.595 905.751 239.595C907.389 239.595 908.809 239.756 910.009 240.078C911.238 240.4 912.306 240.78 913.213 241.219L911.281 246.267C910.257 245.857 909.292 245.521 908.384 245.257C907.507 244.994 906.629 244.862 905.751 244.862C904.61 244.862 903.659 245.14 902.898 245.696C902.137 246.223 901.566 247.028 901.186 248.11C900.835 249.164 900.659 250.495 900.659 252.105C900.659 253.685 900.849 255.002 901.23 256.055C901.639 257.079 902.225 257.855 902.985 258.382C903.746 258.879 904.668 259.128 905.751 259.128C907.126 259.128 908.341 258.952 909.394 258.601C910.447 258.221 911.472 257.709 912.467 257.065V262.639C911.472 263.283 910.418 263.737 909.306 264C908.223 264.293 906.848 264.439 905.18 264.439ZM929.132 249.296C931.59 249.296 933.624 249.559 935.233 250.086C936.843 250.583 938.028 251.359 938.789 252.412C939.579 253.465 939.974 254.782 939.974 256.362C939.974 257.913 939.608 259.259 938.876 260.401C938.174 261.542 937.047 262.434 935.497 263.078C933.946 263.693 931.912 264 929.395 264H917.983V240.034H924.523V249.296H929.132ZM933.434 256.45C933.434 255.514 933.053 254.841 932.292 254.431C931.561 254.021 930.463 253.817 929 253.817H924.523V259.479H929.088C930.376 259.479 931.414 259.245 932.204 258.777C933.024 258.308 933.434 257.533 933.434 256.45ZM951.266 257.548L946.13 269.882H942.18L945.033 257.548H951.266ZM468.734 321.032C468.734 322.407 469.115 323.432 469.876 324.105C470.666 324.749 471.792 325.07 473.255 325.07C474.718 325.07 476.05 324.851 477.25 324.412C478.449 323.944 479.679 323.329 480.937 322.568V312.473H484.799V336H480.937V325.509C479.62 326.358 478.318 327.031 477.03 327.528C475.772 327.997 474.25 328.231 472.465 328.231C470.066 328.231 468.193 327.602 466.847 326.343C465.53 325.085 464.872 323.402 464.872 321.296V312.473H468.734V321.032ZM508.515 315.721H500.833V336H497.014V315.721H489.421V312.473H508.515V315.721ZM533.175 324.193C533.175 326.153 532.912 327.894 532.385 329.416C531.888 330.908 531.156 332.181 530.19 333.235C529.254 334.288 528.098 335.093 526.723 335.649C525.377 336.176 523.87 336.439 522.202 336.439C520.651 336.439 519.217 336.176 517.9 335.649C516.583 335.093 515.442 334.288 514.476 333.235C513.511 332.181 512.75 330.908 512.194 329.416C511.667 327.894 511.404 326.153 511.404 324.193C511.404 321.588 511.843 319.393 512.721 317.608C513.598 315.794 514.857 314.419 516.495 313.482C518.134 312.517 520.08 312.034 522.333 312.034C524.469 312.034 526.342 312.517 527.952 313.482C529.59 314.419 530.863 315.794 531.771 317.608C532.707 319.393 533.175 321.588 533.175 324.193ZM515.398 324.193C515.398 326.036 515.632 327.646 516.1 329.021C516.598 330.367 517.359 331.406 518.383 332.137C519.407 332.869 520.709 333.235 522.289 333.235C523.87 333.235 525.172 332.869 526.196 332.137C527.22 331.406 527.966 330.367 528.435 329.021C528.932 327.646 529.181 326.036 529.181 324.193C529.181 322.32 528.932 320.725 528.435 319.408C527.937 318.091 527.176 317.082 526.152 316.379C525.157 315.648 523.855 315.282 522.246 315.282C519.846 315.282 518.105 316.072 517.022 317.652C515.939 319.232 515.398 321.413 515.398 324.193ZM538.068 321.866C538.068 318.442 538.404 315.531 539.078 313.131C539.78 310.702 540.848 308.771 542.282 307.337C543.745 305.874 545.618 304.894 547.9 304.396C549.802 303.987 551.66 303.621 553.475 303.299C555.289 302.977 556.986 302.684 558.566 302.421L559.225 305.801C558.464 305.918 557.615 306.064 556.679 306.24C555.743 306.386 554.792 306.547 553.826 306.723C552.86 306.869 551.924 307.03 551.017 307.206C550.139 307.352 549.363 307.498 548.69 307.644C547.725 307.849 546.861 308.2 546.101 308.698C545.34 309.166 544.681 309.81 544.125 310.629C543.599 311.449 543.174 312.458 542.852 313.658C542.531 314.858 542.34 316.277 542.282 317.916H542.545C542.955 317.36 543.511 316.789 544.213 316.204C544.945 315.619 545.808 315.121 546.803 314.711C547.827 314.302 548.983 314.097 550.27 314.097C552.319 314.097 554.016 314.55 555.362 315.458C556.738 316.335 557.762 317.565 558.435 319.145C559.137 320.725 559.488 322.568 559.488 324.675C559.488 327.28 559.035 329.46 558.128 331.216C557.22 332.971 555.962 334.288 554.353 335.166C552.743 336.015 550.87 336.439 548.734 336.439C547.125 336.439 545.662 336.132 544.345 335.517C543.028 334.873 541.901 333.937 540.965 332.708C540.029 331.479 539.312 329.957 538.814 328.143C538.317 326.329 538.068 324.236 538.068 321.866ZM549.041 333.235C550.329 333.235 551.441 332.971 552.377 332.445C553.343 331.918 554.089 331.055 554.616 329.855C555.143 328.655 555.406 327.06 555.406 325.07C555.406 322.671 554.953 320.783 554.045 319.408C553.167 318.003 551.704 317.301 549.656 317.301C548.368 317.301 547.198 317.594 546.144 318.179C545.091 318.735 544.213 319.379 543.511 320.11C542.809 320.842 542.311 321.456 542.018 321.954C542.018 323.388 542.121 324.778 542.326 326.124C542.531 327.47 542.882 328.684 543.379 329.767C543.906 330.821 544.623 331.669 545.53 332.313C546.466 332.927 547.637 333.235 549.041 333.235ZM565.573 336V312.473H569.436V322.129H575.537C577.586 322.129 579.268 322.378 580.585 322.876C581.902 323.373 582.882 324.119 583.526 325.114C584.17 326.08 584.492 327.309 584.492 328.801C584.492 330.265 584.17 331.537 583.526 332.62C582.912 333.703 581.931 334.537 580.585 335.122C579.268 335.707 577.527 336 575.362 336H565.573ZM575.011 332.884C576.679 332.884 578.039 332.606 579.093 332.05C580.146 331.464 580.673 330.455 580.673 329.021C580.673 327.587 580.19 326.621 579.224 326.124C578.259 325.597 576.869 325.334 575.054 325.334H569.436V332.884H575.011ZM588.398 336V312.473H592.261V336H588.398ZM631.023 312.473V336H627.16V315.765H615.002V336H611.139V312.473H631.023ZM658.985 324.193C658.985 326.153 658.721 327.894 658.195 329.416C657.697 330.908 656.966 332.181 656 333.235C655.063 334.288 653.908 335.093 652.532 335.649C651.186 336.176 649.679 336.439 648.011 336.439C646.46 336.439 645.026 336.176 643.71 335.649C642.393 335.093 641.251 334.288 640.286 333.235C639.32 332.181 638.559 330.908 638.003 329.416C637.477 327.894 637.213 326.153 637.213 324.193C637.213 321.588 637.652 319.393 638.53 317.608C639.408 315.794 640.666 314.419 642.305 313.482C643.944 312.517 645.89 312.034 648.143 312.034C650.279 312.034 652.152 312.517 653.761 313.482C655.4 314.419 656.673 315.794 657.58 317.608C658.516 319.393 658.985 321.588 658.985 324.193ZM641.208 324.193C641.208 326.036 641.442 327.646 641.91 329.021C642.407 330.367 643.168 331.406 644.192 332.137C645.217 332.869 646.519 333.235 648.099 333.235C649.679 333.235 650.981 332.869 652.005 332.137C653.03 331.406 653.776 330.367 654.244 329.021C654.742 327.646 654.99 326.036 654.99 324.193C654.99 322.32 654.742 320.725 654.244 319.408C653.747 318.091 652.986 317.082 651.962 316.379C650.967 315.648 649.664 315.282 648.055 315.282C645.655 315.282 643.914 316.072 642.832 317.652C641.749 319.232 641.208 321.413 641.208 324.193ZM683.015 336H679.109V315.677H672.173C671.881 319.393 671.515 322.568 671.076 325.202C670.637 327.806 670.081 329.928 669.408 331.567C668.735 333.205 667.93 334.405 666.994 335.166C666.058 335.927 664.96 336.307 663.702 336.307C663.321 336.307 662.941 336.278 662.561 336.219C662.209 336.19 661.917 336.117 661.683 336V333.103C661.858 333.162 662.049 333.205 662.253 333.235C662.458 333.264 662.663 333.279 662.868 333.279C663.512 333.279 664.097 333.015 664.624 332.488C665.15 331.962 665.619 331.157 666.028 330.074C666.467 328.992 666.862 327.631 667.213 325.992C667.565 324.324 667.872 322.364 668.135 320.11C668.399 317.857 668.633 315.311 668.837 312.473H683.015V336ZM686.796 312.473H690.922L696.013 325.86C696.306 326.651 696.569 327.411 696.803 328.143C697.067 328.875 697.301 329.591 697.506 330.294C697.711 330.967 697.872 331.625 697.989 332.269H698.164C698.34 331.537 698.618 330.586 698.998 329.416C699.379 328.216 699.774 327.016 700.183 325.817L704.968 312.473H709.138L698.998 339.248C698.442 340.711 697.784 341.984 697.023 343.067C696.291 344.179 695.384 345.028 694.301 345.613C693.248 346.227 691.96 346.535 690.439 346.535C689.737 346.535 689.122 346.491 688.595 346.403C688.069 346.344 687.615 346.271 687.235 346.183V343.111C687.556 343.169 687.937 343.228 688.376 343.286C688.844 343.345 689.327 343.374 689.824 343.374C690.731 343.374 691.507 343.199 692.151 342.847C692.824 342.526 693.394 342.043 693.863 341.399C694.331 340.784 694.726 340.053 695.048 339.204L696.277 336.088L686.796 312.473ZM716.238 321.032C716.238 322.407 716.619 323.432 717.379 324.105C718.17 324.749 719.296 325.07 720.759 325.07C722.222 325.07 723.554 324.851 724.754 324.412C725.953 323.944 727.182 323.329 728.441 322.568V312.473H732.303V336H728.441V325.509C727.124 326.358 725.822 327.031 724.534 327.528C723.276 327.997 721.754 328.231 719.969 328.231C717.57 328.231 715.697 327.602 714.351 326.343C713.034 325.085 712.376 323.402 712.376 321.296V312.473H716.238V321.032ZM748.688 312.078C751.556 312.078 753.678 312.707 755.053 313.965C756.428 315.223 757.116 317.228 757.116 319.979V336H754.307L753.56 332.664H753.385C752.712 333.513 752.01 334.23 751.278 334.815C750.576 335.371 749.756 335.781 748.82 336.044C747.913 336.307 746.801 336.439 745.484 336.439C744.079 336.439 742.806 336.19 741.665 335.693C740.553 335.195 739.675 334.434 739.032 333.41C738.388 332.357 738.066 331.04 738.066 329.46C738.066 327.119 738.988 325.319 740.831 324.061C742.675 322.773 745.513 322.071 749.347 321.954L753.341 321.822V320.418C753.341 318.457 752.917 317.096 752.068 316.335C751.219 315.575 750.02 315.194 748.469 315.194C747.24 315.194 746.069 315.384 744.957 315.765C743.845 316.116 742.806 316.526 741.841 316.994L740.656 314.097C741.68 313.541 742.894 313.073 744.299 312.692C745.703 312.283 747.167 312.078 748.688 312.078ZM749.829 324.631C746.903 324.749 744.869 325.217 743.728 326.036C742.616 326.855 742.06 328.011 742.06 329.504C742.06 330.821 742.455 331.786 743.245 332.401C744.065 333.015 745.104 333.322 746.362 333.322C748.352 333.322 750.005 332.781 751.322 331.698C752.639 330.586 753.297 328.889 753.297 326.607V324.5L749.829 324.631ZM780.623 315.721H772.942V336H769.123V315.721H761.529V312.473H780.623V315.721ZM796.1 322.129C798.148 322.129 799.845 322.378 801.191 322.876C802.537 323.373 803.547 324.119 804.22 325.114C804.922 326.08 805.273 327.309 805.273 328.801C805.273 330.265 804.937 331.537 804.264 332.62C803.62 333.703 802.611 334.537 801.235 335.122C799.86 335.707 798.089 336 795.924 336H785.258V312.473H789.12V322.129H796.1ZM801.411 329.021C801.411 327.587 800.899 326.621 799.874 326.124C798.88 325.597 797.475 325.334 795.661 325.334H789.12V332.884H795.748C797.387 332.884 798.733 332.591 799.787 332.006C800.869 331.42 801.411 330.425 801.411 329.021ZM826.365 326.826C826.365 327.09 826.351 327.47 826.321 327.967C826.321 328.436 826.307 328.948 826.277 329.504C826.248 330.03 826.219 330.543 826.19 331.04C826.16 331.508 826.131 331.889 826.102 332.181L838.699 312.473H843.44V336H839.841V322.129C839.841 321.661 839.841 321.047 839.841 320.286C839.87 319.525 839.899 318.779 839.928 318.047C839.958 317.287 839.987 316.716 840.016 316.335L827.506 336H822.722V312.473H826.365V326.826ZM854.79 312.473V322.261H867.563V312.473H871.426V336H867.563V325.509H854.79V336H850.927V312.473H854.79ZM892.922 312.122C895.263 312.326 897.296 312.941 899.023 313.965C900.779 314.989 902.139 316.365 903.105 318.091C904.071 319.818 904.553 321.866 904.553 324.236C904.553 326.607 904.085 328.67 903.149 330.425C902.212 332.152 900.881 333.527 899.154 334.551C897.428 335.546 895.35 336.146 892.922 336.351V346.535H889.147V336.351C886.835 336.146 884.801 335.546 883.045 334.551C881.29 333.527 879.929 332.152 878.963 330.425C877.998 328.67 877.515 326.607 877.515 324.236C877.515 321.837 877.983 319.774 878.919 318.047C879.856 316.292 881.202 314.916 882.958 313.921C884.713 312.897 886.82 312.297 889.278 312.122V302.641H892.922V312.122ZM889.278 315.326C887.493 315.501 886.03 315.955 884.889 316.687C883.748 317.418 882.899 318.413 882.343 319.671C881.816 320.93 881.553 322.451 881.553 324.236C881.553 325.992 881.816 327.514 882.343 328.801C882.899 330.06 883.748 331.069 884.889 331.83C886.03 332.562 887.493 333.015 889.278 333.191V315.326ZM892.922 333.191C894.677 332.986 896.111 332.518 897.223 331.786C898.364 331.055 899.198 330.06 899.725 328.801C900.281 327.514 900.559 325.992 900.559 324.236C900.559 322.481 900.281 320.974 899.725 319.715C899.169 318.457 898.321 317.462 897.179 316.731C896.067 315.999 894.648 315.545 892.922 315.37V333.191ZM931.136 324.193C931.136 326.153 930.873 327.894 930.346 329.416C929.849 330.908 929.117 332.181 928.151 333.235C927.215 334.288 926.059 335.093 924.684 335.649C923.338 336.176 921.831 336.439 920.163 336.439C918.612 336.439 917.178 336.176 915.861 335.649C914.544 335.093 913.403 334.288 912.437 333.235C911.472 332.181 910.711 330.908 910.155 329.416C909.628 327.894 909.365 326.153 909.365 324.193C909.365 321.588 909.804 319.393 910.681 317.608C911.559 315.794 912.818 314.419 914.456 313.482C916.095 312.517 918.041 312.034 920.294 312.034C922.43 312.034 924.303 312.517 925.913 313.482C927.551 314.419 928.824 315.794 929.731 317.608C930.668 319.393 931.136 321.588 931.136 324.193ZM913.359 324.193C913.359 326.036 913.593 327.646 914.061 329.021C914.559 330.367 915.32 331.406 916.344 332.137C917.368 332.869 918.67 333.235 920.25 333.235C921.831 333.235 923.133 332.869 924.157 332.137C925.181 331.406 925.927 330.367 926.396 329.021C926.893 327.646 927.142 326.036 927.142 324.193C927.142 322.32 926.893 320.725 926.396 319.408C925.898 318.091 925.137 317.082 924.113 316.379C923.118 315.648 921.816 315.282 920.206 315.282C917.807 315.282 916.066 316.072 914.983 317.652C913.9 319.232 913.359 321.413 913.359 324.193ZM948.451 312.034C951.348 312.034 953.674 313.043 955.43 315.063C957.215 317.082 958.108 320.125 958.108 324.193C958.108 326.855 957.698 329.109 956.879 330.952C956.088 332.766 954.962 334.142 953.499 335.078C952.065 335.985 950.368 336.439 948.407 336.439C947.207 336.439 946.139 336.278 945.203 335.956C944.266 335.634 943.462 335.225 942.789 334.727C942.145 334.2 941.589 333.63 941.121 333.015H940.857C940.916 333.513 940.974 334.142 941.033 334.903C941.091 335.663 941.121 336.322 941.121 336.878V346.535H937.258V312.473H940.418L940.945 315.677H941.121C941.589 315.004 942.145 314.39 942.789 313.834C943.462 313.278 944.252 312.839 945.159 312.517C946.095 312.195 947.193 312.034 948.451 312.034ZM947.749 315.282C946.168 315.282 944.896 315.589 943.93 316.204C942.964 316.789 942.262 317.682 941.823 318.881C941.384 320.081 941.15 321.603 941.121 323.446V324.193C941.121 326.124 941.325 327.763 941.735 329.109C942.145 330.455 942.833 331.479 943.798 332.181C944.793 332.884 946.139 333.235 947.836 333.235C949.27 333.235 950.441 332.84 951.348 332.05C952.284 331.259 952.972 330.191 953.411 328.845C953.879 327.47 954.113 325.904 954.113 324.149C954.113 321.456 953.587 319.306 952.533 317.696C951.509 316.087 949.914 315.282 947.749 315.282ZM989.502 312.473V336H986.034V320.988C986.034 320.374 986.049 319.73 986.078 319.057C986.137 318.384 986.195 317.725 986.254 317.082H986.122L978.441 336H975.193L967.731 317.082H967.599C967.658 317.725 967.687 318.384 967.687 319.057C967.716 319.73 967.731 320.418 967.731 321.12V336H964.263V312.473H969.399L976.817 331.391L984.366 312.473H989.502ZM1005.92 312.078C1008.79 312.078 1010.91 312.707 1012.29 313.965C1013.66 315.223 1014.35 317.228 1014.35 319.979V336H1011.54L1010.79 332.664H1010.62C1009.95 333.513 1009.24 334.23 1008.51 334.815C1007.81 335.371 1006.99 335.781 1006.05 336.044C1005.15 336.307 1004.04 336.439 1002.72 336.439C1001.31 336.439 1000.04 336.19 998.9 335.693C997.788 335.195 996.91 334.434 996.266 333.41C995.622 332.357 995.3 331.04 995.3 329.46C995.3 327.119 996.222 325.319 998.066 324.061C999.909 322.773 1002.75 322.071 1006.58 321.954L1010.58 321.822V320.418C1010.58 318.457 1010.15 317.096 1009.3 316.335C1008.45 315.575 1007.25 315.194 1005.7 315.194C1004.47 315.194 1003.3 315.384 1002.19 315.765C1001.08 316.116 1000.04 316.526 999.075 316.994L997.89 314.097C998.914 313.541 1000.13 313.073 1001.53 312.692C1002.94 312.283 1004.4 312.078 1005.92 312.078ZM1007.06 324.631C1004.14 324.749 1002.1 325.217 1000.96 326.036C999.851 326.855 999.295 328.011 999.295 329.504C999.295 330.821 999.69 331.786 1000.48 332.401C1001.3 333.015 1002.34 333.322 1003.6 333.322C1005.59 333.322 1007.24 332.781 1008.56 331.698C1009.87 330.586 1010.53 328.889 1010.53 326.607V324.5L1007.06 324.631ZM1044.84 344.164H1041.06V336H1021.62V312.473H1025.48V332.752H1037.64V312.473H1041.5V332.796H1044.84V344.164ZM1052.99 326.826C1052.99 327.09 1052.98 327.47 1052.95 327.967C1052.95 328.436 1052.94 328.948 1052.91 329.504C1052.88 330.03 1052.85 330.543 1052.82 331.04C1052.79 331.508 1052.76 331.889 1052.73 332.181L1065.33 312.473H1070.07V336H1066.47V322.129C1066.47 321.661 1066.47 321.047 1066.47 320.286C1066.5 319.525 1066.53 318.779 1066.56 318.047C1066.59 317.287 1066.62 316.716 1066.64 316.335L1054.13 336H1049.35V312.473H1052.99V326.826ZM1108.11 324.193C1108.11 326.797 1107.68 329.021 1106.83 330.864C1105.98 332.679 1104.78 334.069 1103.23 335.034C1101.68 335.971 1099.84 336.439 1097.7 336.439C1095.71 336.439 1093.97 336.029 1092.48 335.21C1090.99 334.361 1089.8 333.132 1088.92 331.523C1088.05 329.884 1087.53 327.88 1087.39 325.509H1081.42V336H1077.56V312.473H1081.42V322.261H1087.43C1087.64 320.037 1088.18 318.179 1089.06 316.687C1089.96 315.165 1091.15 314.009 1092.61 313.219C1094.1 312.429 1095.83 312.034 1097.79 312.034C1099.81 312.034 1101.6 312.517 1103.15 313.482C1104.7 314.419 1105.91 315.794 1106.79 317.608C1107.67 319.393 1108.11 321.588 1108.11 324.193ZM1091.34 324.193C1091.34 326.153 1091.56 327.806 1092 329.153C1092.47 330.499 1093.17 331.523 1094.1 332.225C1095.04 332.898 1096.25 333.235 1097.75 333.235C1099.24 333.235 1100.45 332.898 1101.39 332.225C1102.33 331.523 1103.01 330.499 1103.45 329.153C1103.89 327.806 1104.11 326.153 1104.11 324.193C1104.11 322.232 1103.89 320.593 1103.45 319.276C1103.01 317.96 1102.33 316.965 1101.39 316.292C1100.45 315.619 1099.24 315.282 1097.75 315.282C1096.25 315.282 1095.04 315.619 1094.1 316.292C1093.17 316.965 1092.47 317.96 1092 319.276C1091.56 320.593 1091.34 322.232 1091.34 324.193ZM1119.3 329.987L1113.99 342.101H1110.74L1113.85 329.987H1119.3ZM417.533 384.473V408H413.67V387.765H401.511V408H397.649V384.473H417.533ZM445.494 396.193C445.494 398.153 445.231 399.894 444.704 401.416C444.207 402.908 443.475 404.181 442.509 405.235C441.573 406.288 440.417 407.093 439.042 407.649C437.696 408.176 436.189 408.439 434.521 408.439C432.97 408.439 431.536 408.176 430.219 407.649C428.902 407.093 427.761 406.288 426.795 405.235C425.83 404.181 425.069 402.908 424.513 401.416C423.986 399.894 423.723 398.153 423.723 396.193C423.723 393.588 424.162 391.393 425.04 389.608C425.918 387.794 427.176 386.419 428.815 385.482C430.453 384.517 432.399 384.034 434.652 384.034C436.789 384.034 438.661 384.517 440.271 385.482C441.91 386.419 443.183 387.794 444.09 389.608C445.026 391.393 445.494 393.588 445.494 396.193ZM427.717 396.193C427.717 398.036 427.951 399.646 428.42 401.021C428.917 402.367 429.678 403.406 430.702 404.137C431.726 404.869 433.028 405.235 434.609 405.235C436.189 405.235 437.491 404.869 438.515 404.137C439.539 403.406 440.286 402.367 440.754 401.021C441.251 399.646 441.5 398.036 441.5 396.193C441.5 394.32 441.251 392.725 440.754 391.408C440.256 390.091 439.495 389.082 438.471 388.379C437.476 387.648 436.174 387.282 434.565 387.282C432.165 387.282 430.424 388.072 429.341 389.652C428.259 391.232 427.717 393.413 427.717 396.193ZM461.053 408.439C458.976 408.439 457.118 408.015 455.479 407.166C453.869 406.317 452.596 405.001 451.66 403.216C450.753 401.431 450.299 399.148 450.299 396.368C450.299 393.471 450.782 391.115 451.748 389.301C452.713 387.487 454.016 386.155 455.654 385.307C457.322 384.458 459.21 384.034 461.317 384.034C462.516 384.034 463.672 384.166 464.784 384.429C465.896 384.663 466.803 384.956 467.506 385.307L466.321 388.511C465.618 388.248 464.799 387.999 463.863 387.765C462.926 387.531 462.048 387.414 461.229 387.414C459.649 387.414 458.347 387.75 457.322 388.423C456.298 389.096 455.537 390.091 455.04 391.408C454.542 392.725 454.294 394.364 454.294 396.324C454.294 398.197 454.542 399.792 455.04 401.109C455.537 402.425 456.284 403.42 457.278 404.093C458.273 404.766 459.517 405.103 461.009 405.103C462.297 405.103 463.424 404.971 464.389 404.708C465.384 404.445 466.291 404.123 467.111 403.742V407.166C466.321 407.576 465.443 407.883 464.477 408.088C463.541 408.322 462.399 408.439 461.053 408.439ZM490.615 408H486.708V387.677H479.773C479.48 391.393 479.114 394.568 478.675 397.202C478.236 399.806 477.68 401.928 477.007 403.567C476.334 405.205 475.53 406.405 474.593 407.166C473.657 407.927 472.56 408.307 471.301 408.307C470.921 408.307 470.54 408.278 470.16 408.219C469.809 408.19 469.516 408.117 469.282 408V405.103C469.458 405.162 469.648 405.205 469.853 405.235C470.058 405.264 470.262 405.279 470.467 405.279C471.111 405.279 471.696 405.015 472.223 404.488C472.75 403.962 473.218 403.157 473.628 402.074C474.067 400.992 474.462 399.631 474.813 397.992C475.164 396.324 475.471 394.364 475.735 392.11C475.998 389.857 476.232 387.311 476.437 384.473H490.615V408ZM507.168 384.034C509.187 384.034 510.914 384.473 512.348 385.351C513.811 386.229 514.923 387.472 515.684 389.082C516.474 390.662 516.869 392.52 516.869 394.656V396.983H500.76C500.818 399.646 501.491 401.679 502.779 403.084C504.096 404.459 505.924 405.147 508.265 405.147C509.758 405.147 511.075 405.015 512.216 404.752C513.386 404.459 514.586 404.05 515.815 403.523V406.903C514.615 407.429 513.43 407.81 512.26 408.044C511.089 408.307 509.699 408.439 508.09 408.439C505.866 408.439 503.891 407.985 502.164 407.078C500.467 406.171 499.136 404.825 498.17 403.04C497.233 401.226 496.765 399.016 496.765 396.412C496.765 393.837 497.19 391.628 498.038 389.784C498.916 387.94 500.13 386.521 501.681 385.526C503.262 384.531 505.09 384.034 507.168 384.034ZM507.124 387.194C505.281 387.194 503.818 387.794 502.735 388.994C501.681 390.164 501.052 391.803 500.847 393.91H512.83C512.83 392.564 512.626 391.393 512.216 390.399C511.806 389.404 511.177 388.628 510.328 388.072C509.509 387.487 508.441 387.194 507.124 387.194ZM540.328 384.473V404.752H543.752V416.164H540.021V408H523.648V416.164H519.961V404.752H521.849C523.195 402.879 524.307 400.845 525.185 398.651C526.092 396.427 526.765 394.115 527.204 391.715C527.672 389.287 527.921 386.872 527.95 384.473H540.328ZM531.374 387.501C531.257 389.491 530.949 391.554 530.452 393.691C529.954 395.797 529.311 397.817 528.52 399.748C527.76 401.679 526.867 403.347 525.843 404.752H536.597V387.501H531.374ZM552.226 384.473V394.261H564.999V384.473H568.861V408H564.999V397.509H552.226V408H548.363V384.473H552.226ZM579.954 398.826C579.954 399.09 579.94 399.47 579.91 399.967C579.91 400.436 579.896 400.948 579.867 401.504C579.837 402.03 579.808 402.543 579.779 403.04C579.749 403.508 579.72 403.889 579.691 404.181L592.289 384.473H597.029V408H593.43V394.129C593.43 393.661 593.43 393.047 593.43 392.286C593.459 391.525 593.488 390.779 593.518 390.047C593.547 389.287 593.576 388.716 593.605 388.335L581.096 408H576.311V384.473H579.954V398.826ZM613.603 384.034C615.622 384.034 617.348 384.473 618.782 385.351C620.245 386.229 621.357 387.472 622.118 389.082C622.908 390.662 623.303 392.52 623.303 394.656V396.983H607.194C607.253 399.646 607.926 401.679 609.213 403.084C610.53 404.459 612.359 405.147 614.7 405.147C616.192 405.147 617.509 405.015 618.65 404.752C619.821 404.459 621.021 404.05 622.25 403.523V406.903C621.05 407.429 619.865 407.81 618.694 408.044C617.524 408.307 616.134 408.439 614.524 408.439C612.3 408.439 610.325 407.985 608.599 407.078C606.901 406.171 605.57 404.825 604.604 403.04C603.668 401.226 603.2 399.016 603.2 396.412C603.2 393.837 603.624 391.628 604.473 389.784C605.35 387.94 606.565 386.521 608.116 385.526C609.696 384.531 611.525 384.034 613.603 384.034ZM613.559 387.194C611.715 387.194 610.252 387.794 609.169 388.994C608.116 390.164 607.487 391.803 607.282 393.91H619.265C619.265 392.564 619.06 391.393 618.65 390.399C618.241 389.404 617.612 388.628 616.763 388.072C615.944 387.487 614.875 387.194 613.559 387.194ZM644.557 384.473V394.261H657.331V384.473H661.193V408H657.331V397.509H644.557V408H640.695V384.473H644.557ZM689.097 396.193C689.097 398.153 688.834 399.894 688.307 401.416C687.81 402.908 687.078 404.181 686.113 405.235C685.176 406.288 684.02 407.093 682.645 407.649C681.299 408.176 679.792 408.439 678.124 408.439C676.573 408.439 675.139 408.176 673.822 407.649C672.506 407.093 671.364 406.288 670.399 405.235C669.433 404.181 668.672 402.908 668.116 401.416C667.589 399.894 667.326 398.153 667.326 396.193C667.326 393.588 667.765 391.393 668.643 389.608C669.521 387.794 670.779 386.419 672.418 385.482C674.056 384.517 676.002 384.034 678.256 384.034C680.392 384.034 682.265 384.517 683.874 385.482C685.513 386.419 686.786 387.794 687.693 389.608C688.629 391.393 689.097 393.588 689.097 396.193ZM671.32 396.193C671.32 398.036 671.554 399.646 672.023 401.021C672.52 402.367 673.281 403.406 674.305 404.137C675.329 404.869 676.632 405.235 678.212 405.235C679.792 405.235 681.094 404.869 682.118 404.137C683.143 403.406 683.889 402.367 684.357 401.021C684.854 399.646 685.103 398.036 685.103 396.193C685.103 394.32 684.854 392.725 684.357 391.408C683.859 390.091 683.099 389.082 682.074 388.379C681.079 387.648 679.777 387.282 678.168 387.282C675.768 387.282 674.027 388.072 672.944 389.652C671.862 391.232 671.32 393.413 671.32 396.193ZM714.138 390.399C714.138 391.862 713.699 393.003 712.821 393.822C711.943 394.642 710.816 395.198 709.441 395.49V395.666C710.904 395.871 712.177 396.397 713.26 397.246C714.342 398.065 714.884 399.353 714.884 401.109C714.884 402.104 714.694 403.025 714.313 403.874C713.962 404.723 713.406 405.454 712.645 406.069C711.884 406.683 710.904 407.166 709.704 407.517C708.505 407.839 707.056 408 705.359 408H695.219V384.473H705.315C706.983 384.473 708.475 384.663 709.792 385.043C711.138 385.395 712.192 386.009 712.952 386.887C713.743 387.736 714.138 388.906 714.138 390.399ZM710.889 401.109C710.889 399.763 710.377 398.797 709.353 398.212C708.329 397.626 706.822 397.334 704.832 397.334H699.082V404.884H704.92C706.851 404.884 708.329 404.606 709.353 404.05C710.377 403.464 710.889 402.484 710.889 401.109ZM710.231 390.881C710.231 389.769 709.821 388.965 709.002 388.467C708.212 387.94 706.91 387.677 705.095 387.677H699.082V394.129H704.393C706.295 394.129 707.744 393.866 708.739 393.339C709.734 392.813 710.231 391.993 710.231 390.881ZM740.964 396.193C740.964 398.153 740.701 399.894 740.174 401.416C739.677 402.908 738.945 404.181 737.98 405.235C737.043 406.288 735.887 407.093 734.512 407.649C733.166 408.176 731.659 408.439 729.991 408.439C728.44 408.439 727.006 408.176 725.689 407.649C724.372 407.093 723.231 406.288 722.266 405.235C721.3 404.181 720.539 402.908 719.983 401.416C719.456 399.894 719.193 398.153 719.193 396.193C719.193 393.588 719.632 391.393 720.51 389.608C721.388 387.794 722.646 386.419 724.285 385.482C725.923 384.517 727.869 384.034 730.123 384.034C732.259 384.034 734.132 384.517 735.741 385.482C737.38 386.419 738.653 387.794 739.56 389.608C740.496 391.393 740.964 393.588 740.964 396.193ZM723.187 396.193C723.187 398.036 723.421 399.646 723.89 401.021C724.387 402.367 725.148 403.406 726.172 404.137C727.196 404.869 728.499 405.235 730.079 405.235C731.659 405.235 732.961 404.869 733.985 404.137C735.009 403.406 735.756 402.367 736.224 401.021C736.721 399.646 736.97 398.036 736.97 396.193C736.97 394.32 736.721 392.725 736.224 391.408C735.726 390.091 734.966 389.082 733.941 388.379C732.946 387.648 731.644 387.282 730.035 387.282C727.635 387.282 725.894 388.072 724.811 389.652C723.729 391.232 723.187 393.413 723.187 396.193ZM756.523 408.439C754.446 408.439 752.588 408.015 750.949 407.166C749.34 406.317 748.067 405.001 747.13 403.216C746.223 401.431 745.769 399.148 745.769 396.368C745.769 393.471 746.252 391.115 747.218 389.301C748.184 387.487 749.486 386.155 751.125 385.307C752.792 384.458 754.68 384.034 756.787 384.034C757.987 384.034 759.142 384.166 760.254 384.429C761.366 384.663 762.274 384.956 762.976 385.307L761.791 388.511C761.088 388.248 760.269 387.999 759.333 387.765C758.396 387.531 757.518 387.414 756.699 387.414C755.119 387.414 753.817 387.75 752.792 388.423C751.768 389.096 751.007 390.091 750.51 391.408C750.013 392.725 749.764 394.364 749.764 396.324C749.764 398.197 750.013 399.792 750.51 401.109C751.007 402.425 751.754 403.42 752.749 404.093C753.744 404.766 754.987 405.103 756.48 405.103C757.767 405.103 758.894 404.971 759.859 404.708C760.854 404.445 761.762 404.123 762.581 403.742V407.166C761.791 407.576 760.913 407.883 759.947 408.088C759.011 408.322 757.87 408.439 756.523 408.439ZM784.417 387.721H776.735V408H772.917V387.721H765.323V384.473H784.417V387.721ZM792.695 398.826C792.695 399.09 792.68 399.47 792.651 399.967C792.651 400.436 792.636 400.948 792.607 401.504C792.577 402.03 792.548 402.543 792.519 403.04C792.49 403.508 792.46 403.889 792.431 404.181L805.029 384.473H809.769V408H806.17V394.129C806.17 393.661 806.17 393.047 806.17 392.286C806.199 391.525 806.229 390.779 806.258 390.047C806.287 389.287 806.316 388.716 806.346 388.335L793.836 408H789.051V384.473H792.695V398.826ZM832.302 398.826C832.302 399.09 832.287 399.47 832.258 399.967C832.258 400.436 832.243 400.948 832.214 401.504C832.185 402.03 832.156 402.543 832.126 403.04C832.097 403.508 832.068 403.889 832.039 404.181L844.636 384.473H849.377V408H845.777V394.129C845.777 393.661 845.777 393.047 845.777 392.286C845.807 391.525 845.836 390.779 845.865 390.047C845.895 389.287 845.924 388.716 845.953 388.335L833.443 408H828.659V384.473H832.302V398.826ZM893.505 384.473V408H890.038V392.988C890.038 392.374 890.052 391.73 890.082 391.057C890.14 390.384 890.199 389.725 890.257 389.082H890.126L882.444 408H879.196L871.734 389.082H871.602C871.661 389.725 871.69 390.384 871.69 391.057C871.719 391.73 871.734 392.418 871.734 393.12V408H868.266V384.473H873.402L880.82 403.391L888.37 384.473H893.505ZM904.878 384.473V394.261H917.651V384.473H921.514V408H917.651V397.509H904.878V408H901.015V384.473H904.878ZM949.418 396.193C949.418 398.153 949.155 399.894 948.628 401.416C948.131 402.908 947.399 404.181 946.433 405.235C945.497 406.288 944.341 407.093 942.966 407.649C941.62 408.176 940.113 408.439 938.445 408.439C936.894 408.439 935.46 408.176 934.143 407.649C932.826 407.093 931.685 406.288 930.719 405.235C929.754 404.181 928.993 402.908 928.437 401.416C927.91 399.894 927.647 398.153 927.647 396.193C927.647 393.588 928.086 391.393 928.964 389.608C929.841 387.794 931.1 386.419 932.738 385.482C934.377 384.517 936.323 384.034 938.576 384.034C940.712 384.034 942.585 384.517 944.195 385.482C945.833 386.419 947.106 387.794 948.014 389.608C948.95 391.393 949.418 393.588 949.418 396.193ZM931.641 396.193C931.641 398.036 931.875 399.646 932.343 401.021C932.841 402.367 933.602 403.406 934.626 404.137C935.65 404.869 936.952 405.235 938.532 405.235C940.113 405.235 941.415 404.869 942.439 404.137C943.463 403.406 944.209 402.367 944.678 401.021C945.175 399.646 945.424 398.036 945.424 396.193C945.424 394.32 945.175 392.725 944.678 391.408C944.18 390.091 943.419 389.082 942.395 388.379C941.4 387.648 940.098 387.282 938.489 387.282C936.089 387.282 934.348 388.072 933.265 389.652C932.182 391.232 931.641 393.413 931.641 396.193ZM969.893 384.473V387.721H959.403V408H955.54V384.473H969.893ZM994.555 396.193C994.555 398.153 994.292 399.894 993.765 401.416C993.268 402.908 992.536 404.181 991.57 405.235C990.634 406.288 989.478 407.093 988.103 407.649C986.757 408.176 985.25 408.439 983.582 408.439C982.031 408.439 980.597 408.176 979.28 407.649C977.963 407.093 976.822 406.288 975.856 405.235C974.891 404.181 974.13 402.908 973.574 401.416C973.047 399.894 972.784 398.153 972.784 396.193C972.784 393.588 973.223 391.393 974.101 389.608C974.979 387.794 976.237 386.419 977.876 385.482C979.514 384.517 981.46 384.034 983.713 384.034C985.85 384.034 987.722 384.517 989.332 385.482C990.971 386.419 992.243 387.794 993.151 389.608C994.087 391.393 994.555 393.588 994.555 396.193ZM976.778 396.193C976.778 398.036 977.012 399.646 977.48 401.021C977.978 402.367 978.739 403.406 979.763 404.137C980.787 404.869 982.089 405.235 983.67 405.235C985.25 405.235 986.552 404.869 987.576 404.137C988.6 403.406 989.346 402.367 989.815 401.021C990.312 399.646 990.561 398.036 990.561 396.193C990.561 394.32 990.312 392.725 989.815 391.408C989.317 390.091 988.556 389.082 987.532 388.379C986.537 387.648 985.235 387.282 983.626 387.282C981.226 387.282 979.485 388.072 978.402 389.652C977.32 391.232 976.778 393.413 976.778 396.193ZM1009.76 384.034C1011.78 384.034 1013.51 384.473 1014.94 385.351C1016.41 386.229 1017.52 387.472 1018.28 389.082C1019.07 390.662 1019.46 392.52 1019.46 394.656V396.983H1003.35C1003.41 399.646 1004.09 401.679 1005.37 403.084C1006.69 404.459 1008.52 405.147 1010.86 405.147C1012.35 405.147 1013.67 405.015 1014.81 404.752C1015.98 404.459 1017.18 404.05 1018.41 403.523V406.903C1017.21 407.429 1016.03 407.81 1014.85 408.044C1013.68 408.307 1012.29 408.439 1010.68 408.439C1008.46 408.439 1006.49 407.985 1004.76 407.078C1003.06 406.171 1001.73 404.825 1000.76 403.04C999.828 401.226 999.36 399.016 999.36 396.412C999.36 393.837 999.785 391.628 1000.63 389.784C1001.51 387.94 1002.73 386.521 1004.28 385.526C1005.86 384.531 1007.69 384.034 1009.76 384.034ZM1009.72 387.194C1007.88 387.194 1006.41 387.794 1005.33 388.994C1004.28 390.164 1003.65 391.803 1003.44 393.91H1015.43C1015.43 392.564 1015.22 391.393 1014.81 390.399C1014.4 389.404 1013.77 388.628 1012.92 388.072C1012.1 387.487 1011.04 387.194 1009.72 387.194ZM1054.33 384.473V404.752H1057.75V416.164H1054.02V408H1037.65V416.164H1033.96V404.752H1035.85C1037.19 402.879 1038.3 400.845 1039.18 398.651C1040.09 396.427 1040.76 394.115 1041.2 391.715C1041.67 389.287 1041.92 386.872 1041.95 384.473H1054.33ZM1045.37 387.501C1045.25 389.491 1044.95 391.554 1044.45 393.691C1043.95 395.797 1043.31 397.817 1042.52 399.748C1041.76 401.679 1040.86 403.347 1039.84 404.752H1050.59V387.501H1045.37ZM1073.55 384.034C1076.45 384.034 1078.78 385.043 1080.53 387.063C1082.32 389.082 1083.21 392.125 1083.21 396.193C1083.21 398.855 1082.8 401.109 1081.98 402.952C1081.19 404.766 1080.06 406.142 1078.6 407.078C1077.17 407.985 1075.47 408.439 1073.51 408.439C1072.31 408.439 1071.24 408.278 1070.3 407.956C1069.37 407.634 1068.56 407.225 1067.89 406.727C1067.25 406.2 1066.69 405.63 1066.22 405.015H1065.96C1066.02 405.513 1066.08 406.142 1066.14 406.903C1066.19 407.663 1066.22 408.322 1066.22 408.878V418.535H1062.36V384.473H1065.52L1066.05 387.677H1066.22C1066.69 387.004 1067.25 386.39 1067.89 385.834C1068.56 385.278 1069.35 384.839 1070.26 384.517C1071.2 384.195 1072.29 384.034 1073.55 384.034ZM1072.85 387.282C1071.27 387.282 1070 387.589 1069.03 388.204C1068.07 388.789 1067.36 389.682 1066.93 390.881C1066.49 392.081 1066.25 393.603 1066.22 395.446V396.193C1066.22 398.124 1066.43 399.763 1066.84 401.109C1067.25 402.455 1067.93 403.479 1068.9 404.181C1069.9 404.884 1071.24 405.235 1072.94 405.235C1074.37 405.235 1075.54 404.84 1076.45 404.05C1077.39 403.259 1078.07 402.191 1078.51 400.845C1078.98 399.47 1079.22 397.904 1079.22 396.149C1079.22 393.456 1078.69 391.306 1077.64 389.696C1076.61 388.087 1075.02 387.282 1072.85 387.282ZM1085.25 384.473H1089.38L1094.47 397.86C1094.76 398.651 1095.02 399.411 1095.26 400.143C1095.52 400.875 1095.75 401.591 1095.96 402.294C1096.16 402.967 1096.33 403.625 1096.44 404.269H1096.62C1096.79 403.537 1097.07 402.586 1097.45 401.416C1097.83 400.216 1098.23 399.016 1098.64 397.817L1103.42 384.473H1107.59L1097.45 411.248C1096.9 412.711 1096.24 413.984 1095.48 415.067C1094.75 416.179 1093.84 417.028 1092.76 417.613C1091.7 418.227 1090.41 418.535 1088.89 418.535C1088.19 418.535 1087.58 418.491 1087.05 418.403C1086.52 418.344 1086.07 418.271 1085.69 418.183V415.111C1086.01 415.169 1086.39 415.228 1086.83 415.286C1087.3 415.345 1087.78 415.374 1088.28 415.374C1089.19 415.374 1089.96 415.199 1090.6 414.847C1091.28 414.526 1091.85 414.043 1092.32 413.399C1092.78 412.784 1093.18 412.053 1093.5 411.204L1094.73 408.088L1085.25 384.473ZM1125.67 384.473V387.721H1115.17V408H1111.31V384.473H1125.67ZM1150.33 396.193C1150.33 398.153 1150.06 399.894 1149.54 401.416C1149.04 402.908 1148.31 404.181 1147.34 405.235C1146.41 406.288 1145.25 407.093 1143.88 407.649C1142.53 408.176 1141.02 408.439 1139.35 408.439C1137.8 408.439 1136.37 408.176 1135.05 407.649C1133.74 407.093 1132.59 406.288 1131.63 405.235C1130.66 404.181 1129.9 402.908 1129.35 401.416C1128.82 399.894 1128.56 398.153 1128.56 396.193C1128.56 393.588 1129 391.393 1129.87 389.608C1130.75 387.794 1132.01 386.419 1133.65 385.482C1135.29 384.517 1137.23 384.034 1139.49 384.034C1141.62 384.034 1143.49 384.517 1145.1 385.482C1146.74 386.419 1148.02 387.794 1148.92 389.608C1149.86 391.393 1150.33 393.588 1150.33 396.193ZM1132.55 396.193C1132.55 398.036 1132.78 399.646 1133.25 401.021C1133.75 402.367 1134.51 403.406 1135.54 404.137C1136.56 404.869 1137.86 405.235 1139.44 405.235C1141.02 405.235 1142.32 404.869 1143.35 404.137C1144.37 403.406 1145.12 402.367 1145.59 401.021C1146.08 399.646 1146.33 398.036 1146.33 396.193C1146.33 394.32 1146.08 392.725 1145.59 391.408C1145.09 390.091 1144.33 389.082 1143.3 388.379C1142.31 387.648 1141.01 387.282 1139.4 387.282C1137 387.282 1135.26 388.072 1134.17 389.652C1133.09 391.232 1132.55 393.413 1132.55 396.193ZM1165.54 384.034C1167.55 384.034 1169.28 384.473 1170.71 385.351C1172.18 386.229 1173.29 387.472 1174.05 389.082C1174.84 390.662 1175.24 392.52 1175.24 394.656V396.983H1159.13C1159.19 399.646 1159.86 401.679 1161.15 403.084C1162.46 404.459 1164.29 405.147 1166.63 405.147C1168.13 405.147 1169.44 405.015 1170.58 404.752C1171.75 404.459 1172.95 404.05 1174.18 403.523V406.903C1172.98 407.429 1171.8 407.81 1170.63 408.044C1169.46 408.307 1168.07 408.439 1166.46 408.439C1164.23 408.439 1162.26 407.985 1160.53 407.078C1158.83 406.171 1157.5 404.825 1156.54 403.04C1155.6 401.226 1155.13 399.016 1155.13 396.412C1155.13 393.837 1155.56 391.628 1156.41 389.784C1157.28 387.94 1158.5 386.521 1160.05 385.526C1161.63 384.531 1163.46 384.034 1165.54 384.034ZM1165.49 387.194C1163.65 387.194 1162.18 387.794 1161.1 388.994C1160.05 390.164 1159.42 391.803 1159.21 393.91H1171.2C1171.2 392.564 1170.99 391.393 1170.58 390.399C1170.17 389.404 1169.54 388.628 1168.7 388.072C1167.88 387.487 1166.81 387.194 1165.49 387.194ZM1182.81 408.307C1181.9 408.307 1181.14 408 1180.52 407.385C1179.91 406.771 1179.6 406.01 1179.6 405.103C1179.6 404.196 1179.91 403.435 1180.52 402.821C1181.14 402.206 1181.9 401.899 1182.81 401.899C1183.68 401.899 1184.43 402.206 1185.04 402.821C1185.66 403.435 1185.97 404.196 1185.97 405.103C1185.97 406.01 1185.66 406.771 1185.04 407.385C1184.43 408 1183.68 408.307 1182.81 408.307ZM453.952 470.826C453.952 471.09 453.937 471.47 453.908 471.967C453.908 472.436 453.893 472.948 453.864 473.504C453.835 474.03 453.806 474.543 453.776 475.04C453.747 475.508 453.718 475.889 453.689 476.181L466.286 456.473H471.027V480H467.427V466.129C467.427 465.661 467.427 465.047 467.427 464.286C467.457 463.525 467.486 462.779 467.515 462.047C467.544 461.287 467.574 460.716 467.603 460.335L455.093 480H450.309V456.473H453.952V470.826ZM482.377 456.473V466.261H495.15V456.473H499.013V480H495.15V469.509H482.377V480H478.514V456.473H482.377ZM522.703 459.721H515.022V480H511.203V459.721H503.609V456.473H522.703V459.721ZM535.995 456.034C538.014 456.034 539.741 456.473 541.174 457.351C542.638 458.229 543.75 459.472 544.51 461.082C545.301 462.662 545.696 464.52 545.696 466.656V468.983H529.586C529.645 471.646 530.318 473.679 531.606 475.084C532.922 476.459 534.751 477.147 537.092 477.147C538.585 477.147 539.902 477.015 541.043 476.752C542.213 476.459 543.413 476.05 544.642 475.523V478.903C543.442 479.429 542.257 479.81 541.087 480.044C539.916 480.307 538.526 480.439 536.917 480.439C534.693 480.439 532.718 479.985 530.991 479.078C529.294 478.171 527.962 476.825 526.997 475.04C526.06 473.226 525.592 471.016 525.592 468.412C525.592 465.837 526.016 463.628 526.865 461.784C527.743 459.94 528.957 458.521 530.508 457.526C532.088 456.531 533.917 456.034 535.995 456.034ZM535.951 459.194C534.108 459.194 532.644 459.794 531.562 460.994C530.508 462.164 529.879 463.803 529.674 465.91H541.657C541.657 464.564 541.452 463.393 541.043 462.399C540.633 461.404 540.004 460.628 539.155 460.072C538.336 459.487 537.268 459.194 535.951 459.194ZM562.878 456.034C565.775 456.034 568.101 457.043 569.857 459.063C571.642 461.082 572.535 464.125 572.535 468.193C572.535 470.855 572.125 473.109 571.306 474.952C570.516 476.766 569.389 478.142 567.926 479.078C566.492 479.985 564.795 480.439 562.834 480.439C561.634 480.439 560.566 480.278 559.63 479.956C558.693 479.634 557.889 479.225 557.216 478.727C556.572 478.2 556.016 477.63 555.548 477.015H555.284C555.343 477.513 555.401 478.142 555.46 478.903C555.518 479.663 555.548 480.322 555.548 480.878V490.535H551.685V456.473H554.845L555.372 459.677H555.548C556.016 459.004 556.572 458.39 557.216 457.834C557.889 457.278 558.679 456.839 559.586 456.517C560.522 456.195 561.62 456.034 562.878 456.034ZM562.176 459.282C560.596 459.282 559.323 459.589 558.357 460.204C557.391 460.789 556.689 461.682 556.25 462.881C555.811 464.081 555.577 465.603 555.548 467.446V468.193C555.548 470.124 555.753 471.763 556.162 473.109C556.572 474.455 557.26 475.479 558.225 476.181C559.22 476.884 560.566 477.235 562.264 477.235C563.697 477.235 564.868 476.84 565.775 476.05C566.711 475.259 567.399 474.191 567.838 472.845C568.306 471.47 568.54 469.904 568.54 468.149C568.54 465.456 568.014 463.306 566.96 461.696C565.936 460.087 564.341 459.282 562.176 459.282ZM587.776 456.034C589.795 456.034 591.522 456.473 592.956 457.351C594.419 458.229 595.531 459.472 596.292 461.082C597.082 462.662 597.477 464.52 597.477 466.656V468.983H581.368C581.426 471.646 582.099 473.679 583.387 475.084C584.704 476.459 586.533 477.147 588.874 477.147C590.366 477.147 591.683 477.015 592.824 476.752C593.995 476.459 595.194 476.05 596.423 475.523V478.903C595.224 479.429 594.038 479.81 592.868 480.044C591.697 480.307 590.307 480.439 588.698 480.439C586.474 480.439 584.499 479.985 582.772 479.078C581.075 478.171 579.744 476.825 578.778 475.04C577.842 473.226 577.373 471.016 577.373 468.412C577.373 465.837 577.798 463.628 578.646 461.784C579.524 459.94 580.739 458.521 582.289 457.526C583.87 456.531 585.699 456.034 587.776 456.034ZM587.732 459.194C585.889 459.194 584.426 459.794 583.343 460.994C582.289 462.164 581.66 463.803 581.455 465.91H593.439C593.439 464.564 593.234 463.393 592.824 462.399C592.414 461.404 591.785 460.628 590.937 460.072C590.117 459.487 589.049 459.194 587.732 459.194ZM612.903 480.439C610.826 480.439 608.968 480.015 607.329 479.166C605.72 478.317 604.447 477.001 603.51 475.216C602.603 473.431 602.149 471.148 602.149 468.368C602.149 465.471 602.632 463.115 603.598 461.301C604.564 459.487 605.866 458.155 607.505 457.307C609.173 456.458 611.06 456.034 613.167 456.034C614.367 456.034 615.523 456.166 616.634 456.429C617.746 456.663 618.654 456.956 619.356 457.307L618.171 460.511C617.468 460.248 616.649 459.999 615.713 459.765C614.776 459.531 613.898 459.414 613.079 459.414C611.499 459.414 610.197 459.75 609.173 460.423C608.148 461.096 607.387 462.091 606.89 463.408C606.393 464.725 606.144 466.364 606.144 468.324C606.144 470.197 606.393 471.792 606.89 473.109C607.387 474.425 608.134 475.42 609.129 476.093C610.124 476.766 611.367 477.103 612.86 477.103C614.147 477.103 615.274 476.971 616.239 476.708C617.234 476.445 618.142 476.123 618.961 475.742V479.166C618.171 479.576 617.293 479.883 616.327 480.088C615.391 480.322 614.25 480.439 612.903 480.439ZM628.419 456.473V466.261H641.192V456.473H645.054V480H641.192V469.509H628.419V480H624.556V456.473H628.419ZM652.504 480V456.473H656.367V466.129H662.468C664.516 466.129 666.199 466.378 667.516 466.876C668.833 467.373 669.813 468.119 670.457 469.114C671.101 470.08 671.422 471.309 671.422 472.801C671.422 474.265 671.101 475.537 670.457 476.62C669.842 477.703 668.862 478.537 667.516 479.122C666.199 479.707 664.458 480 662.292 480H652.504ZM661.941 476.884C663.609 476.884 664.97 476.606 666.023 476.05C667.077 475.464 667.604 474.455 667.604 473.021C667.604 471.587 667.121 470.621 666.155 470.124C665.189 469.597 663.8 469.334 661.985 469.334H656.367V476.884H661.941ZM675.329 480V456.473H679.192V480H675.329ZM695.754 456.034C697.773 456.034 699.499 456.473 700.933 457.351C702.396 458.229 703.508 459.472 704.269 461.082C705.059 462.662 705.454 464.52 705.454 466.656V468.983H689.345C689.404 471.646 690.077 473.679 691.364 475.084C692.681 476.459 694.51 477.147 696.851 477.147C698.344 477.147 699.66 477.015 700.802 476.752C701.972 476.459 703.172 476.05 704.401 475.523V478.903C703.201 479.429 702.016 479.81 700.845 480.044C699.675 480.307 698.285 480.439 696.676 480.439C694.452 480.439 692.476 479.985 690.75 479.078C689.053 478.171 687.721 476.825 686.755 475.04C685.819 473.226 685.351 471.016 685.351 468.412C685.351 465.837 685.775 463.628 686.624 461.784C687.502 459.94 688.716 458.521 690.267 457.526C691.847 456.531 693.676 456.034 695.754 456.034ZM695.71 459.194C693.866 459.194 692.403 459.794 691.32 460.994C690.267 462.164 689.638 463.803 689.433 465.91H701.416C701.416 464.564 701.211 463.393 700.802 462.399C700.392 461.404 699.763 460.628 698.914 460.072C698.095 459.487 697.027 459.194 695.71 459.194ZM742.73 456.473V480H738.867V459.765H726.709V480H722.846V456.473H742.73ZM761.43 456.034C764.327 456.034 766.653 457.043 768.409 459.063C770.194 461.082 771.087 464.125 771.087 468.193C771.087 470.855 770.677 473.109 769.858 474.952C769.067 476.766 767.941 478.142 766.478 479.078C765.044 479.985 763.347 480.439 761.386 480.439C760.186 480.439 759.118 480.278 758.182 479.956C757.245 479.634 756.441 479.225 755.768 478.727C755.124 478.2 754.568 477.63 754.1 477.015H753.836C753.895 477.513 753.953 478.142 754.012 478.903C754.07 479.663 754.1 480.322 754.1 480.878V490.535H750.237V456.473H753.397L753.924 459.677H754.1C754.568 459.004 755.124 458.39 755.768 457.834C756.441 457.278 757.231 456.839 758.138 456.517C759.074 456.195 760.172 456.034 761.43 456.034ZM760.728 459.282C759.147 459.282 757.874 459.589 756.909 460.204C755.943 460.789 755.241 461.682 754.802 462.881C754.363 464.081 754.129 465.603 754.1 467.446V468.193C754.1 470.124 754.304 471.763 754.714 473.109C755.124 474.455 755.811 475.479 756.777 476.181C757.772 476.884 759.118 477.235 760.815 477.235C762.249 477.235 763.42 476.84 764.327 476.05C765.263 475.259 765.951 474.191 766.39 472.845C766.858 471.47 767.092 469.904 767.092 468.149C767.092 465.456 766.565 463.306 765.512 461.696C764.488 460.087 762.893 459.282 760.728 459.282ZM786.328 456.034C788.347 456.034 790.074 456.473 791.508 457.351C792.971 458.229 794.083 459.472 794.843 461.082C795.634 462.662 796.029 464.52 796.029 466.656V468.983H779.92C779.978 471.646 780.651 473.679 781.939 475.084C783.255 476.459 785.084 477.147 787.425 477.147C788.918 477.147 790.235 477.015 791.376 476.752C792.546 476.459 793.746 476.05 794.975 475.523V478.903C793.775 479.429 792.59 479.81 791.42 480.044C790.249 480.307 788.859 480.439 787.25 480.439C785.026 480.439 783.051 479.985 781.324 479.078C779.627 478.171 778.295 476.825 777.33 475.04C776.393 473.226 775.925 471.016 775.925 468.412C775.925 465.837 776.349 463.628 777.198 461.784C778.076 459.94 779.29 458.521 780.841 457.526C782.421 456.531 784.25 456.034 786.328 456.034ZM786.284 459.194C784.441 459.194 782.977 459.794 781.895 460.994C780.841 462.164 780.212 463.803 780.007 465.91H791.99C791.99 464.564 791.786 463.393 791.376 462.399C790.966 461.404 790.337 460.628 789.488 460.072C788.669 459.487 787.601 459.194 786.284 459.194ZM819.488 456.473V476.752H822.912V488.164H819.181V480H802.808V488.164H799.121V476.752H801.009C802.355 474.879 803.467 472.845 804.344 470.651C805.252 468.427 805.925 466.115 806.364 463.715C806.832 461.287 807.081 458.872 807.11 456.473H819.488ZM810.534 459.501C810.416 461.491 810.109 463.554 809.612 465.691C809.114 467.797 808.471 469.817 807.68 471.748C806.92 473.679 806.027 475.347 805.003 476.752H815.757V459.501H810.534ZM845.432 480H841.525V459.677H834.59C834.297 463.393 833.931 466.568 833.493 469.202C833.054 471.806 832.498 473.928 831.825 475.567C831.151 477.205 830.347 478.405 829.41 479.166C828.474 479.927 827.377 480.307 826.118 480.307C825.738 480.307 825.357 480.278 824.977 480.219C824.626 480.19 824.333 480.117 824.099 480V477.103C824.275 477.162 824.465 477.205 824.67 477.235C824.875 477.264 825.079 477.279 825.284 477.279C825.928 477.279 826.513 477.015 827.04 476.488C827.567 475.962 828.035 475.157 828.445 474.074C828.884 472.992 829.279 471.631 829.63 469.992C829.981 468.324 830.288 466.364 830.552 464.11C830.815 461.857 831.049 459.311 831.254 456.473H845.432V480ZM873.354 468.193C873.354 470.153 873.09 471.894 872.564 473.416C872.066 474.908 871.335 476.181 870.369 477.235C869.433 478.288 868.277 479.093 866.901 479.649C865.555 480.176 864.048 480.439 862.38 480.439C860.829 480.439 859.395 480.176 858.079 479.649C856.762 479.093 855.621 478.288 854.655 477.235C853.689 476.181 852.928 474.908 852.372 473.416C851.846 471.894 851.582 470.153 851.582 468.193C851.582 465.588 852.021 463.393 852.899 461.608C853.777 459.794 855.035 458.419 856.674 457.482C858.313 456.517 860.259 456.034 862.512 456.034C864.648 456.034 866.521 456.517 868.13 457.482C869.769 458.419 871.042 459.794 871.949 461.608C872.886 463.393 873.354 465.588 873.354 468.193ZM855.577 468.193C855.577 470.036 855.811 471.646 856.279 473.021C856.776 474.367 857.537 475.406 858.561 476.137C859.586 476.869 860.888 477.235 862.468 477.235C864.048 477.235 865.35 476.869 866.375 476.137C867.399 475.406 868.145 474.367 868.613 473.021C869.111 471.646 869.359 470.036 869.359 468.193C869.359 466.32 869.111 464.725 868.613 463.408C868.116 462.091 867.355 461.082 866.331 460.379C865.336 459.648 864.034 459.282 862.424 459.282C860.025 459.282 858.283 460.072 857.201 461.652C856.118 463.232 855.577 465.413 855.577 468.193ZM906.842 456.473L897.142 467.885L907.676 480H903.287L893.103 468.061V480H889.504V468.061L879.321 480H874.931L885.466 467.885L875.765 456.473H879.979L889.504 467.885V456.473H893.103V467.885L902.672 456.473H906.842ZM919.768 456.034C921.787 456.034 923.513 456.473 924.947 457.351C926.41 458.229 927.522 459.472 928.283 461.082C929.073 462.662 929.468 464.52 929.468 466.656V468.983H913.359C913.418 471.646 914.091 473.679 915.378 475.084C916.695 476.459 918.524 477.147 920.865 477.147C922.357 477.147 923.674 477.015 924.815 476.752C925.986 476.459 927.186 476.05 928.415 475.523V478.903C927.215 479.429 926.03 479.81 924.859 480.044C923.689 480.307 922.299 480.439 920.689 480.439C918.465 480.439 916.49 479.985 914.764 479.078C913.066 478.171 911.735 476.825 910.769 475.04C909.833 473.226 909.365 471.016 909.365 468.412C909.365 465.837 909.789 463.628 910.638 461.784C911.515 459.94 912.73 458.521 914.281 457.526C915.861 456.531 917.69 456.034 919.768 456.034ZM919.724 459.194C917.88 459.194 916.417 459.794 915.334 460.994C914.281 462.164 913.652 463.803 913.447 465.91H925.43C925.43 464.564 925.225 463.393 924.815 462.399C924.406 461.404 923.777 460.628 922.928 460.072C922.109 459.487 921.04 459.194 919.724 459.194ZM939.32 456.473V466.261H952.093V456.473H955.956V480H952.093V469.509H939.32V480H935.458V456.473H939.32ZM967.049 470.826C967.049 471.09 967.034 471.47 967.005 471.967C967.005 472.436 966.99 472.948 966.961 473.504C966.932 474.03 966.903 474.543 966.873 475.04C966.844 475.508 966.815 475.889 966.786 476.181L979.383 456.473H984.124V480H980.524V466.129C980.524 465.661 980.524 465.047 980.524 464.286C980.554 463.525 980.583 462.779 980.612 462.047C980.641 461.287 980.671 460.716 980.7 460.335L968.19 480H963.406V456.473H967.049V470.826ZM993.06 480H988.582L995.298 470.124C994.391 469.89 993.513 469.524 992.665 469.026C991.816 468.5 991.128 467.783 990.601 466.876C990.075 465.939 989.811 464.783 989.811 463.408C989.811 461.155 990.572 459.443 992.094 458.272C993.616 457.073 995.635 456.473 998.151 456.473H1008.69V480H1004.82V470.651H999.117L993.06 480ZM993.542 463.452C993.542 464.798 994.04 465.808 995.035 466.481C996.059 467.124 997.478 467.446 999.293 467.446H1004.82V459.677H998.546C996.761 459.677 995.474 460.028 994.684 460.731C993.923 461.433 993.542 462.34 993.542 463.452ZM1047.99 468.193C1047.99 470.153 1047.72 471.894 1047.2 473.416C1046.7 474.908 1045.97 476.181 1045 477.235C1044.07 478.288 1042.91 479.093 1041.53 479.649C1040.19 480.176 1038.68 480.439 1037.01 480.439C1035.46 480.439 1034.03 480.176 1032.71 479.649C1031.39 479.093 1030.25 478.288 1029.29 477.235C1028.32 476.181 1027.56 474.908 1027.01 473.416C1026.48 471.894 1026.22 470.153 1026.22 468.193C1026.22 465.588 1026.65 463.393 1027.53 461.608C1028.41 459.794 1029.67 458.419 1031.31 457.482C1032.95 456.517 1034.89 456.034 1037.14 456.034C1039.28 456.034 1041.15 456.517 1042.76 457.482C1044.4 458.419 1045.67 459.794 1046.58 461.608C1047.52 463.393 1047.99 465.588 1047.99 468.193ZM1030.21 468.193C1030.21 470.036 1030.44 471.646 1030.91 473.021C1031.41 474.367 1032.17 475.406 1033.19 476.137C1034.22 476.869 1035.52 477.235 1037.1 477.235C1038.68 477.235 1039.98 476.869 1041.01 476.137C1042.03 475.406 1042.78 474.367 1043.25 473.021C1043.74 471.646 1043.99 470.036 1043.99 468.193C1043.99 466.32 1043.74 464.725 1043.25 463.408C1042.75 462.091 1041.99 461.082 1040.96 460.379C1039.97 459.648 1038.67 459.282 1037.06 459.282C1034.66 459.282 1032.92 460.072 1031.83 461.652C1030.75 463.232 1030.21 465.413 1030.21 468.193ZM1069.37 456.473V466.261H1082.15V456.473H1086.01V480H1082.15V469.509H1069.37V480H1065.51V456.473H1069.37ZM1102.37 456.078C1105.24 456.078 1107.36 456.707 1108.73 457.965C1110.11 459.223 1110.8 461.228 1110.8 463.979V480H1107.99L1107.24 476.664H1107.07C1106.39 477.513 1105.69 478.23 1104.96 478.815C1104.26 479.371 1103.44 479.781 1102.5 480.044C1101.59 480.307 1100.48 480.439 1099.17 480.439C1097.76 480.439 1096.49 480.19 1095.35 479.693C1094.23 479.195 1093.36 478.434 1092.71 477.41C1092.07 476.357 1091.75 475.04 1091.75 473.46C1091.75 471.119 1092.67 469.319 1094.51 468.061C1096.36 466.773 1099.19 466.071 1103.03 465.954L1107.02 465.822V464.418C1107.02 462.457 1106.6 461.096 1105.75 460.335C1104.9 459.575 1103.7 459.194 1102.15 459.194C1100.92 459.194 1099.75 459.384 1098.64 459.765C1097.53 460.116 1096.49 460.526 1095.52 460.994L1094.34 458.097C1095.36 457.541 1096.58 457.073 1097.98 456.692C1099.38 456.283 1100.85 456.078 1102.37 456.078ZM1103.51 468.631C1100.58 468.749 1098.55 469.217 1097.41 470.036C1096.3 470.855 1095.74 472.011 1095.74 473.504C1095.74 474.821 1096.14 475.786 1096.93 476.401C1097.75 477.015 1098.78 477.322 1100.04 477.322C1102.03 477.322 1103.69 476.781 1105 475.698C1106.32 474.586 1106.98 472.889 1106.98 470.607V468.5L1103.51 468.631ZM1127.5 480.439C1125.42 480.439 1123.56 480.015 1121.93 479.166C1120.32 478.317 1119.04 477.001 1118.11 475.216C1117.2 473.431 1116.75 471.148 1116.75 468.368C1116.75 465.471 1117.23 463.115 1118.2 461.301C1119.16 459.487 1120.46 458.155 1122.1 457.307C1123.77 456.458 1125.66 456.034 1127.76 456.034C1128.96 456.034 1130.12 456.166 1131.23 456.429C1132.34 456.663 1133.25 456.956 1133.95 457.307L1132.77 460.511C1132.07 460.248 1131.25 459.999 1130.31 459.765C1129.37 459.531 1128.5 459.414 1127.68 459.414C1126.1 459.414 1124.79 459.75 1123.77 460.423C1122.75 461.096 1121.98 462.091 1121.49 463.408C1120.99 464.725 1120.74 466.364 1120.74 468.324C1120.74 470.197 1120.99 471.792 1121.49 473.109C1121.98 474.425 1122.73 475.42 1123.73 476.093C1124.72 476.766 1125.96 477.103 1127.46 477.103C1128.74 477.103 1129.87 476.971 1130.84 476.708C1131.83 476.445 1132.74 476.123 1133.56 475.742V479.166C1132.77 479.576 1131.89 479.883 1130.92 480.088C1129.99 480.322 1128.85 480.439 1127.5 480.439Z" fill="#2F4557"/>
<circle cx="1547.56" cy="46.5543" r="46.5543" fill="#029BC5"/>
<path d="M1570.98 31.9105C1571.9 33.5032 1571.77 35.3997 1570.66 36.8594L1546.08 68.9248C1545.07 70.2471 1543.4 70.9212 1541.7 70.5937C1540.02 70.2724 1538.7 69.0544 1538.24 67.4163L1534.6 54.4761L1534.23 53.1301L1533.25 52.1292L1523.86 42.5104C1522.67 41.2932 1522.28 39.5369 1522.84 37.9292C1523.39 36.34 1524.77 35.1868 1526.48 34.9634L1566.53 29.7158C1568.36 29.4764 1570.06 30.3179 1570.98 31.9105Z" fill="white"/>
<path d="M1534.6 54.4755L1538.24 67.4158C1538.7 69.0539 1540.02 70.2718 1541.7 70.5932C1543.4 70.9208 1545.07 70.2466 1546.08 68.9243L1570.66 36.8589C1571.78 35.3992 1571.9 33.5027 1570.98 31.91L1534.23 53.1295L1534.6 54.4755Z" fill="white"/>
<path d="M1549.18 44.4939C1549.56 45.1415 1549.33 45.9703 1548.69 46.3448L1534.6 54.4748L1534.23 53.1288L1533.25 52.1279L1547.33 43.9979C1547.98 43.6236 1548.81 43.8462 1549.18 44.4939Z" fill="white"/>
<path d="M1534.6 54.4762L1548.69 46.3461C1549.33 45.9717 1549.56 45.143 1549.18 44.4952L1534.23 53.1302L1534.6 54.4762Z" fill="white"/>
<rect x="673" y="547" width="236" height="89" rx="13.3012" fill="#DF6951"/>
<path d="M728.912 587.136V600H726.8V588.936H720.152V600H718.04V587.136H728.912ZM744.201 593.544C744.201 594.616 744.057 595.568 743.769 596.4C743.497 597.216 743.097 597.912 742.569 598.488C742.057 599.064 741.425 599.504 740.673 599.808C739.937 600.096 739.113 600.24 738.201 600.24C737.353 600.24 736.569 600.096 735.849 599.808C735.129 599.504 734.505 599.064 733.977 598.488C733.449 597.912 733.033 597.216 732.729 596.4C732.441 595.568 732.297 594.616 732.297 593.544C732.297 592.12 732.537 590.92 733.017 589.944C733.497 588.952 734.185 588.2 735.081 587.688C735.977 587.16 737.041 586.896 738.273 586.896C739.441 586.896 740.465 587.16 741.345 587.688C742.241 588.2 742.937 588.952 743.433 589.944C743.945 590.92 744.201 592.12 744.201 593.544ZM734.481 593.544C734.481 594.552 734.609 595.432 734.865 596.184C735.137 596.92 735.553 597.488 736.113 597.888C736.673 598.288 737.385 598.488 738.249 598.488C739.113 598.488 739.825 598.288 740.385 597.888C740.945 597.488 741.353 596.92 741.609 596.184C741.881 595.432 742.017 594.552 742.017 593.544C742.017 592.52 741.881 591.648 741.609 590.928C741.337 590.208 740.921 589.656 740.361 589.272C739.817 588.872 739.105 588.672 738.225 588.672C736.913 588.672 735.961 589.104 735.369 589.968C734.777 590.832 734.481 592.024 734.481 593.544ZM757.1 587.136V598.224H758.972V604.464H756.932V600H747.98V604.464H745.964V598.224H746.996C747.732 597.2 748.34 596.088 748.82 594.888C749.316 593.672 749.684 592.408 749.924 591.096C750.18 589.768 750.316 588.448 750.332 587.136H757.1ZM752.204 588.792C752.14 589.88 751.972 591.008 751.7 592.176C751.428 593.328 751.076 594.432 750.644 595.488C750.228 596.544 749.74 597.456 749.18 598.224H755.06V588.792H752.204ZM772.365 587.136V600H770.253V588.936H763.605V600H761.493V587.136H772.365ZM778.462 594.984C778.462 595.128 778.454 595.336 778.438 595.608C778.438 595.864 778.43 596.144 778.414 596.448C778.398 596.736 778.382 597.016 778.366 597.288C778.35 597.544 778.334 597.752 778.318 597.912L785.206 587.136H787.798V600H785.83V592.416C785.83 592.16 785.83 591.824 785.83 591.408C785.846 590.992 785.862 590.584 785.878 590.184C785.894 589.768 785.91 589.456 785.926 589.248L779.086 600H776.47V587.136H778.462V594.984ZM797.052 600.24C795.916 600.24 794.9 600.008 794.004 599.544C793.124 599.08 792.428 598.36 791.916 597.384C791.42 596.408 791.172 595.16 791.172 593.64C791.172 592.056 791.436 590.768 791.964 589.776C792.492 588.784 793.204 588.056 794.1 587.592C795.012 587.128 796.044 586.896 797.196 586.896C797.852 586.896 798.484 586.968 799.092 587.112C799.7 587.24 800.196 587.4 800.58 587.592L799.932 589.344C799.548 589.2 799.1 589.064 798.588 588.936C798.076 588.808 797.596 588.744 797.148 588.744C796.284 588.744 795.572 588.928 795.012 589.296C794.452 589.664 794.036 590.208 793.764 590.928C793.492 591.648 793.356 592.544 793.356 593.616C793.356 594.64 793.492 595.512 793.764 596.232C794.036 596.952 794.444 597.496 794.988 597.864C795.532 598.232 796.212 598.416 797.028 598.416C797.732 598.416 798.348 598.344 798.876 598.2C799.42 598.056 799.916 597.88 800.364 597.672V599.544C799.932 599.768 799.452 599.936 798.924 600.048C798.412 600.176 797.788 600.24 797.052 600.24ZM808.295 586.92C809.863 586.92 811.023 587.264 811.775 587.952C812.527 588.64 812.903 589.736 812.903 591.24V600H811.367L810.959 598.176H810.863C810.495 598.64 810.111 599.032 809.711 599.352C809.327 599.656 808.879 599.88 808.367 600.024C807.871 600.168 807.263 600.24 806.543 600.24C805.775 600.24 805.079 600.104 804.455 599.832C803.847 599.56 803.367 599.144 803.015 598.584C802.663 598.008 802.487 597.288 802.487 596.424C802.487 595.144 802.991 594.16 803.999 593.472C805.007 592.768 806.559 592.384 808.655 592.32L810.839 592.248V591.48C810.839 590.408 810.607 589.664 810.143 589.248C809.679 588.832 809.023 588.624 808.175 588.624C807.503 588.624 806.863 588.728 806.255 588.936C805.647 589.128 805.079 589.352 804.551 589.608L803.903 588.024C804.463 587.72 805.127 587.464 805.895 587.256C806.663 587.032 807.463 586.92 808.295 586.92ZM808.919 593.784C807.319 593.848 806.207 594.104 805.583 594.552C804.975 595 804.671 595.632 804.671 596.448C804.671 597.168 804.887 597.696 805.319 598.032C805.767 598.368 806.335 598.536 807.023 598.536C808.111 598.536 809.015 598.24 809.735 597.648C810.455 597.04 810.815 596.112 810.815 594.864V593.712L808.919 593.784ZM825.756 588.912H821.556V600H819.468V588.912H815.316V587.136H825.756V588.912ZM834.218 592.416C835.338 592.416 836.266 592.552 837.002 592.824C837.738 593.096 838.29 593.504 838.658 594.048C839.042 594.576 839.234 595.248 839.234 596.064C839.234 596.864 839.05 597.56 838.682 598.152C838.33 598.744 837.778 599.2 837.026 599.52C836.274 599.84 835.306 600 834.122 600H828.29V587.136H830.402V592.416H834.218ZM837.122 596.184C837.122 595.4 836.842 594.872 836.282 594.6C835.738 594.312 834.97 594.168 833.978 594.168H830.402V598.296H834.026C834.922 598.296 835.658 598.136 836.234 597.816C836.826 597.496 837.122 596.952 837.122 596.184ZM847.7 600.24C846.564 600.24 845.548 600.008 844.652 599.544C843.772 599.08 843.076 598.36 842.564 597.384C842.068 596.408 841.82 595.16 841.82 593.64C841.82 592.056 842.084 590.768 842.612 589.776C843.14 588.784 843.852 588.056 844.748 587.592C845.66 587.128 846.692 586.896 847.844 586.896C848.5 586.896 849.132 586.968 849.74 587.112C850.348 587.24 850.844 587.4 851.228 587.592L850.58 589.344C850.196 589.2 849.748 589.064 849.236 588.936C848.724 588.808 848.244 588.744 847.796 588.744C846.932 588.744 846.22 588.928 845.66 589.296C845.1 589.664 844.684 590.208 844.412 590.928C844.14 591.648 844.004 592.544 844.004 593.616C844.004 594.64 844.14 595.512 844.412 596.232C844.684 596.952 845.092 597.496 845.636 597.864C846.18 598.232 846.86 598.416 847.676 598.416C848.38 598.416 848.996 598.344 849.524 598.2C850.068 598.056 850.564 597.88 851.012 597.672V599.544C850.58 599.768 850.1 599.936 849.572 600.048C849.06 600.176 848.436 600.24 847.7 600.24ZM854.863 600H852.415L856.087 594.6C855.591 594.472 855.111 594.272 854.647 594C854.183 593.712 853.807 593.32 853.519 592.824C853.231 592.312 853.087 591.68 853.087 590.928C853.087 589.696 853.503 588.76 854.335 588.12C855.167 587.464 856.271 587.136 857.647 587.136H863.407V600H861.295V594.888H858.175L854.863 600ZM855.127 590.952C855.127 591.688 855.399 592.24 855.943 592.608C856.503 592.96 857.279 593.136 858.271 593.136H861.295V588.888H857.863C856.887 588.888 856.183 589.08 855.751 589.464C855.335 589.848 855.127 590.344 855.127 590.952Z" fill="white"/>
</svg>
