<svg width="1805" height="652" viewBox="0 0 1805 652" fill="none" xmlns="http://www.w3.org/2000/svg">
<path d="M1616.36 633.702V636.188H1602.1V633.702H1616.36ZM1610.56 627.63V642.775H1607.91V627.63H1610.56Z" fill="#6246E5"/>
<path d="M1662.91 587.147V589.634H1648.65V587.147H1662.91ZM1657.11 581.075V596.221H1654.47V581.075H1657.11Z" fill="#6246E5"/>
<path d="M1709.47 447.485V449.971H1695.21V447.485H1709.47ZM1703.66 441.413V456.558H1701.02V441.413H1703.66Z" fill="#6246E5"/>
<path d="M1709.47 494.04V496.526H1695.21V494.04H1709.47ZM1703.66 487.967V503.113H1701.02V487.967H1703.66Z" fill="#6246E5"/>
<path d="M1709.47 540.594V543.08H1695.21V540.594H1709.47ZM1703.66 534.521V549.667H1701.02V534.521H1703.66Z" fill="#6246E5"/>
<path d="M1709.47 587.147V589.634H1695.21V587.147H1709.47ZM1703.66 581.075V596.221H1701.02V581.075H1703.66Z" fill="#6246E5"/>
<path d="M1709.47 633.702V636.188H1695.21V633.702H1709.47ZM1703.66 627.63V642.775H1701.02V627.63H1703.66Z" fill="#6246E5"/>
<path d="M1756.02 447.485V449.971H1741.76V447.485H1756.02ZM1750.22 441.413V456.558H1747.58V441.413H1750.22Z" fill="#6246E5"/>
<path d="M1756.02 494.04V496.526H1741.76V494.04H1756.02ZM1750.22 487.967V503.113H1747.58V487.967H1750.22Z" fill="#6246E5"/>
<path d="M1756.02 540.594V543.08H1741.76V540.594H1756.02ZM1750.22 534.521V549.667H1747.58V534.521H1750.22Z" fill="#6246E5"/>
<path d="M1756.02 587.147V589.634H1741.76V587.147H1756.02ZM1750.22 581.075V596.221H1747.58V581.075H1750.22Z" fill="#6246E5"/>
<path d="M1756.02 633.702V636.188H1741.76V633.702H1756.02ZM1750.22 627.63V642.775H1747.58V627.63H1750.22Z" fill="#6246E5"/>
<path d="M1802.57 447.485V449.971H1788.31V447.485H1802.57ZM1796.77 441.413V456.558H1794.13V441.413H1796.77Z" fill="#6246E5"/>
<path d="M1802.57 494.04V496.526H1788.31V494.04H1802.57ZM1796.77 487.967V503.113H1794.13V487.967H1796.77Z" fill="#6246E5"/>
<path d="M1802.57 540.594V543.08H1788.31V540.594H1802.57ZM1796.77 534.521V549.667H1794.13V534.521H1796.77Z" fill="#6246E5"/>
<path d="M1802.57 587.147V589.634H1788.31V587.147H1802.57ZM1796.77 581.075V596.221H1794.13V581.075H1796.77Z" fill="#6246E5"/>
<path d="M1802.57 633.702V636.188H1788.31V633.702H1802.57ZM1796.77 627.63V642.775H1794.13V627.63H1796.77Z" fill="#6246E5"/>
<path opacity="0.2" d="M1672.81 44.579C1672.81 29.8868 1660.9 17.9766 1646.21 17.9766H288.152C193.388 17.9766 116.567 94.7981 116.567 189.562V532.734C116.567 547.426 128.477 559.336 143.169 559.336H1646.21C1660.9 559.336 1672.81 547.426 1672.81 532.734V44.579Z" fill="#AD7BFF"/>
<g opacity="0.1">
<mask id="mask0_437_34" style="mask-type:alpha" maskUnits="userSpaceOnUse" x="1321" y="17" width="352" height="469">
<path d="M1322.32 18.6416H1640.89C1658.15 18.6416 1672.14 32.6362 1672.14 49.8995V484.878H1388.16C1351.8 484.878 1322.32 455.4 1322.32 419.037V18.6416Z" fill="#9177FF" stroke="#6246E5" stroke-width="1.33012"/>
</mask>
<g mask="url(#mask0_437_34)">
<path d="M1761.69 255.162C1761.69 322.601 1707.02 377.271 1639.58 377.271C1572.14 377.271 1517.47 322.601 1517.47 255.162C1517.47 187.722 1572.14 133.052 1639.58 133.052C1707.02 133.052 1761.69 187.722 1761.69 255.162Z" fill="#9177FF" stroke="#6246E5" stroke-width="1.33012"/>
<circle cx="1629.88" cy="242.238" r="136.649" fill="#9177FF" stroke="#6246E5" stroke-width="1.33012"/>
<circle cx="1621.81" cy="231.738" r="149.572" fill="#9177FF" stroke="#6246E5" stroke-width="1.33012"/>
<circle cx="1613.73" cy="216.39" r="160.881" fill="#9177FF" stroke="#6246E5" stroke-width="1.33012"/>
<circle cx="1606.06" cy="201.447" r="171.785" fill="#9177FF" stroke="#6246E5" stroke-width="1.33012"/>
<circle cx="1593.13" cy="184.485" r="188.747" fill="#9177FF" stroke="#6246E5" stroke-width="1.33012"/>
</g>
</g>
<g opacity="0.1">
<mask id="mask1_437_34" style="mask-type:alpha" maskUnits="userSpaceOnUse" x="0" y="79" width="640" height="481">
<rect x="638.639" y="79.8272" width="478.844" height="637.128" transform="rotate(90 638.639 79.8272)" fill="#9177FF" stroke="#6246E5" stroke-width="1.33012"/>
</mask>
<g mask="url(#mask1_437_34)">
<path d="M315.427 682.933C223.206 682.933 148.444 608.067 148.444 515.713C148.444 423.359 223.206 348.493 315.427 348.493C407.648 348.493 482.41 423.359 482.41 515.713C482.41 608.067 407.648 682.933 315.427 682.933Z" fill="#9177FF" stroke="#6246E5" stroke-width="1.33012"/>
<path d="M333.074 689.561C229.888 689.561 146.238 605.794 146.238 502.46C146.238 399.126 229.888 315.358 333.074 315.358C436.26 315.358 519.91 399.126 519.91 502.46C519.91 605.794 436.26 689.561 333.074 689.561Z" fill="#9177FF" stroke="#6246E5" stroke-width="1.33012"/>
<path d="M347.412 696.187C234.48 696.187 142.929 604.508 142.929 491.414C142.929 378.32 234.48 286.641 347.412 286.641C460.344 286.641 551.895 378.32 551.895 491.414C551.895 604.508 460.344 696.187 347.412 696.187Z" fill="#9177FF" stroke="#6246E5" stroke-width="1.33012"/>
<path d="M368.369 700.605C246.909 700.605 148.445 602.003 148.445 480.369C148.445 358.735 246.909 260.133 368.369 260.133C489.829 260.133 588.293 358.735 588.293 480.369C588.293 602.003 489.829 700.605 368.369 700.605Z" fill="#9177FF" stroke="#6246E5" stroke-width="1.33012"/>
<path d="M388.773 705.024C259.09 705.024 153.959 599.746 153.959 469.877C153.959 340.008 259.09 234.729 388.773 234.73C518.456 234.73 623.587 340.008 623.587 469.877C623.587 599.746 518.456 705.024 388.773 705.024Z" fill="#9177FF" stroke="#6246E5" stroke-width="1.33012"/>
<path d="M411.935 710.546C269.46 710.546 153.959 594.883 153.959 452.204C153.959 309.525 269.46 193.862 411.935 193.862C554.41 193.862 669.911 309.525 669.911 452.204C669.911 594.883 554.41 710.546 411.935 710.546Z" fill="#9177FF" stroke="#6246E5" stroke-width="1.33012"/>
</g>
</g>
<path d="M727.391 149.057V117.716H752.191V149.057H745.563V123.247H734.019V149.057H727.391ZM781.341 137.03C781.341 139.02 781.063 140.79 780.507 142.341C779.981 143.892 779.205 145.209 778.181 146.291C777.186 147.345 775.972 148.149 774.538 148.705C773.104 149.232 771.48 149.496 769.666 149.496C767.998 149.496 766.447 149.232 765.013 148.705C763.608 148.149 762.394 147.345 761.37 146.291C760.345 145.209 759.541 143.892 758.955 142.341C758.399 140.79 758.121 139.02 758.121 137.03C758.121 134.367 758.59 132.128 759.526 130.314C760.462 128.47 761.809 127.066 763.564 126.1C765.32 125.134 767.398 124.652 769.797 124.652C772.051 124.652 774.04 125.134 775.767 126.1C777.493 127.066 778.854 128.47 779.849 130.314C780.844 132.128 781.341 134.367 781.341 137.03ZM764.793 137.03C764.793 138.61 764.954 139.941 765.276 141.024C765.627 142.077 766.169 142.882 766.9 143.438C767.632 143.965 768.583 144.228 769.753 144.228C770.924 144.228 771.86 143.965 772.563 143.438C773.294 142.882 773.821 142.077 774.143 141.024C774.494 139.941 774.67 138.61 774.67 137.03C774.67 135.449 774.494 134.133 774.143 133.079C773.821 132.026 773.294 131.236 772.563 130.709C771.831 130.182 770.88 129.919 769.709 129.919C767.983 129.919 766.725 130.519 765.935 131.719C765.174 132.889 764.793 134.659 764.793 137.03ZM808.299 125.091V144.272H811.81V157.66H805.928V149.057H789.819V157.66H783.937V144.272H785.956C787.01 142.663 787.902 140.834 788.634 138.785C789.366 136.708 789.951 134.498 790.39 132.157C790.829 129.816 791.151 127.461 791.355 125.091H808.299ZM796.842 130.007C796.608 131.762 796.315 133.474 795.964 135.142C795.613 136.781 795.174 138.361 794.647 139.883C794.15 141.404 793.535 142.868 792.804 144.272H801.758V130.007H796.842ZM837.666 125.091V149.057H831.126V130.007H822.435V149.057H815.895V125.091H837.666ZM850.85 134.572C850.85 135.069 850.82 135.684 850.762 136.415C850.733 137.147 850.689 137.893 850.63 138.654C850.601 139.415 850.557 140.088 850.498 140.673C850.44 141.258 850.396 141.668 850.367 141.902L861.428 125.091H869.285V149.057H862.964V139.488C862.964 138.698 862.994 137.834 863.052 136.898C863.111 135.932 863.169 135.04 863.228 134.22C863.316 133.372 863.374 132.728 863.403 132.289L852.386 149.057H844.529V125.091H850.85V134.572ZM911.806 125.091V149.057H876.121V125.091H882.661V144.141H890.693V125.091H897.234V144.141H905.266V125.091H911.806ZM924.964 134.572C924.964 135.069 924.934 135.684 924.876 136.415C924.847 137.147 924.803 137.893 924.744 138.654C924.715 139.415 924.671 140.088 924.612 140.673C924.554 141.258 924.51 141.668 924.481 141.902L935.542 125.091H943.399V149.057H937.078V139.488C937.078 138.698 937.108 137.834 937.166 136.898C937.225 135.932 937.283 135.04 937.342 134.22C937.43 133.372 937.488 132.728 937.517 132.289L926.5 149.057H918.643V125.091H924.964V134.572ZM970.075 130.007H962.218V149.057H955.677V130.007H947.82V125.091H970.075V130.007ZM983.944 124.652C986.168 124.652 988.07 125.076 989.65 125.924C991.259 126.773 992.503 128.002 993.381 129.612C994.259 131.221 994.698 133.196 994.698 135.537V138.698H979.247C979.306 140.541 979.847 141.99 980.871 143.043C981.925 144.097 983.373 144.623 985.217 144.623C986.768 144.623 988.172 144.477 989.431 144.184C990.689 143.863 991.991 143.38 993.337 142.736V147.784C992.167 148.369 990.923 148.793 989.606 149.057C988.319 149.349 986.753 149.496 984.909 149.496C982.51 149.496 980.388 149.057 978.545 148.179C976.701 147.272 975.253 145.911 974.199 144.097C973.146 142.282 972.619 140 972.619 137.249C972.619 134.44 973.087 132.114 974.024 130.27C974.989 128.397 976.321 126.993 978.018 126.056C979.715 125.12 981.691 124.652 983.944 124.652ZM983.988 129.304C982.729 129.304 981.676 129.714 980.827 130.533C980.008 131.353 979.525 132.626 979.379 134.352H988.553C988.553 133.386 988.377 132.523 988.026 131.762C987.704 131.002 987.207 130.402 986.534 129.963C985.861 129.524 985.012 129.304 983.988 129.304ZM1009.75 149.496C1007.38 149.496 1005.36 149.071 1003.69 148.223C1002.02 147.345 1000.75 145.999 999.869 144.184C998.992 142.37 998.553 140.044 998.553 137.205C998.553 134.279 999.05 131.894 1000.05 130.051C1001.04 128.207 1002.42 126.846 1004.17 125.968C1005.96 125.091 1008 124.652 1010.32 124.652C1011.95 124.652 1013.37 124.813 1014.57 125.134C1015.8 125.456 1016.87 125.837 1017.78 126.276L1015.85 131.323C1014.82 130.914 1013.86 130.577 1012.95 130.314C1012.07 130.051 1011.19 129.919 1010.32 129.919C1009.17 129.919 1008.22 130.197 1007.46 130.753C1006.7 131.28 1006.13 132.084 1005.75 133.167C1005.4 134.22 1005.22 135.552 1005.22 137.161C1005.22 138.742 1005.41 140.058 1005.8 141.112C1006.2 142.136 1006.79 142.911 1007.55 143.438C1008.31 143.936 1009.23 144.184 1010.32 144.184C1011.69 144.184 1012.91 144.009 1013.96 143.658C1015.01 143.277 1016.04 142.765 1017.03 142.121V147.696C1016.04 148.34 1014.98 148.793 1013.87 149.057C1012.79 149.349 1011.41 149.496 1009.75 149.496ZM1033.7 134.352C1036.16 134.352 1038.19 134.616 1039.8 135.142C1041.41 135.64 1042.59 136.415 1043.35 137.469C1044.14 138.522 1044.54 139.839 1044.54 141.419C1044.54 142.97 1044.17 144.316 1043.44 145.457C1042.74 146.599 1041.61 147.491 1040.06 148.135C1038.51 148.749 1036.48 149.057 1033.96 149.057H1022.55V125.091H1029.09V134.352H1033.7ZM1038 141.507C1038 140.57 1037.62 139.897 1036.86 139.488C1036.13 139.078 1035.03 138.873 1033.57 138.873H1029.09V144.536H1033.65C1034.94 144.536 1035.98 144.301 1036.77 143.833C1037.59 143.365 1038 142.59 1038 141.507ZM1055.83 142.604L1050.7 154.938H1046.75L1049.6 142.604H1055.83ZM170.516 206.089C170.516 207.464 170.897 208.488 171.658 209.161C172.448 209.805 173.574 210.127 175.037 210.127C176.501 210.127 177.832 209.908 179.032 209.469C180.232 209 181.461 208.386 182.719 207.625V197.529H186.582V221.057H182.719V210.566C181.402 211.415 180.1 212.088 178.812 212.585C177.554 213.053 176.032 213.287 174.247 213.287C171.848 213.287 169.975 212.658 168.629 211.4C167.312 210.142 166.654 208.459 166.654 206.352V197.529H170.516V206.089ZM210.297 200.778H202.615V221.057H198.796V200.778H191.203V197.529H210.297V200.778ZM234.957 209.249C234.957 211.21 234.694 212.951 234.167 214.473C233.67 215.965 232.938 217.238 231.972 218.291C231.036 219.345 229.88 220.149 228.505 220.705C227.159 221.232 225.652 221.496 223.984 221.496C222.433 221.496 220.999 221.232 219.682 220.705C218.365 220.149 217.224 219.345 216.258 218.291C215.293 217.238 214.532 215.965 213.976 214.473C213.449 212.951 213.186 211.21 213.186 209.249C213.186 206.645 213.625 204.45 214.503 202.665C215.381 200.851 216.639 199.475 218.278 198.539C219.916 197.573 221.862 197.091 224.115 197.091C226.252 197.091 228.124 197.573 229.734 198.539C231.373 199.475 232.646 200.851 233.553 202.665C234.489 204.45 234.957 206.645 234.957 209.249ZM217.18 209.249C217.18 211.093 217.414 212.702 217.883 214.077C218.38 215.424 219.141 216.462 220.165 217.194C221.189 217.926 222.491 218.291 224.072 218.291C225.652 218.291 226.954 217.926 227.978 217.194C229.002 216.462 229.749 215.424 230.217 214.077C230.714 212.702 230.963 211.093 230.963 209.249C230.963 207.376 230.714 205.782 230.217 204.465C229.719 203.148 228.958 202.138 227.934 201.436C226.939 200.704 225.637 200.339 224.028 200.339C221.628 200.339 219.887 201.129 218.804 202.709C217.722 204.289 217.18 206.469 217.18 209.249ZM239.85 206.923C239.85 203.499 240.187 200.587 240.86 198.188C241.562 195.759 242.63 193.828 244.064 192.394C245.527 190.931 247.4 189.95 249.682 189.453C251.584 189.043 253.443 188.677 255.257 188.356C257.071 188.034 258.768 187.741 260.349 187.478L261.007 190.858C260.246 190.975 259.398 191.121 258.461 191.296C257.525 191.443 256.574 191.604 255.608 191.779C254.642 191.926 253.706 192.087 252.799 192.262C251.921 192.408 251.145 192.555 250.472 192.701C249.507 192.906 248.644 193.257 247.883 193.755C247.122 194.223 246.463 194.867 245.907 195.686C245.381 196.505 244.956 197.515 244.635 198.715C244.313 199.914 244.122 201.334 244.064 202.972H244.327C244.737 202.416 245.293 201.846 245.995 201.26C246.727 200.675 247.59 200.178 248.585 199.768C249.609 199.358 250.765 199.154 252.053 199.154C254.101 199.154 255.798 199.607 257.144 200.514C258.52 201.392 259.544 202.621 260.217 204.201C260.919 205.782 261.27 207.625 261.27 209.732C261.27 212.336 260.817 214.516 259.91 216.272C259.003 218.028 257.744 219.345 256.135 220.223C254.525 221.071 252.653 221.496 250.516 221.496C248.907 221.496 247.444 221.188 246.127 220.574C244.81 219.93 243.683 218.994 242.747 217.765C241.811 216.536 241.094 215.014 240.596 213.2C240.099 211.385 239.85 209.293 239.85 206.923ZM250.824 218.291C252.111 218.291 253.223 218.028 254.16 217.501C255.125 216.974 255.871 216.111 256.398 214.911C256.925 213.712 257.188 212.117 257.188 210.127C257.188 207.727 256.735 205.84 255.828 204.465C254.95 203.06 253.486 202.358 251.438 202.358C250.151 202.358 248.98 202.65 247.927 203.236C246.873 203.792 245.995 204.435 245.293 205.167C244.591 205.899 244.093 206.513 243.801 207.011C243.801 208.444 243.903 209.834 244.108 211.18C244.313 212.527 244.664 213.741 245.161 214.824C245.688 215.877 246.405 216.726 247.312 217.37C248.248 217.984 249.419 218.291 250.824 218.291ZM267.356 221.057V197.529H271.218V207.186H277.319C279.368 207.186 281.05 207.435 282.367 207.932C283.684 208.43 284.664 209.176 285.308 210.171C285.952 211.137 286.274 212.366 286.274 213.858C286.274 215.321 285.952 216.594 285.308 217.677C284.694 218.76 283.713 219.594 282.367 220.179C281.05 220.764 279.309 221.057 277.144 221.057H267.356ZM276.793 217.94C278.461 217.94 279.821 217.662 280.875 217.106C281.928 216.521 282.455 215.511 282.455 214.077C282.455 212.644 281.972 211.678 281.007 211.18C280.041 210.654 278.651 210.39 276.837 210.39H271.218V217.94H276.793ZM290.18 221.057V197.529H294.043V221.057H290.18ZM332.805 197.529V221.057H328.943V200.821H316.784V221.057H312.921V197.529H332.805ZM360.767 209.249C360.767 211.21 360.503 212.951 359.977 214.473C359.479 215.965 358.748 217.238 357.782 218.291C356.846 219.345 355.69 220.149 354.314 220.705C352.968 221.232 351.461 221.496 349.793 221.496C348.242 221.496 346.808 221.232 345.492 220.705C344.175 220.149 343.034 219.345 342.068 218.291C341.102 217.238 340.341 215.965 339.785 214.473C339.259 212.951 338.995 211.21 338.995 209.249C338.995 206.645 339.434 204.45 340.312 202.665C341.19 200.851 342.448 199.475 344.087 198.539C345.726 197.573 347.672 197.091 349.925 197.091C352.061 197.091 353.934 197.573 355.543 198.539C357.182 199.475 358.455 200.851 359.362 202.665C360.299 204.45 360.767 206.645 360.767 209.249ZM342.99 209.249C342.99 211.093 343.224 212.702 343.692 214.077C344.189 215.424 344.95 216.462 345.974 217.194C346.999 217.926 348.301 218.291 349.881 218.291C351.461 218.291 352.763 217.926 353.788 217.194C354.812 216.462 355.558 215.424 356.026 214.077C356.524 212.702 356.772 211.093 356.772 209.249C356.772 207.376 356.524 205.782 356.026 204.465C355.529 203.148 354.768 202.138 353.744 201.436C352.749 200.704 351.447 200.339 349.837 200.339C347.438 200.339 345.697 201.129 344.614 202.709C343.531 204.289 342.99 206.469 342.99 209.249ZM384.797 221.057H380.891V200.734H373.956C373.663 204.45 373.297 207.625 372.858 210.259C372.419 212.863 371.863 214.985 371.19 216.623C370.517 218.262 369.712 219.462 368.776 220.223C367.84 220.983 366.742 221.364 365.484 221.364C365.104 221.364 364.723 221.335 364.343 221.276C363.992 221.247 363.699 221.174 363.465 221.057V218.16C363.64 218.218 363.831 218.262 364.036 218.291C364.24 218.321 364.445 218.335 364.65 218.335C365.294 218.335 365.879 218.072 366.406 217.545C366.933 217.018 367.401 216.214 367.81 215.131C368.249 214.048 368.644 212.688 368.996 211.049C369.347 209.381 369.654 207.42 369.917 205.167C370.181 202.914 370.415 200.368 370.62 197.529H384.797V221.057ZM388.578 197.529H392.704L397.795 210.917C398.088 211.707 398.351 212.468 398.586 213.2C398.849 213.931 399.083 214.648 399.288 215.35C399.493 216.023 399.654 216.682 399.771 217.326H399.946C400.122 216.594 400.4 215.643 400.78 214.473C401.161 213.273 401.556 212.073 401.965 210.873L406.75 197.529H410.92L400.78 224.305C400.224 225.768 399.566 227.041 398.805 228.124C398.073 229.236 397.166 230.084 396.084 230.669C395.03 231.284 393.743 231.591 392.221 231.591C391.519 231.591 390.904 231.547 390.377 231.46C389.851 231.401 389.397 231.328 389.017 231.24V228.167C389.339 228.226 389.719 228.285 390.158 228.343C390.626 228.402 391.109 228.431 391.606 228.431C392.514 228.431 393.289 228.255 393.933 227.904C394.606 227.582 395.176 227.099 395.645 226.456C396.113 225.841 396.508 225.11 396.83 224.261L398.059 221.144L388.578 197.529ZM418.02 206.089C418.02 207.464 418.401 208.488 419.162 209.161C419.952 209.805 421.078 210.127 422.541 210.127C424.005 210.127 425.336 209.908 426.536 209.469C427.736 209 428.965 208.386 430.223 207.625V197.529H434.086V221.057H430.223V210.566C428.906 211.415 427.604 212.088 426.316 212.585C425.058 213.053 423.536 213.287 421.751 213.287C419.352 213.287 417.479 212.658 416.133 211.4C414.816 210.142 414.158 208.459 414.158 206.352V197.529H418.02V206.089ZM450.47 197.134C453.338 197.134 455.46 197.764 456.835 199.022C458.21 200.28 458.898 202.285 458.898 205.035V221.057H456.089L455.343 217.721H455.167C454.494 218.569 453.792 219.286 453.06 219.872C452.358 220.427 451.538 220.837 450.602 221.101C449.695 221.364 448.583 221.496 447.266 221.496C445.861 221.496 444.589 221.247 443.447 220.749C442.335 220.252 441.457 219.491 440.814 218.467C440.17 217.413 439.848 216.097 439.848 214.516C439.848 212.175 440.77 210.376 442.613 209.117C444.457 207.83 447.295 207.128 451.129 207.011L455.123 206.879V205.474C455.123 203.514 454.699 202.153 453.85 201.392C453.002 200.631 451.802 200.251 450.251 200.251C449.022 200.251 447.851 200.441 446.739 200.821C445.627 201.173 444.589 201.582 443.623 202.051L442.438 199.154C443.462 198.598 444.676 198.129 446.081 197.749C447.486 197.339 448.949 197.134 450.47 197.134ZM451.612 209.688C448.685 209.805 446.652 210.273 445.51 211.093C444.398 211.912 443.842 213.068 443.842 214.56C443.842 215.877 444.237 216.843 445.028 217.457C445.847 218.072 446.886 218.379 448.144 218.379C450.134 218.379 451.787 217.838 453.104 216.755C454.421 215.643 455.079 213.946 455.079 211.663V209.556L451.612 209.688ZM482.405 200.778H474.724V221.057H470.905V200.778H463.311V197.529H482.405V200.778ZM497.882 207.186C499.93 207.186 501.627 207.435 502.973 207.932C504.32 208.43 505.329 209.176 506.002 210.171C506.704 211.137 507.056 212.366 507.056 213.858C507.056 215.321 506.719 216.594 506.046 217.677C505.402 218.76 504.393 219.594 503.017 220.179C501.642 220.764 499.872 221.057 497.706 221.057H487.04V197.529H490.903V207.186H497.882ZM503.193 214.077C503.193 212.644 502.681 211.678 501.657 211.18C500.662 210.654 499.257 210.39 497.443 210.39H490.903V217.94H497.531C499.169 217.94 500.515 217.648 501.569 217.062C502.652 216.477 503.193 215.482 503.193 214.077ZM528.147 211.883C528.147 212.146 528.133 212.527 528.103 213.024C528.103 213.492 528.089 214.004 528.06 214.56C528.03 215.087 528.001 215.599 527.972 216.097C527.942 216.565 527.913 216.945 527.884 217.238L540.482 197.529H545.222V221.057H541.623V207.186C541.623 206.718 541.623 206.103 541.623 205.343C541.652 204.582 541.681 203.836 541.711 203.104C541.74 202.343 541.769 201.773 541.798 201.392L529.289 221.057H524.504V197.529H528.147V211.883ZM556.572 197.529V207.318H569.345V197.529H573.208V221.057H569.345V210.566H556.572V221.057H552.709V197.529H556.572ZM594.704 197.178C597.045 197.383 599.078 197.998 600.805 199.022C602.561 200.046 603.921 201.421 604.887 203.148C605.853 204.874 606.336 206.923 606.336 209.293C606.336 211.663 605.867 213.726 604.931 215.482C603.995 217.209 602.663 218.584 600.937 219.608C599.21 220.603 597.132 221.203 594.704 221.408V231.591H590.929V221.408C588.617 221.203 586.583 220.603 584.828 219.608C583.072 218.584 581.711 217.209 580.745 215.482C579.78 213.726 579.297 211.663 579.297 209.293C579.297 206.894 579.765 204.83 580.701 203.104C581.638 201.348 582.984 199.973 584.74 198.978C586.496 197.954 588.602 197.354 591.06 197.178V187.697H594.704V197.178ZM591.06 200.383C589.275 200.558 587.812 201.012 586.671 201.743C585.53 202.475 584.681 203.47 584.125 204.728C583.598 205.986 583.335 207.508 583.335 209.293C583.335 211.049 583.598 212.57 584.125 213.858C584.681 215.116 585.53 216.126 586.671 216.887C587.812 217.618 589.275 218.072 591.06 218.247V200.383ZM594.704 218.247C596.459 218.043 597.893 217.574 599.005 216.843C600.147 216.111 600.981 215.116 601.507 213.858C602.063 212.57 602.341 211.049 602.341 209.293C602.341 207.537 602.063 206.03 601.507 204.772C600.951 203.514 600.103 202.519 598.961 201.787C597.849 201.056 596.43 200.602 594.704 200.426V218.247ZM632.918 209.249C632.918 211.21 632.655 212.951 632.128 214.473C631.631 215.965 630.899 217.238 629.933 218.291C628.997 219.345 627.841 220.149 626.466 220.705C625.12 221.232 623.613 221.496 621.945 221.496C620.394 221.496 618.96 221.232 617.643 220.705C616.326 220.149 615.185 219.345 614.219 218.291C613.254 217.238 612.493 215.965 611.937 214.473C611.41 212.951 611.147 211.21 611.147 209.249C611.147 206.645 611.586 204.45 612.464 202.665C613.342 200.851 614.6 199.475 616.239 198.539C617.877 197.573 619.823 197.091 622.076 197.091C624.213 197.091 626.085 197.573 627.695 198.539C629.334 199.475 630.606 200.851 631.514 202.665C632.45 204.45 632.918 206.645 632.918 209.249ZM615.141 209.249C615.141 211.093 615.375 212.702 615.843 214.077C616.341 215.424 617.102 216.462 618.126 217.194C619.15 217.926 620.452 218.291 622.033 218.291C623.613 218.291 624.915 217.926 625.939 217.194C626.963 216.462 627.709 215.424 628.178 214.077C628.675 212.702 628.924 211.093 628.924 209.249C628.924 207.376 628.675 205.782 628.178 204.465C627.68 203.148 626.919 202.138 625.895 201.436C624.9 200.704 623.598 200.339 621.989 200.339C619.589 200.339 617.848 201.129 616.765 202.709C615.683 204.289 615.141 206.469 615.141 209.249ZM650.233 197.091C653.13 197.091 655.456 198.1 657.212 200.119C658.997 202.138 659.89 205.182 659.89 209.249C659.89 211.912 659.48 214.165 658.661 216.009C657.871 217.823 656.744 219.198 655.281 220.135C653.847 221.042 652.15 221.496 650.189 221.496C648.989 221.496 647.921 221.335 646.985 221.013C646.048 220.691 645.244 220.281 644.571 219.784C643.927 219.257 643.371 218.686 642.903 218.072H642.639C642.698 218.569 642.756 219.198 642.815 219.959C642.873 220.72 642.903 221.379 642.903 221.935V231.591H639.04V197.529H642.2L642.727 200.734H642.903C643.371 200.061 643.927 199.446 644.571 198.89C645.244 198.334 646.034 197.895 646.941 197.573C647.877 197.251 648.975 197.091 650.233 197.091ZM649.531 200.339C647.951 200.339 646.678 200.646 645.712 201.26C644.746 201.846 644.044 202.738 643.605 203.938C643.166 205.138 642.932 206.659 642.903 208.503V209.249C642.903 211.18 643.108 212.819 643.517 214.165C643.927 215.511 644.615 216.536 645.58 217.238C646.575 217.94 647.921 218.291 649.619 218.291C651.052 218.291 652.223 217.896 653.13 217.106C654.066 216.316 654.754 215.248 655.193 213.902C655.661 212.527 655.895 210.961 655.895 209.205C655.895 206.513 655.369 204.362 654.315 202.753C653.291 201.143 651.696 200.339 649.531 200.339ZM691.284 197.529V221.057H687.817V206.045C687.817 205.43 687.831 204.787 687.86 204.114C687.919 203.441 687.978 202.782 688.036 202.138H687.904L680.223 221.057H676.975L669.513 202.138H669.381C669.44 202.782 669.469 203.441 669.469 204.114C669.498 204.787 669.513 205.474 669.513 206.177V221.057H666.045V197.529H671.181L678.599 216.448L686.149 197.529H691.284ZM707.705 197.134C710.572 197.134 712.694 197.764 714.069 199.022C715.445 200.28 716.132 202.285 716.132 205.035V221.057H713.323L712.577 217.721H712.401C711.728 218.569 711.026 219.286 710.294 219.872C709.592 220.427 708.773 220.837 707.836 221.101C706.929 221.364 705.817 221.496 704.5 221.496C703.096 221.496 701.823 221.247 700.682 220.749C699.57 220.252 698.692 219.491 698.048 218.467C697.404 217.413 697.082 216.097 697.082 214.516C697.082 212.175 698.004 210.376 699.848 209.117C701.691 207.83 704.53 207.128 708.363 207.011L712.357 206.879V205.474C712.357 203.514 711.933 202.153 711.085 201.392C710.236 200.631 709.036 200.251 707.485 200.251C706.256 200.251 705.086 200.441 703.974 200.821C702.862 201.173 701.823 201.582 700.857 202.051L699.672 199.154C700.696 198.598 701.911 198.129 703.315 197.749C704.72 197.339 706.183 197.134 707.705 197.134ZM708.846 209.688C705.92 209.805 703.886 210.273 702.745 211.093C701.633 211.912 701.077 213.068 701.077 214.56C701.077 215.877 701.472 216.843 702.262 217.457C703.081 218.072 704.12 218.379 705.378 218.379C707.368 218.379 709.022 217.838 710.338 216.755C711.655 215.643 712.314 213.946 712.314 211.663V209.556L708.846 209.688ZM746.619 229.221H742.844V221.057H723.399V197.529H727.262V217.808H739.42V197.529H743.283V217.852H746.619V229.221ZM754.776 211.883C754.776 212.146 754.761 212.527 754.732 213.024C754.732 213.492 754.717 214.004 754.688 214.56C754.659 215.087 754.63 215.599 754.6 216.097C754.571 216.565 754.542 216.945 754.513 217.238L767.11 197.529H771.851V221.057H768.251V207.186C768.251 206.718 768.251 206.103 768.251 205.343C768.281 204.582 768.31 203.836 768.339 203.104C768.368 202.343 768.398 201.773 768.427 201.392L755.917 221.057H751.133V197.529H754.776V211.883ZM809.888 209.249C809.888 211.854 809.464 214.077 808.615 215.921C807.767 217.735 806.567 219.125 805.016 220.091C803.465 221.027 801.622 221.496 799.485 221.496C797.496 221.496 795.754 221.086 794.262 220.267C792.77 219.418 791.584 218.189 790.707 216.579C789.829 214.941 789.317 212.936 789.17 210.566H783.201V221.057H779.338V197.529H783.201V207.318H789.214C789.419 205.094 789.96 203.236 790.838 201.743C791.745 200.222 792.931 199.066 794.394 198.276C795.886 197.486 797.613 197.091 799.573 197.091C801.592 197.091 803.377 197.573 804.928 198.539C806.479 199.475 807.694 200.851 808.571 202.665C809.449 204.45 809.888 206.645 809.888 209.249ZM793.121 209.249C793.121 211.21 793.34 212.863 793.779 214.209C794.247 215.555 794.95 216.579 795.886 217.282C796.822 217.955 798.037 218.291 799.529 218.291C801.022 218.291 802.236 217.955 803.172 217.282C804.109 216.579 804.797 215.555 805.236 214.209C805.674 212.863 805.894 211.21 805.894 209.249C805.894 207.289 805.674 205.65 805.236 204.333C804.797 203.016 804.109 202.021 803.172 201.348C802.236 200.675 801.022 200.339 799.529 200.339C798.037 200.339 796.822 200.675 795.886 201.348C794.95 202.021 794.247 203.016 793.779 204.333C793.34 205.65 793.121 207.289 793.121 209.249ZM821.078 215.043L815.767 227.158H812.519L815.636 215.043H821.078ZM857.176 197.529V221.057H853.313V200.821H841.155V221.057H837.292V197.529H857.176ZM885.137 209.249C885.137 211.21 884.874 212.951 884.347 214.473C883.85 215.965 883.118 217.238 882.153 218.291C881.216 219.345 880.06 220.149 878.685 220.705C877.339 221.232 875.832 221.496 874.164 221.496C872.613 221.496 871.179 221.232 869.862 220.705C868.545 220.149 867.404 219.345 866.438 218.291C865.473 217.238 864.712 215.965 864.156 214.473C863.629 212.951 863.366 211.21 863.366 209.249C863.366 206.645 863.805 204.45 864.683 202.665C865.561 200.851 866.819 199.475 868.458 198.539C870.096 197.573 872.042 197.091 874.296 197.091C876.432 197.091 878.304 197.573 879.914 198.539C881.553 199.475 882.826 200.851 883.733 202.665C884.669 204.45 885.137 206.645 885.137 209.249ZM867.36 209.249C867.36 211.093 867.594 212.702 868.063 214.077C868.56 215.424 869.321 216.462 870.345 217.194C871.369 217.926 872.671 218.291 874.252 218.291C875.832 218.291 877.134 217.926 878.158 217.194C879.182 216.462 879.929 215.424 880.397 214.077C880.894 212.702 881.143 211.093 881.143 209.249C881.143 207.376 880.894 205.782 880.397 204.465C879.899 203.148 879.138 202.138 878.114 201.436C877.119 200.704 875.817 200.339 874.208 200.339C871.808 200.339 870.067 201.129 868.984 202.709C867.902 204.289 867.36 206.469 867.36 209.249ZM900.696 221.496C898.619 221.496 896.761 221.071 895.122 220.223C893.512 219.374 892.239 218.057 891.303 216.272C890.396 214.487 889.942 212.205 889.942 209.425C889.942 206.528 890.425 204.172 891.391 202.358C892.357 200.544 893.659 199.212 895.297 198.363C896.965 197.515 898.853 197.091 900.96 197.091C902.16 197.091 903.315 197.222 904.427 197.486C905.539 197.72 906.447 198.012 907.149 198.363L905.964 201.568C905.261 201.304 904.442 201.056 903.506 200.821C902.569 200.587 901.691 200.47 900.872 200.47C899.292 200.47 897.99 200.807 896.965 201.48C895.941 202.153 895.18 203.148 894.683 204.465C894.185 205.782 893.937 207.42 893.937 209.381C893.937 211.254 894.185 212.848 894.683 214.165C895.18 215.482 895.927 216.477 896.922 217.15C897.916 217.823 899.16 218.16 900.653 218.16C901.94 218.16 903.067 218.028 904.032 217.765C905.027 217.501 905.934 217.179 906.754 216.799V220.223C905.964 220.632 905.086 220.94 904.12 221.144C903.184 221.379 902.042 221.496 900.696 221.496ZM930.258 221.057H926.351V200.734H919.416C919.123 204.45 918.757 207.625 918.318 210.259C917.879 212.863 917.324 214.985 916.65 216.623C915.977 218.262 915.173 219.462 914.236 220.223C913.3 220.983 912.203 221.364 910.944 221.364C910.564 221.364 910.183 221.335 909.803 221.276C909.452 221.247 909.159 221.174 908.925 221.057V218.16C909.101 218.218 909.291 218.262 909.496 218.291C909.701 218.321 909.905 218.335 910.11 218.335C910.754 218.335 911.339 218.072 911.866 217.545C912.393 217.018 912.861 216.214 913.271 215.131C913.71 214.048 914.105 212.688 914.456 211.049C914.807 209.381 915.114 207.42 915.378 205.167C915.641 202.914 915.875 200.368 916.08 197.529H930.258V221.057ZM946.811 197.091C948.83 197.091 950.557 197.529 951.991 198.407C953.454 199.285 954.566 200.529 955.327 202.138C956.117 203.719 956.512 205.577 956.512 207.713V210.039H940.403C940.461 212.702 941.134 214.736 942.422 216.141C943.739 217.516 945.568 218.204 947.909 218.204C949.401 218.204 950.718 218.072 951.859 217.808C953.03 217.516 954.229 217.106 955.458 216.579V219.959C954.259 220.486 953.073 220.866 951.903 221.101C950.732 221.364 949.342 221.496 947.733 221.496C945.509 221.496 943.534 221.042 941.807 220.135C940.11 219.228 938.779 217.882 937.813 216.097C936.877 214.282 936.408 212.073 936.408 209.469C936.408 206.894 936.833 204.684 937.681 202.841C938.559 200.997 939.774 199.578 941.324 198.583C942.905 197.588 944.734 197.091 946.811 197.091ZM946.767 200.251C944.924 200.251 943.461 200.851 942.378 202.051C941.324 203.221 940.695 204.86 940.49 206.967H952.474C952.474 205.621 952.269 204.45 951.859 203.455C951.449 202.46 950.82 201.685 949.972 201.129C949.152 200.544 948.084 200.251 946.767 200.251ZM979.971 197.529V217.808H983.395V229.221H979.664V221.057H963.291V229.221H959.604V217.808H961.492C962.838 215.936 963.95 213.902 964.828 211.707C965.735 209.483 966.408 207.172 966.847 204.772C967.315 202.343 967.564 199.929 967.593 197.529H979.971ZM971.017 200.558C970.9 202.548 970.592 204.611 970.095 206.747C969.597 208.854 968.954 210.873 968.164 212.805C967.403 214.736 966.51 216.404 965.486 217.808H976.24V200.558H971.017ZM991.869 197.529V207.318H1004.64V197.529H1008.5V221.057H1004.64V210.566H991.869V221.057H988.006V197.529H991.869ZM1019.6 211.883C1019.6 212.146 1019.58 212.527 1019.55 213.024C1019.55 213.492 1019.54 214.004 1019.51 214.56C1019.48 215.087 1019.45 215.599 1019.42 216.097C1019.39 216.565 1019.36 216.945 1019.33 217.238L1031.93 197.529H1036.67V221.057H1033.07V207.186C1033.07 206.718 1033.07 206.103 1033.07 205.343C1033.1 204.582 1033.13 203.836 1033.16 203.104C1033.19 202.343 1033.22 201.773 1033.25 201.392L1020.74 221.057H1015.95V197.529H1019.6V211.883ZM1053.25 197.091C1055.26 197.091 1056.99 197.529 1058.43 198.407C1059.89 199.285 1061 200.529 1061.76 202.138C1062.55 203.719 1062.95 205.577 1062.95 207.713V210.039H1046.84C1046.9 212.702 1047.57 214.736 1048.86 216.141C1050.17 217.516 1052 218.204 1054.34 218.204C1055.84 218.204 1057.15 218.072 1058.29 217.808C1059.46 217.516 1060.66 217.106 1061.89 216.579V219.959C1060.69 220.486 1059.51 220.866 1058.34 221.101C1057.17 221.364 1055.78 221.496 1054.17 221.496C1051.94 221.496 1049.97 221.042 1048.24 220.135C1046.54 219.228 1045.21 217.882 1044.25 216.097C1043.31 214.282 1042.84 212.073 1042.84 209.469C1042.84 206.894 1043.27 204.684 1044.12 202.841C1044.99 200.997 1046.21 199.578 1047.76 198.583C1049.34 197.588 1051.17 197.091 1053.25 197.091ZM1053.2 200.251C1051.36 200.251 1049.9 200.851 1048.81 202.051C1047.76 203.221 1047.13 204.86 1046.92 206.967H1058.91C1058.91 205.621 1058.7 204.45 1058.29 203.455C1057.88 202.46 1057.25 201.685 1056.41 201.129C1055.59 200.544 1054.52 200.251 1053.2 200.251ZM1084.2 197.529V207.318H1096.97V197.529H1100.84V221.057H1096.97V210.566H1084.2V221.057H1080.34V197.529H1084.2ZM1128.74 209.249C1128.74 211.21 1128.48 212.951 1127.95 214.473C1127.45 215.965 1126.72 217.238 1125.76 218.291C1124.82 219.345 1123.66 220.149 1122.29 220.705C1120.94 221.232 1119.44 221.496 1117.77 221.496C1116.22 221.496 1114.78 221.232 1113.47 220.705C1112.15 220.149 1111.01 219.345 1110.04 218.291C1109.08 217.238 1108.32 215.965 1107.76 214.473C1107.23 212.951 1106.97 211.21 1106.97 209.249C1106.97 206.645 1107.41 204.45 1108.29 202.665C1109.16 200.851 1110.42 199.475 1112.06 198.539C1113.7 197.573 1115.65 197.091 1117.9 197.091C1120.03 197.091 1121.91 197.573 1123.52 198.539C1125.16 199.475 1126.43 200.851 1127.34 202.665C1128.27 204.45 1128.74 206.645 1128.74 209.249ZM1110.96 209.249C1110.96 211.093 1111.2 212.702 1111.67 214.077C1112.16 215.424 1112.92 216.462 1113.95 217.194C1114.97 217.926 1116.27 218.291 1117.85 218.291C1119.44 218.291 1120.74 217.926 1121.76 217.194C1122.79 216.462 1123.53 215.424 1124 214.077C1124.5 212.702 1124.75 211.093 1124.75 209.249C1124.75 207.376 1124.5 205.782 1124 204.465C1123.5 203.148 1122.74 202.138 1121.72 201.436C1120.72 200.704 1119.42 200.339 1117.81 200.339C1115.41 200.339 1113.67 201.129 1112.59 202.709C1111.5 204.289 1110.96 206.469 1110.96 209.249ZM1153.78 203.455C1153.78 204.918 1153.34 206.06 1152.46 206.879C1151.59 207.698 1150.46 208.254 1149.08 208.547V208.722C1150.55 208.927 1151.82 209.454 1152.9 210.303C1153.99 211.122 1154.53 212.41 1154.53 214.165C1154.53 215.16 1154.34 216.082 1153.96 216.931C1153.61 217.779 1153.05 218.511 1152.29 219.125C1151.53 219.74 1150.55 220.223 1149.35 220.574C1148.15 220.896 1146.7 221.057 1145 221.057H1134.86V197.529H1144.96C1146.63 197.529 1148.12 197.72 1149.44 198.1C1150.78 198.451 1151.83 199.066 1152.6 199.944C1153.39 200.792 1153.78 201.963 1153.78 203.455ZM1150.53 214.165C1150.53 212.819 1150.02 211.854 1149 211.268C1147.97 210.683 1146.47 210.39 1144.48 210.39H1138.73V217.94H1144.56C1146.49 217.94 1147.97 217.662 1149 217.106C1150.02 216.521 1150.53 215.541 1150.53 214.165ZM1149.87 203.938C1149.87 202.826 1149.46 202.021 1148.65 201.524C1147.86 200.997 1146.55 200.734 1144.74 200.734H1138.73V207.186H1144.04C1145.94 207.186 1147.39 206.923 1148.38 206.396C1149.38 205.869 1149.87 205.05 1149.87 203.938ZM1180.61 209.249C1180.61 211.21 1180.34 212.951 1179.82 214.473C1179.32 215.965 1178.59 217.238 1177.62 218.291C1176.69 219.345 1175.53 220.149 1174.16 220.705C1172.81 221.232 1171.3 221.496 1169.63 221.496C1168.08 221.496 1166.65 221.232 1165.33 220.705C1164.02 220.149 1162.87 219.345 1161.91 218.291C1160.94 217.238 1160.18 215.965 1159.63 214.473C1159.1 212.951 1158.84 211.21 1158.84 209.249C1158.84 206.645 1159.27 204.45 1160.15 202.665C1161.03 200.851 1162.29 199.475 1163.93 198.539C1165.57 197.573 1167.51 197.091 1169.77 197.091C1171.9 197.091 1173.77 197.573 1175.38 198.539C1177.02 199.475 1178.3 200.851 1179.2 202.665C1180.14 204.45 1180.61 206.645 1180.61 209.249ZM1162.83 209.249C1162.83 211.093 1163.06 212.702 1163.53 214.077C1164.03 215.424 1164.79 216.462 1165.82 217.194C1166.84 217.926 1168.14 218.291 1169.72 218.291C1171.3 218.291 1172.6 217.926 1173.63 217.194C1174.65 216.462 1175.4 215.424 1175.87 214.077C1176.36 212.702 1176.61 211.093 1176.61 209.249C1176.61 207.376 1176.36 205.782 1175.87 204.465C1175.37 203.148 1174.61 202.138 1173.58 201.436C1172.59 200.704 1171.29 200.339 1169.68 200.339C1167.28 200.339 1165.54 201.129 1164.45 202.709C1163.37 204.289 1162.83 206.469 1162.83 209.249ZM1196.17 221.496C1194.09 221.496 1192.23 221.071 1190.59 220.223C1188.98 219.374 1187.71 218.057 1186.77 216.272C1185.87 214.487 1185.41 212.205 1185.41 209.425C1185.41 206.528 1185.9 204.172 1186.86 202.358C1187.83 200.544 1189.13 199.212 1190.77 198.363C1192.44 197.515 1194.32 197.091 1196.43 197.091C1197.63 197.091 1198.79 197.222 1199.9 197.486C1201.01 197.72 1201.92 198.012 1202.62 198.363L1201.43 201.568C1200.73 201.304 1199.91 201.056 1198.98 200.821C1198.04 200.587 1197.16 200.47 1196.34 200.47C1194.76 200.47 1193.46 200.807 1192.44 201.48C1191.41 202.153 1190.65 203.148 1190.15 204.465C1189.66 205.782 1189.41 207.42 1189.41 209.381C1189.41 211.254 1189.66 212.848 1190.15 214.165C1190.65 215.482 1191.4 216.477 1192.39 217.15C1193.39 217.823 1194.63 218.16 1196.12 218.16C1197.41 218.16 1198.54 218.028 1199.5 217.765C1200.5 217.501 1201.4 217.179 1202.22 216.799V220.223C1201.43 220.632 1200.56 220.94 1199.59 221.144C1198.65 221.379 1197.51 221.496 1196.17 221.496ZM1224.06 200.778H1216.38V221.057H1212.56V200.778H1204.97V197.529H1224.06V200.778ZM1232.34 211.883C1232.34 212.146 1232.32 212.527 1232.29 213.024C1232.29 213.492 1232.28 214.004 1232.25 214.56C1232.22 215.087 1232.19 215.599 1232.16 216.097C1232.13 216.565 1232.1 216.945 1232.07 217.238L1244.67 197.529H1249.41V221.057H1245.81V207.186C1245.81 206.718 1245.81 206.103 1245.81 205.343C1245.84 204.582 1245.87 203.836 1245.9 203.104C1245.93 202.343 1245.96 201.773 1245.99 201.392L1233.48 221.057H1228.69V197.529H1232.34V211.883ZM1271.94 211.883C1271.94 212.146 1271.93 212.527 1271.9 213.024C1271.9 213.492 1271.89 214.004 1271.86 214.56C1271.83 215.087 1271.8 215.599 1271.77 216.097C1271.74 216.565 1271.71 216.945 1271.68 217.238L1284.28 197.529H1289.02V221.057H1285.42V207.186C1285.42 206.718 1285.42 206.103 1285.42 205.343C1285.45 204.582 1285.48 203.836 1285.51 203.104C1285.54 202.343 1285.57 201.773 1285.6 201.392L1273.09 221.057H1268.3V197.529H1271.94V211.883ZM1333.15 197.529V221.057H1329.68V206.045C1329.68 205.43 1329.7 204.787 1329.72 204.114C1329.78 203.441 1329.84 202.782 1329.9 202.138H1329.77L1322.09 221.057H1318.84L1311.38 202.138H1311.25C1311.3 202.782 1311.33 203.441 1311.33 204.114C1311.36 204.787 1311.38 205.474 1311.38 206.177V221.057H1307.91V197.529H1313.05L1320.46 216.448L1328.01 197.529H1333.15ZM1344.52 197.529V207.318H1357.29V197.529H1361.16V221.057H1357.29V210.566H1344.52V221.057H1340.66V197.529H1344.52ZM1389.06 209.249C1389.06 211.21 1388.8 212.951 1388.27 214.473C1387.77 215.965 1387.04 217.238 1386.08 218.291C1385.14 219.345 1383.98 220.149 1382.61 220.705C1381.26 221.232 1379.76 221.496 1378.09 221.496C1376.54 221.496 1375.1 221.232 1373.79 220.705C1372.47 220.149 1371.33 219.345 1370.36 218.291C1369.4 217.238 1368.64 215.965 1368.08 214.473C1367.55 212.951 1367.29 211.21 1367.29 209.249C1367.29 206.645 1367.73 204.45 1368.61 202.665C1369.48 200.851 1370.74 199.475 1372.38 198.539C1374.02 197.573 1375.97 197.091 1378.22 197.091C1380.36 197.091 1382.23 197.573 1383.84 198.539C1385.48 199.475 1386.75 200.851 1387.66 202.665C1388.59 204.45 1389.06 206.645 1389.06 209.249ZM1371.28 209.249C1371.28 211.093 1371.52 212.702 1371.99 214.077C1372.48 215.424 1373.24 216.462 1374.27 217.194C1375.29 217.926 1376.6 218.291 1378.18 218.291C1379.76 218.291 1381.06 217.926 1382.08 217.194C1383.11 216.462 1383.85 215.424 1384.32 214.077C1384.82 212.702 1385.07 211.093 1385.07 209.249C1385.07 207.376 1384.82 205.782 1384.32 204.465C1383.82 203.148 1383.06 202.138 1382.04 201.436C1381.04 200.704 1379.74 200.339 1378.13 200.339C1375.73 200.339 1373.99 201.129 1372.91 202.709C1371.83 204.289 1371.28 206.469 1371.28 209.249ZM1409.54 197.529V200.778H1399.05V221.057H1395.18V197.529H1409.54ZM1434.2 209.249C1434.2 211.21 1433.93 212.951 1433.41 214.473C1432.91 215.965 1432.18 217.238 1431.21 218.291C1430.28 219.345 1429.12 220.149 1427.75 220.705C1426.4 221.232 1424.89 221.496 1423.22 221.496C1421.67 221.496 1420.24 221.232 1418.92 220.705C1417.61 220.149 1416.47 219.345 1415.5 218.291C1414.53 217.238 1413.77 215.965 1413.22 214.473C1412.69 212.951 1412.43 211.21 1412.43 209.249C1412.43 206.645 1412.87 204.45 1413.74 202.665C1414.62 200.851 1415.88 199.475 1417.52 198.539C1419.16 197.573 1421.1 197.091 1423.36 197.091C1425.49 197.091 1427.37 197.573 1428.97 198.539C1430.61 199.475 1431.89 200.851 1432.79 202.665C1433.73 204.45 1434.2 206.645 1434.2 209.249ZM1416.42 209.249C1416.42 211.093 1416.66 212.702 1417.12 214.077C1417.62 215.424 1418.38 216.462 1419.41 217.194C1420.43 217.926 1421.73 218.291 1423.31 218.291C1424.89 218.291 1426.19 217.926 1427.22 217.194C1428.24 216.462 1428.99 215.424 1429.46 214.077C1429.96 212.702 1430.2 211.093 1430.2 209.249C1430.2 207.376 1429.96 205.782 1429.46 204.465C1428.96 203.148 1428.2 202.138 1427.18 201.436C1426.18 200.704 1424.88 200.339 1423.27 200.339C1420.87 200.339 1419.13 201.129 1418.05 202.709C1416.96 204.289 1416.42 206.469 1416.42 209.249ZM1449.41 197.091C1451.43 197.091 1453.15 197.529 1454.59 198.407C1456.05 199.285 1457.16 200.529 1457.92 202.138C1458.71 203.719 1459.11 205.577 1459.11 207.713V210.039H1443C1443.06 212.702 1443.73 214.736 1445.02 216.141C1446.33 217.516 1448.16 218.204 1450.5 218.204C1452 218.204 1453.31 218.072 1454.45 217.808C1455.62 217.516 1456.82 217.106 1458.05 216.579V219.959C1456.85 220.486 1455.67 220.866 1454.5 221.101C1453.33 221.364 1451.94 221.496 1450.33 221.496C1448.1 221.496 1446.13 221.042 1444.4 220.135C1442.71 219.228 1441.37 217.882 1440.41 216.097C1439.47 214.282 1439 212.073 1439 209.469C1439 206.894 1439.43 204.684 1440.28 202.841C1441.15 200.997 1442.37 199.578 1443.92 198.583C1445.5 197.588 1447.33 197.091 1449.41 197.091ZM1449.36 200.251C1447.52 200.251 1446.06 200.851 1444.97 202.051C1443.92 203.221 1443.29 204.86 1443.09 206.967H1455.07C1455.07 205.621 1454.86 204.45 1454.45 203.455C1454.04 202.46 1453.42 201.685 1452.57 201.129C1451.75 200.544 1450.68 200.251 1449.36 200.251ZM1493.97 197.529V217.808H1497.39V229.221H1493.66V221.057H1477.29V229.221H1473.6V217.808H1475.49C1476.83 215.936 1477.95 213.902 1478.82 211.707C1479.73 209.483 1480.4 207.172 1480.84 204.772C1481.31 202.343 1481.56 199.929 1481.59 197.529H1493.97ZM1485.01 200.558C1484.9 202.548 1484.59 204.611 1484.09 206.747C1483.59 208.854 1482.95 210.873 1482.16 212.805C1481.4 214.736 1480.51 216.404 1479.48 217.808H1490.24V200.558H1485.01ZM1513.2 197.091C1516.09 197.091 1518.42 198.1 1520.18 200.119C1521.96 202.138 1522.85 205.182 1522.85 209.249C1522.85 211.912 1522.44 214.165 1521.62 216.009C1520.83 217.823 1519.71 219.198 1518.24 220.135C1516.81 221.042 1515.11 221.496 1513.15 221.496C1511.95 221.496 1510.88 221.335 1509.95 221.013C1509.01 220.691 1508.21 220.281 1507.53 219.784C1506.89 219.257 1506.33 218.686 1505.87 218.072H1505.6C1505.66 218.569 1505.72 219.198 1505.78 219.959C1505.84 220.72 1505.87 221.379 1505.87 221.935V231.591H1502V197.529H1505.16L1505.69 200.734H1505.87C1506.33 200.061 1506.89 199.446 1507.53 198.89C1508.21 198.334 1509 197.895 1509.9 197.573C1510.84 197.251 1511.94 197.091 1513.2 197.091ZM1512.49 200.339C1510.91 200.339 1509.64 200.646 1508.68 201.26C1507.71 201.846 1507.01 202.738 1506.57 203.938C1506.13 205.138 1505.9 206.659 1505.87 208.503V209.249C1505.87 211.18 1506.07 212.819 1506.48 214.165C1506.89 215.511 1507.58 216.536 1508.54 217.238C1509.54 217.94 1510.88 218.291 1512.58 218.291C1514.02 218.291 1515.19 217.896 1516.09 217.106C1517.03 216.316 1517.72 215.248 1518.16 213.902C1518.62 212.527 1518.86 210.961 1518.86 209.205C1518.86 206.513 1518.33 204.362 1517.28 202.753C1516.25 201.143 1514.66 200.339 1512.49 200.339ZM1524.89 197.529H1529.02L1534.11 210.917C1534.4 211.707 1534.67 212.468 1534.9 213.2C1535.16 213.931 1535.4 214.648 1535.6 215.35C1535.81 216.023 1535.97 216.682 1536.09 217.326H1536.26C1536.44 216.594 1536.71 215.643 1537.1 214.473C1537.48 213.273 1537.87 212.073 1538.28 210.873L1543.06 197.529H1547.23L1537.1 224.305C1536.54 225.768 1535.88 227.041 1535.12 228.124C1534.39 229.236 1533.48 230.084 1532.4 230.669C1531.34 231.284 1530.06 231.591 1528.54 231.591C1527.83 231.591 1527.22 231.547 1526.69 231.46C1526.17 231.401 1525.71 231.328 1525.33 231.24V228.167C1525.65 228.226 1526.03 228.285 1526.47 228.343C1526.94 228.402 1527.42 228.431 1527.92 228.431C1528.83 228.431 1529.6 228.255 1530.25 227.904C1530.92 227.582 1531.49 227.099 1531.96 226.456C1532.43 225.841 1532.82 225.11 1533.14 224.261L1534.37 221.144L1524.89 197.529ZM1565.31 197.529V200.778H1554.82V221.057H1550.96V197.529H1565.31ZM1589.97 209.249C1589.97 211.21 1589.71 212.951 1589.18 214.473C1588.68 215.965 1587.95 217.238 1586.99 218.291C1586.05 219.345 1584.89 220.149 1583.52 220.705C1582.17 221.232 1580.66 221.496 1579 221.496C1577.45 221.496 1576.01 221.232 1574.7 220.705C1573.38 220.149 1572.24 219.345 1571.27 218.291C1570.31 217.238 1569.55 215.965 1568.99 214.473C1568.46 212.951 1568.2 211.21 1568.2 209.249C1568.2 206.645 1568.64 204.45 1569.52 202.665C1570.39 200.851 1571.65 199.475 1573.29 198.539C1574.93 197.573 1576.88 197.091 1579.13 197.091C1581.26 197.091 1583.14 197.573 1584.75 198.539C1586.39 199.475 1587.66 200.851 1588.57 202.665C1589.5 204.45 1589.97 206.645 1589.97 209.249ZM1572.19 209.249C1572.19 211.093 1572.43 212.702 1572.9 214.077C1573.39 215.424 1574.15 216.462 1575.18 217.194C1576.2 217.926 1577.5 218.291 1579.08 218.291C1580.66 218.291 1581.97 217.926 1582.99 217.194C1584.02 216.462 1584.76 215.424 1585.23 214.077C1585.73 212.702 1585.98 211.093 1585.98 209.249C1585.98 207.376 1585.73 205.782 1585.23 204.465C1584.73 203.148 1583.97 202.138 1582.95 201.436C1581.95 200.704 1580.65 200.339 1579.04 200.339C1576.64 200.339 1574.9 201.129 1573.82 202.709C1572.73 204.289 1572.19 206.469 1572.19 209.249ZM1605.18 197.091C1607.2 197.091 1608.92 197.529 1610.36 198.407C1611.82 199.285 1612.93 200.529 1613.69 202.138C1614.48 203.719 1614.88 205.577 1614.88 207.713V210.039H1598.77C1598.83 212.702 1599.5 214.736 1600.79 216.141C1602.11 217.516 1603.93 218.204 1606.28 218.204C1607.77 218.204 1609.08 218.072 1610.23 217.808C1611.4 217.516 1612.6 217.106 1613.83 216.579V219.959C1612.63 220.486 1611.44 220.866 1610.27 221.101C1609.1 221.364 1607.71 221.496 1606.1 221.496C1603.88 221.496 1601.9 221.042 1600.17 220.135C1598.48 219.228 1597.15 217.882 1596.18 216.097C1595.24 214.282 1594.78 212.073 1594.78 209.469C1594.78 206.894 1595.2 204.684 1596.05 202.841C1596.93 200.997 1598.14 199.578 1599.69 198.583C1601.27 197.588 1603.1 197.091 1605.18 197.091ZM1605.13 200.251C1603.29 200.251 1601.83 200.851 1600.75 202.051C1599.69 203.221 1599.06 204.86 1598.86 206.967H1610.84C1610.84 205.621 1610.64 204.45 1610.23 203.455C1609.82 202.46 1609.19 201.685 1608.34 201.129C1607.52 200.544 1606.45 200.251 1605.13 200.251ZM1622.45 221.364C1621.54 221.364 1620.78 221.057 1620.17 220.442C1619.55 219.828 1619.24 219.067 1619.24 218.16C1619.24 217.252 1619.55 216.492 1620.17 215.877C1620.78 215.263 1621.54 214.955 1622.45 214.955C1623.33 214.955 1624.07 215.263 1624.69 215.877C1625.3 216.492 1625.61 217.252 1625.61 218.16C1625.61 219.067 1625.3 219.828 1624.69 220.442C1624.07 221.057 1623.33 221.364 1622.45 221.364ZM558.517 283.883C558.517 284.146 558.503 284.527 558.473 285.024C558.473 285.492 558.459 286.004 558.43 286.56C558.4 287.087 558.371 287.599 558.342 288.097C558.313 288.565 558.283 288.945 558.254 289.238L570.852 269.529H575.592V293.057H571.993V279.186C571.993 278.718 571.993 278.103 571.993 277.343C572.022 276.582 572.051 275.836 572.081 275.104C572.11 274.343 572.139 273.773 572.168 273.392L559.659 293.057H554.874V269.529H558.517V283.883ZM586.942 269.529V279.318H599.715V269.529H603.578V293.057H599.715V282.566H586.942V293.057H583.08V269.529H586.942ZM627.268 272.778H619.587V293.057H615.768V272.778H608.175V269.529H627.268V272.778ZM640.56 269.091C642.58 269.091 644.306 269.529 645.74 270.407C647.203 271.285 648.315 272.529 649.076 274.138C649.866 275.719 650.261 277.577 650.261 279.713V282.039H634.152C634.21 284.702 634.883 286.736 636.171 288.141C637.488 289.516 639.317 290.204 641.658 290.204C643.15 290.204 644.467 290.072 645.608 289.808C646.779 289.516 647.979 289.106 649.208 288.579V291.959C648.008 292.486 646.823 292.866 645.652 293.101C644.482 293.364 643.092 293.496 641.482 293.496C639.258 293.496 637.283 293.042 635.557 292.135C633.859 291.228 632.528 289.882 631.562 288.097C630.626 286.282 630.158 284.073 630.158 281.469C630.158 278.894 630.582 276.684 631.43 274.841C632.308 272.997 633.523 271.578 635.074 270.583C636.654 269.588 638.483 269.091 640.56 269.091ZM640.517 272.251C638.673 272.251 637.21 272.851 636.127 274.051C635.074 275.221 634.445 276.86 634.24 278.967H646.223C646.223 277.621 646.018 276.45 645.608 275.455C645.199 274.46 644.569 273.685 643.721 273.129C642.901 272.544 641.833 272.251 640.517 272.251ZM667.443 269.091C670.34 269.091 672.667 270.1 674.423 272.119C676.208 274.138 677.1 277.182 677.1 281.249C677.1 283.912 676.69 286.165 675.871 288.009C675.081 289.823 673.954 291.198 672.491 292.135C671.057 293.042 669.36 293.496 667.4 293.496C666.2 293.496 665.132 293.335 664.195 293.013C663.259 292.691 662.454 292.281 661.781 291.784C661.137 291.257 660.581 290.686 660.113 290.072H659.85C659.908 290.569 659.967 291.198 660.025 291.959C660.084 292.72 660.113 293.379 660.113 293.935V303.591H656.25V269.529H659.411L659.938 272.734H660.113C660.581 272.061 661.137 271.446 661.781 270.89C662.454 270.334 663.244 269.895 664.151 269.573C665.088 269.251 666.185 269.091 667.443 269.091ZM666.741 272.339C665.161 272.339 663.888 272.646 662.922 273.26C661.957 273.846 661.254 274.738 660.815 275.938C660.377 277.138 660.142 278.659 660.113 280.503V281.249C660.113 283.18 660.318 284.819 660.728 286.165C661.137 287.511 661.825 288.536 662.791 289.238C663.786 289.94 665.132 290.291 666.829 290.291C668.263 290.291 669.433 289.896 670.34 289.106C671.277 288.316 671.965 287.248 672.403 285.902C672.872 284.527 673.106 282.961 673.106 281.205C673.106 278.513 672.579 276.362 671.526 274.753C670.501 273.143 668.907 272.339 666.741 272.339ZM692.342 269.091C694.361 269.091 696.087 269.529 697.521 270.407C698.984 271.285 700.096 272.529 700.857 274.138C701.647 275.719 702.042 277.577 702.042 279.713V282.039H685.933C685.992 284.702 686.665 286.736 687.952 288.141C689.269 289.516 691.098 290.204 693.439 290.204C694.931 290.204 696.248 290.072 697.389 289.808C698.56 289.516 699.76 289.106 700.989 288.579V291.959C699.789 292.486 698.604 292.866 697.433 293.101C696.263 293.364 694.873 293.496 693.263 293.496C691.039 293.496 689.064 293.042 687.338 292.135C685.64 291.228 684.309 289.882 683.343 288.097C682.407 286.282 681.939 284.073 681.939 281.469C681.939 278.894 682.363 276.684 683.212 274.841C684.09 272.997 685.304 271.578 686.855 270.583C688.435 269.588 690.264 269.091 692.342 269.091ZM692.298 272.251C690.454 272.251 688.991 272.851 687.908 274.051C686.855 275.221 686.226 276.86 686.021 278.967H698.004C698.004 277.621 697.799 276.45 697.389 275.455C696.98 274.46 696.351 273.685 695.502 273.129C694.683 272.544 693.615 272.251 692.298 272.251ZM717.469 293.496C715.391 293.496 713.533 293.071 711.894 292.223C710.285 291.374 709.012 290.057 708.076 288.272C707.168 286.487 706.715 284.205 706.715 281.425C706.715 278.528 707.198 276.172 708.163 274.358C709.129 272.544 710.431 271.212 712.07 270.363C713.738 269.515 715.625 269.091 717.732 269.091C718.932 269.091 720.088 269.222 721.2 269.486C722.312 269.72 723.219 270.012 723.921 270.363L722.736 273.568C722.034 273.304 721.215 273.056 720.278 272.821C719.342 272.587 718.464 272.47 717.645 272.47C716.064 272.47 714.762 272.807 713.738 273.48C712.714 274.153 711.953 275.148 711.455 276.465C710.958 277.782 710.709 279.42 710.709 281.381C710.709 283.254 710.958 284.848 711.455 286.165C711.953 287.482 712.699 288.477 713.694 289.15C714.689 289.823 715.933 290.16 717.425 290.16C718.713 290.16 719.839 290.028 720.805 289.765C721.8 289.501 722.707 289.179 723.526 288.799V292.223C722.736 292.632 721.858 292.94 720.893 293.144C719.956 293.379 718.815 293.496 717.469 293.496ZM732.984 269.529V279.318H745.757V269.529H749.62V293.057H745.757V282.566H732.984V293.057H729.121V269.529H732.984ZM757.07 293.057V269.529H760.932V279.186H767.033C769.082 279.186 770.764 279.435 772.081 279.932C773.398 280.43 774.378 281.176 775.022 282.171C775.666 283.137 775.988 284.366 775.988 285.858C775.988 287.321 775.666 288.594 775.022 289.677C774.408 290.76 773.427 291.594 772.081 292.179C770.764 292.764 769.023 293.057 766.858 293.057H757.07ZM766.507 289.94C768.175 289.94 769.535 289.662 770.589 289.106C771.642 288.521 772.169 287.511 772.169 286.077C772.169 284.644 771.686 283.678 770.721 283.18C769.755 282.654 768.365 282.39 766.551 282.39H760.932V289.94H766.507ZM779.894 293.057V269.529H783.757V293.057H779.894ZM800.319 269.091C802.338 269.091 804.065 269.529 805.499 270.407C806.962 271.285 808.074 272.529 808.835 274.138C809.625 275.719 810.02 277.577 810.02 279.713V282.039H793.911C793.969 284.702 794.642 286.736 795.93 288.141C797.247 289.516 799.076 290.204 801.417 290.204C802.909 290.204 804.226 290.072 805.367 289.808C806.538 289.516 807.737 289.106 808.966 288.579V291.959C807.767 292.486 806.581 292.866 805.411 293.101C804.24 293.364 802.85 293.496 801.241 293.496C799.017 293.496 797.042 293.042 795.315 292.135C793.618 291.228 792.287 289.882 791.321 288.097C790.385 286.282 789.916 284.073 789.916 281.469C789.916 278.894 790.341 276.684 791.189 274.841C792.067 272.997 793.282 271.578 794.832 270.583C796.413 269.588 798.242 269.091 800.319 269.091ZM800.275 272.251C798.432 272.251 796.969 272.851 795.886 274.051C794.832 275.221 794.203 276.86 793.998 278.967H805.982C805.982 277.621 805.777 276.45 805.367 275.455C804.957 274.46 804.328 273.685 803.48 273.129C802.66 272.544 801.592 272.251 800.275 272.251ZM847.295 269.529V293.057H843.433V272.821H831.274V293.057H827.411V269.529H847.295ZM865.995 269.091C868.892 269.091 871.219 270.1 872.974 272.119C874.759 274.138 875.652 277.182 875.652 281.249C875.652 283.912 875.242 286.165 874.423 288.009C873.633 289.823 872.506 291.198 871.043 292.135C869.609 293.042 867.912 293.496 865.951 293.496C864.752 293.496 863.684 293.335 862.747 293.013C861.811 292.691 861.006 292.281 860.333 291.784C859.689 291.257 859.133 290.686 858.665 290.072H858.402C858.46 290.569 858.519 291.198 858.577 291.959C858.636 292.72 858.665 293.379 858.665 293.935V303.591H854.802V269.529H857.963L858.489 272.734H858.665C859.133 272.061 859.689 271.446 860.333 270.89C861.006 270.334 861.796 269.895 862.703 269.573C863.64 269.251 864.737 269.091 865.995 269.091ZM865.293 272.339C863.713 272.339 862.44 272.646 861.474 273.26C860.509 273.846 859.806 274.738 859.367 275.938C858.928 277.138 858.694 278.659 858.665 280.503V281.249C858.665 283.18 858.87 284.819 859.279 286.165C859.689 287.511 860.377 288.536 861.342 289.238C862.337 289.94 863.684 290.291 865.381 290.291C866.815 290.291 867.985 289.896 868.892 289.106C869.829 288.316 870.516 287.248 870.955 285.902C871.423 284.527 871.658 282.961 871.658 281.205C871.658 278.513 871.131 276.362 870.077 274.753C869.053 273.143 867.458 272.339 865.293 272.339ZM890.893 269.091C892.913 269.091 894.639 269.529 896.073 270.407C897.536 271.285 898.648 272.529 899.409 274.138C900.199 275.719 900.594 277.577 900.594 279.713V282.039H884.485C884.543 284.702 885.217 286.736 886.504 288.141C887.821 289.516 889.65 290.204 891.991 290.204C893.483 290.204 894.8 290.072 895.941 289.808C897.112 289.516 898.312 289.106 899.541 288.579V291.959C898.341 292.486 897.156 292.866 895.985 293.101C894.815 293.364 893.425 293.496 891.815 293.496C889.591 293.496 887.616 293.042 885.89 292.135C884.192 291.228 882.861 289.882 881.895 288.097C880.959 286.282 880.491 284.073 880.491 281.469C880.491 278.894 880.915 276.684 881.764 274.841C882.641 272.997 883.856 271.578 885.407 270.583C886.987 269.588 888.816 269.091 890.893 269.091ZM890.85 272.251C889.006 272.251 887.543 272.851 886.46 274.051C885.407 275.221 884.778 276.86 884.573 278.967H896.556C896.556 277.621 896.351 276.45 895.941 275.455C895.532 274.46 894.902 273.685 894.054 273.129C893.234 272.544 892.166 272.251 890.85 272.251ZM924.053 269.529V289.808H927.477V301.221H923.746V293.057H907.374V301.221H903.687V289.808H905.574C906.92 287.936 908.032 285.902 908.91 283.707C909.817 281.483 910.49 279.172 910.929 276.772C911.397 274.343 911.646 271.929 911.675 269.529H924.053ZM915.099 272.558C914.982 274.548 914.675 276.611 914.177 278.747C913.68 280.854 913.036 282.873 912.246 284.805C911.485 286.736 910.593 288.404 909.568 289.808H920.322V272.558H915.099ZM949.997 293.057H946.091V272.734H939.155C938.863 276.45 938.497 279.625 938.058 282.259C937.619 284.863 937.063 286.985 936.39 288.623C935.717 290.262 934.912 291.462 933.976 292.223C933.039 292.983 931.942 293.364 930.684 293.364C930.303 293.364 929.923 293.335 929.542 293.276C929.191 293.247 928.899 293.174 928.665 293.057V290.16C928.84 290.218 929.03 290.262 929.235 290.291C929.44 290.321 929.645 290.335 929.85 290.335C930.494 290.335 931.079 290.072 931.606 289.545C932.132 289.018 932.6 288.214 933.01 287.131C933.449 286.048 933.844 284.688 934.195 283.049C934.546 281.381 934.854 279.42 935.117 277.167C935.38 274.914 935.615 272.368 935.819 269.529H949.997V293.057ZM977.919 281.249C977.919 283.21 977.656 284.951 977.129 286.473C976.632 287.965 975.9 289.238 974.934 290.291C973.998 291.345 972.842 292.149 971.467 292.705C970.121 293.232 968.614 293.496 966.946 293.496C965.395 293.496 963.961 293.232 962.644 292.705C961.327 292.149 960.186 291.345 959.22 290.291C958.255 289.238 957.494 287.965 956.938 286.473C956.411 284.951 956.148 283.21 956.148 281.249C956.148 278.645 956.587 276.45 957.465 274.665C958.342 272.851 959.601 271.475 961.239 270.539C962.878 269.573 964.824 269.091 967.077 269.091C969.214 269.091 971.086 269.573 972.696 270.539C974.335 271.475 975.607 272.851 976.515 274.665C977.451 276.45 977.919 278.645 977.919 281.249ZM960.142 281.249C960.142 283.093 960.376 284.702 960.844 286.077C961.342 287.424 962.103 288.462 963.127 289.194C964.151 289.926 965.453 290.291 967.033 290.291C968.614 290.291 969.916 289.926 970.94 289.194C971.964 288.462 972.71 287.424 973.179 286.077C973.676 284.702 973.925 283.093 973.925 281.249C973.925 279.376 973.676 277.782 973.179 276.465C972.681 275.148 971.92 274.138 970.896 273.436C969.901 272.704 968.599 272.339 966.99 272.339C964.59 272.339 962.849 273.129 961.766 274.709C960.683 276.289 960.142 278.469 960.142 281.249ZM1011.41 269.529L1001.71 280.942L1012.24 293.057H1007.85L997.669 281.117V293.057H994.069V281.117L983.886 293.057H979.497L990.031 280.942L980.331 269.529H984.544L994.069 280.942V269.529H997.669V280.942L1007.24 269.529H1011.41ZM1024.33 269.091C1026.35 269.091 1028.08 269.529 1029.51 270.407C1030.98 271.285 1032.09 272.529 1032.85 274.138C1033.64 275.719 1034.03 277.577 1034.03 279.713V282.039H1017.92C1017.98 284.702 1018.66 286.736 1019.94 288.141C1021.26 289.516 1023.09 290.204 1025.43 290.204C1026.92 290.204 1028.24 290.072 1029.38 289.808C1030.55 289.516 1031.75 289.106 1032.98 288.579V291.959C1031.78 292.486 1030.6 292.866 1029.42 293.101C1028.25 293.364 1026.86 293.496 1025.25 293.496C1023.03 293.496 1021.06 293.042 1019.33 292.135C1017.63 291.228 1016.3 289.882 1015.33 288.097C1014.4 286.282 1013.93 284.073 1013.93 281.469C1013.93 278.894 1014.35 276.684 1015.2 274.841C1016.08 272.997 1017.3 271.578 1018.85 270.583C1020.43 269.588 1022.26 269.091 1024.33 269.091ZM1024.29 272.251C1022.45 272.251 1020.98 272.851 1019.9 274.051C1018.85 275.221 1018.22 276.86 1018.01 278.967H1030C1030 277.621 1029.79 276.45 1029.38 275.455C1028.97 274.46 1028.34 273.685 1027.49 273.129C1026.67 272.544 1025.61 272.251 1024.29 272.251ZM1043.89 269.529V279.318H1056.66V269.529H1060.52V293.057H1056.66V282.566H1043.89V293.057H1040.02V269.529H1043.89ZM1071.61 283.883C1071.61 284.146 1071.6 284.527 1071.57 285.024C1071.57 285.492 1071.56 286.004 1071.53 286.56C1071.5 287.087 1071.47 287.599 1071.44 288.097C1071.41 288.565 1071.38 288.945 1071.35 289.238L1083.95 269.529H1088.69V293.057H1085.09V279.186C1085.09 278.718 1085.09 278.103 1085.09 277.343C1085.12 276.582 1085.15 275.836 1085.18 275.104C1085.21 274.343 1085.24 273.773 1085.27 273.392L1072.76 293.057H1067.97V269.529H1071.61V283.883ZM1097.62 293.057H1093.15L1099.86 283.18C1098.96 282.946 1098.08 282.581 1097.23 282.083C1096.38 281.556 1095.69 280.839 1095.17 279.932C1094.64 278.996 1094.38 277.84 1094.38 276.465C1094.38 274.211 1095.14 272.5 1096.66 271.329C1098.18 270.129 1100.2 269.529 1102.72 269.529H1113.25V293.057H1109.39V283.707H1103.68L1097.62 293.057ZM1098.11 276.509C1098.11 277.855 1098.61 278.864 1099.6 279.537C1100.62 280.181 1102.04 280.503 1103.86 280.503H1109.39V272.734H1103.11C1101.33 272.734 1100.04 273.085 1099.25 273.787C1098.49 274.489 1098.11 275.397 1098.11 276.509ZM1152.55 281.249C1152.55 283.21 1152.29 284.951 1151.76 286.473C1151.26 287.965 1150.53 289.238 1149.57 290.291C1148.63 291.345 1147.48 292.149 1146.1 292.705C1144.75 293.232 1143.25 293.496 1141.58 293.496C1140.03 293.496 1138.59 293.232 1137.28 292.705C1135.96 292.149 1134.82 291.345 1133.85 290.291C1132.89 289.238 1132.13 287.965 1131.57 286.473C1131.04 284.951 1130.78 283.21 1130.78 281.249C1130.78 278.645 1131.22 276.45 1132.1 274.665C1132.98 272.851 1134.23 271.475 1135.87 270.539C1137.51 269.573 1139.46 269.091 1141.71 269.091C1143.85 269.091 1145.72 269.573 1147.33 270.539C1148.97 271.475 1150.24 272.851 1151.15 274.665C1152.08 276.45 1152.55 278.645 1152.55 281.249ZM1134.78 281.249C1134.78 283.093 1135.01 284.702 1135.48 286.077C1135.97 287.424 1136.74 288.462 1137.76 289.194C1138.78 289.926 1140.09 290.291 1141.67 290.291C1143.25 290.291 1144.55 289.926 1145.57 289.194C1146.6 288.462 1147.34 287.424 1147.81 286.077C1148.31 284.702 1148.56 283.093 1148.56 281.249C1148.56 279.376 1148.31 277.782 1147.81 276.465C1147.31 275.148 1146.55 274.138 1145.53 273.436C1144.53 272.704 1143.23 272.339 1141.62 272.339C1139.22 272.339 1137.48 273.129 1136.4 274.709C1135.32 276.289 1134.78 278.469 1134.78 281.249ZM1173.94 269.529V279.318H1186.71V269.529H1190.57V293.057H1186.71V282.566H1173.94V293.057H1170.08V269.529H1173.94ZM1206.93 269.134C1209.8 269.134 1211.92 269.764 1213.3 271.022C1214.67 272.28 1215.36 274.285 1215.36 277.035V293.057H1212.55L1211.81 289.721H1211.63C1210.96 290.569 1210.26 291.286 1209.52 291.872C1208.82 292.427 1208 292.837 1207.07 293.101C1206.16 293.364 1205.05 293.496 1203.73 293.496C1202.33 293.496 1201.05 293.247 1199.91 292.749C1198.8 292.252 1197.92 291.491 1197.28 290.467C1196.63 289.413 1196.31 288.097 1196.31 286.516C1196.31 284.175 1197.23 282.376 1199.08 281.117C1200.92 279.83 1203.76 279.128 1207.59 279.011L1211.59 278.879V277.474C1211.59 275.514 1211.16 274.153 1210.31 273.392C1209.47 272.631 1208.27 272.251 1206.72 272.251C1205.49 272.251 1204.32 272.441 1203.2 272.821C1202.09 273.173 1201.05 273.582 1200.09 274.051L1198.9 271.154C1199.93 270.598 1201.14 270.129 1202.55 269.749C1203.95 269.339 1205.41 269.134 1206.93 269.134ZM1208.08 281.688C1205.15 281.805 1203.12 282.273 1201.97 283.093C1200.86 283.912 1200.31 285.068 1200.31 286.56C1200.31 287.877 1200.7 288.843 1201.49 289.457C1202.31 290.072 1203.35 290.379 1204.61 290.379C1206.6 290.379 1208.25 289.838 1209.57 288.755C1210.89 287.643 1211.54 285.946 1211.54 283.663V281.556L1208.08 281.688ZM1232.07 293.496C1229.99 293.496 1228.13 293.071 1226.49 292.223C1224.88 291.374 1223.61 290.057 1222.67 288.272C1221.77 286.487 1221.31 284.205 1221.31 281.425C1221.31 278.528 1221.79 276.172 1222.76 274.358C1223.73 272.544 1225.03 271.212 1226.67 270.363C1228.34 269.515 1230.22 269.091 1232.33 269.091C1233.53 269.091 1234.69 269.222 1235.8 269.486C1236.91 269.72 1237.82 270.012 1238.52 270.363L1237.33 273.568C1236.63 273.304 1235.81 273.056 1234.88 272.821C1233.94 272.587 1233.06 272.47 1232.24 272.47C1230.66 272.47 1229.36 272.807 1228.34 273.48C1227.31 274.153 1226.55 275.148 1226.05 276.465C1225.56 277.782 1225.31 279.42 1225.31 281.381C1225.31 283.254 1225.56 284.848 1226.05 286.165C1226.55 287.482 1227.3 288.477 1228.29 289.15C1229.29 289.823 1230.53 290.16 1232.02 290.16C1233.31 290.16 1234.44 290.028 1235.4 289.765C1236.4 289.501 1237.3 289.179 1238.12 288.799V292.223C1237.33 292.632 1236.46 292.94 1235.49 293.144C1234.55 293.379 1233.41 293.496 1232.07 293.496Z" fill="#2F4557"/>
<circle cx="1652.86" cy="47.2398" r="46.5543" fill="#029BC5"/>
<path d="M1676.28 32.596C1677.2 34.1888 1677.08 36.0853 1675.96 37.5449L1651.39 69.6104C1650.37 70.9326 1648.7 71.6068 1647 71.2793C1645.33 70.9579 1644 69.74 1643.54 68.1019L1639.91 55.1616L1639.53 53.8157L1638.55 52.8148L1629.16 43.1959C1627.97 41.9787 1627.58 40.2224 1628.14 38.6148C1628.69 37.0256 1630.07 35.8724 1631.78 35.6489L1671.83 30.4013C1673.66 30.1619 1675.36 31.0034 1676.28 32.596Z" fill="white"/>
<path d="M1639.91 55.1611L1643.54 68.1013C1644 69.7394 1645.33 70.9573 1647 71.2787C1648.7 71.6063 1650.37 70.9322 1651.39 69.6098L1675.96 37.5444C1677.08 36.0847 1677.2 34.1882 1676.28 32.5955L1639.53 53.8151L1639.91 55.1611Z" fill="white"/>
<path d="M1654.48 45.1794C1654.86 45.8271 1654.64 46.6559 1653.99 47.0303L1639.91 55.1603L1639.53 53.8144L1638.55 52.8135L1652.63 44.6834C1653.28 44.3091 1654.11 44.5317 1654.48 45.1794Z" fill="white"/>
<path d="M1639.91 55.1617L1653.99 47.0317C1654.64 46.6573 1654.86 45.8285 1654.48 45.1808L1639.53 53.8158L1639.91 55.1617Z" fill="white"/>
<rect x="770" y="369" width="236" height="89" rx="13.3012" fill="#DF6951"/>
<path d="M825.912 409.136V422H823.8V410.936H817.152V422H815.04V409.136H825.912ZM841.201 415.544C841.201 416.616 841.057 417.568 840.769 418.4C840.497 419.216 840.097 419.912 839.569 420.488C839.057 421.064 838.425 421.504 837.673 421.808C836.937 422.096 836.113 422.24 835.201 422.24C834.353 422.24 833.569 422.096 832.849 421.808C832.129 421.504 831.505 421.064 830.977 420.488C830.449 419.912 830.033 419.216 829.729 418.4C829.441 417.568 829.297 416.616 829.297 415.544C829.297 414.12 829.537 412.92 830.017 411.944C830.497 410.952 831.185 410.2 832.081 409.688C832.977 409.16 834.041 408.896 835.273 408.896C836.441 408.896 837.465 409.16 838.345 409.688C839.241 410.2 839.937 410.952 840.433 411.944C840.945 412.92 841.201 414.12 841.201 415.544ZM831.481 415.544C831.481 416.552 831.609 417.432 831.865 418.184C832.137 418.92 832.553 419.488 833.113 419.888C833.673 420.288 834.385 420.488 835.249 420.488C836.113 420.488 836.825 420.288 837.385 419.888C837.945 419.488 838.353 418.92 838.609 418.184C838.881 417.432 839.017 416.552 839.017 415.544C839.017 414.52 838.881 413.648 838.609 412.928C838.337 412.208 837.921 411.656 837.361 411.272C836.817 410.872 836.105 410.672 835.225 410.672C833.913 410.672 832.961 411.104 832.369 411.968C831.777 412.832 831.481 414.024 831.481 415.544ZM854.1 409.136V420.224H855.972V426.464H853.932V422H844.98V426.464H842.964V420.224H843.996C844.732 419.2 845.34 418.088 845.82 416.888C846.316 415.672 846.684 414.408 846.924 413.096C847.18 411.768 847.316 410.448 847.332 409.136H854.1ZM849.204 410.792C849.14 411.88 848.972 413.008 848.7 414.176C848.428 415.328 848.076 416.432 847.644 417.488C847.228 418.544 846.74 419.456 846.18 420.224H852.06V410.792H849.204ZM869.365 409.136V422H867.253V410.936H860.605V422H858.493V409.136H869.365ZM875.462 416.984C875.462 417.128 875.454 417.336 875.438 417.608C875.438 417.864 875.43 418.144 875.414 418.448C875.398 418.736 875.382 419.016 875.366 419.288C875.35 419.544 875.334 419.752 875.318 419.912L882.206 409.136H884.798V422H882.83V414.416C882.83 414.16 882.83 413.824 882.83 413.408C882.846 412.992 882.862 412.584 882.878 412.184C882.894 411.768 882.91 411.456 882.926 411.248L876.086 422H873.47V409.136H875.462V416.984ZM894.052 422.24C892.916 422.24 891.9 422.008 891.004 421.544C890.124 421.08 889.428 420.36 888.916 419.384C888.42 418.408 888.172 417.16 888.172 415.64C888.172 414.056 888.436 412.768 888.964 411.776C889.492 410.784 890.204 410.056 891.1 409.592C892.012 409.128 893.044 408.896 894.196 408.896C894.852 408.896 895.484 408.968 896.092 409.112C896.7 409.24 897.196 409.4 897.58 409.592L896.932 411.344C896.548 411.2 896.1 411.064 895.588 410.936C895.076 410.808 894.596 410.744 894.148 410.744C893.284 410.744 892.572 410.928 892.012 411.296C891.452 411.664 891.036 412.208 890.764 412.928C890.492 413.648 890.356 414.544 890.356 415.616C890.356 416.64 890.492 417.512 890.764 418.232C891.036 418.952 891.444 419.496 891.988 419.864C892.532 420.232 893.212 420.416 894.028 420.416C894.732 420.416 895.348 420.344 895.876 420.2C896.42 420.056 896.916 419.88 897.364 419.672V421.544C896.932 421.768 896.452 421.936 895.924 422.048C895.412 422.176 894.788 422.24 894.052 422.24ZM905.295 408.92C906.863 408.92 908.023 409.264 908.775 409.952C909.527 410.64 909.903 411.736 909.903 413.24V422H908.367L907.959 420.176H907.863C907.495 420.64 907.111 421.032 906.711 421.352C906.327 421.656 905.879 421.88 905.367 422.024C904.871 422.168 904.263 422.24 903.543 422.24C902.775 422.24 902.079 422.104 901.455 421.832C900.847 421.56 900.367 421.144 900.015 420.584C899.663 420.008 899.487 419.288 899.487 418.424C899.487 417.144 899.991 416.16 900.999 415.472C902.007 414.768 903.559 414.384 905.655 414.32L907.839 414.248V413.48C907.839 412.408 907.607 411.664 907.143 411.248C906.679 410.832 906.023 410.624 905.175 410.624C904.503 410.624 903.863 410.728 903.255 410.936C902.647 411.128 902.079 411.352 901.551 411.608L900.903 410.024C901.463 409.72 902.127 409.464 902.895 409.256C903.663 409.032 904.463 408.92 905.295 408.92ZM905.919 415.784C904.319 415.848 903.207 416.104 902.583 416.552C901.975 417 901.671 417.632 901.671 418.448C901.671 419.168 901.887 419.696 902.319 420.032C902.767 420.368 903.335 420.536 904.023 420.536C905.111 420.536 906.015 420.24 906.735 419.648C907.455 419.04 907.815 418.112 907.815 416.864V415.712L905.919 415.784ZM922.756 410.912H918.556V422H916.468V410.912H912.316V409.136H922.756V410.912ZM931.218 414.416C932.338 414.416 933.266 414.552 934.002 414.824C934.738 415.096 935.29 415.504 935.658 416.048C936.042 416.576 936.234 417.248 936.234 418.064C936.234 418.864 936.05 419.56 935.682 420.152C935.33 420.744 934.778 421.2 934.026 421.52C933.274 421.84 932.306 422 931.122 422H925.29V409.136H927.402V414.416H931.218ZM934.122 418.184C934.122 417.4 933.842 416.872 933.282 416.6C932.738 416.312 931.97 416.168 930.978 416.168H927.402V420.296H931.026C931.922 420.296 932.658 420.136 933.234 419.816C933.826 419.496 934.122 418.952 934.122 418.184ZM944.7 422.24C943.564 422.24 942.548 422.008 941.652 421.544C940.772 421.08 940.076 420.36 939.564 419.384C939.068 418.408 938.82 417.16 938.82 415.64C938.82 414.056 939.084 412.768 939.612 411.776C940.14 410.784 940.852 410.056 941.748 409.592C942.66 409.128 943.692 408.896 944.844 408.896C945.5 408.896 946.132 408.968 946.74 409.112C947.348 409.24 947.844 409.4 948.228 409.592L947.58 411.344C947.196 411.2 946.748 411.064 946.236 410.936C945.724 410.808 945.244 410.744 944.796 410.744C943.932 410.744 943.22 410.928 942.66 411.296C942.1 411.664 941.684 412.208 941.412 412.928C941.14 413.648 941.004 414.544 941.004 415.616C941.004 416.64 941.14 417.512 941.412 418.232C941.684 418.952 942.092 419.496 942.636 419.864C943.18 420.232 943.86 420.416 944.676 420.416C945.38 420.416 945.996 420.344 946.524 420.2C947.068 420.056 947.564 419.88 948.012 419.672V421.544C947.58 421.768 947.1 421.936 946.572 422.048C946.06 422.176 945.436 422.24 944.7 422.24ZM951.863 422H949.415L953.087 416.6C952.591 416.472 952.111 416.272 951.647 416C951.183 415.712 950.807 415.32 950.519 414.824C950.231 414.312 950.087 413.68 950.087 412.928C950.087 411.696 950.503 410.76 951.335 410.12C952.167 409.464 953.271 409.136 954.647 409.136H960.407V422H958.295V416.888H955.175L951.863 422ZM952.127 412.952C952.127 413.688 952.399 414.24 952.943 414.608C953.503 414.96 954.279 415.136 955.271 415.136H958.295V410.888H954.863C953.887 410.888 953.183 411.08 952.751 411.464C952.335 411.848 952.127 412.344 952.127 412.952Z" fill="white"/>
</svg>
