<svg width="83" height="82" viewBox="0 0 83 82" fill="none" xmlns="http://www.w3.org/2000/svg">
<g filter="url(#filter0_d_9_528)">
<path fill-rule="evenodd" clip-rule="evenodd" d="M41.5097 65.2664C56.5691 65.2664 68.7772 53.0584 68.7772 37.9989C68.7772 22.9395 56.5691 10.7314 41.5097 10.7314C26.4503 10.7314 14.2422 22.9395 14.2422 37.9989C14.2422 53.0584 26.4503 65.2664 41.5097 65.2664Z" fill="white"/>
</g>
<path d="M52.3333 31.0471C51.54 31.3942 50.6947 31.6243 49.8133 31.7361C50.72 31.196 51.412 30.3474 51.7373 29.3245C50.892 29.8273 49.9587 30.1825 48.964 30.3807C48.1613 29.5281 47.0173 29 45.7693 29C43.348 29 41.3987 30.9606 41.3987 33.3641C41.3987 33.71 41.428 34.0425 41.5 34.3591C37.864 34.1822 34.6467 32.4437 32.4853 29.7954C32.108 30.4485 31.8867 31.196 31.8867 32.0008C31.8867 33.5118 32.6667 34.8512 33.8293 35.6267C33.1267 35.6134 32.4373 35.4099 31.8533 35.0893C31.8533 35.1026 31.8533 35.1199 31.8533 35.1372C31.8533 37.2574 33.3693 39.0185 35.3573 39.4242C35.0013 39.5213 34.6133 39.5678 34.2107 39.5678C33.9307 39.5678 33.648 39.5519 33.3827 39.4933C33.9493 41.2212 35.5573 42.4914 37.4693 42.5327C35.9813 43.6939 34.092 44.3935 32.0467 44.3935C31.688 44.3935 31.344 44.3775 31 44.3336C32.9373 45.58 35.2333 46.2916 37.7093 46.2916C45.7573 46.2916 50.1573 39.641 50.1573 33.8762C50.1573 33.6834 50.1507 33.4971 50.1413 33.3123C51.0093 32.6977 51.7387 31.9303 52.3333 31.0471Z" fill="#080809"/>
<defs>
<filter id="filter0_d_9_528" x="0.940972" y="0.0904729" width="81.1376" height="81.1376" filterUnits="userSpaceOnUse" color-interpolation-filters="sRGB">
<feFlood flood-opacity="0" result="BackgroundImageFix"/>
<feColorMatrix in="SourceAlpha" type="matrix" values="0 0 0 0 0 0 0 0 0 0 0 0 0 0 0 0 0 0 127 0" result="hardAlpha"/>
<feOffset dy="2.66024"/>
<feGaussianBlur stdDeviation="6.65061"/>
<feColorMatrix type="matrix" values="0 0 0 0 0 0 0 0 0 0 0 0 0 0 0 0 0 0 0.1 0"/>
<feBlend mode="normal" in2="BackgroundImageFix" result="effect1_dropShadow_9_528"/>
<feBlend mode="normal" in="SourceGraphic" in2="effect1_dropShadow_9_528" result="shape"/>
</filter>
</defs>
</svg>
